999
dxfrw 0.6.3
  0
SECTION
  2
HEADER
  9
$ACADVER
  1
AC1021
  9
$DWGCODEPAGE
  3
ANSI_1252
  9
$INSBASE
 10
0
 20
0
 30
0
  9
$EXTMIN
 10
-50.83333268710709
 20
-23.05555555555555
 30
0
  9
$EXTMAX
 10
858.4722222222223
 20
684.5000000000002
 30
0
  9
$LIMMIN
 10
0
 20
0
  9
$LIMMAX
 10
420
 20
297
  9
$ORTHOMODE
 70
    0
  9
$REGENMODE
 70
    1
  9
$FILLMODE
 70
    1
  9
$QTEXTMODE
 70
    0
  9
$MIRRTEXT
 70
    1
  9
$LTSCALE
 40
1
  9
$ATTMODE
 70
    1
  9
$TEXTSIZE
 40
2.5
  9
$TRACEWID
 40
1
  9
$TEXTSTYLE
  7
Standard
  9
$CLAYER
  8
0
  9
$CELTYPE
  6
ByLayer
  9
$CECOLOR
 62
  256
  9
$CELTSCALE
 40
1
  9
$DISPSILH
 70
    0
  9
$DIMSCALE
 40
1
  9
$DIMASZ
 40
2.5
  9
$DIMEXO
 40
0.625
  9
$DIMDLI
 40
3.75
  9
$DIMRND
 40
0
  9
$DIMDLE
 40
0
  9
$DIMEXE
 40
1.25
  9
$DIMTP
 40
0
  9
$DIMTM
 40
0
  9
$DIMTXT
 40
2.5
  9
$DIMCEN
 40
2.5
  9
$DIMTSZ
 40
0
  9
$DIMTOL
 70
    0
  9
$DIMLIM
 70
    0
  9
$DIMTIH
 70
    0
  9
$DIMTOH
 70
    0
  9
$DIMSE1
 70
    0
  9
$DIMSE2
 70
    0
  9
$DIMTAD
 70
    1
  9
$DIMZIN
 70
    8
  9
$DIMBLK
  1

  9
$DIMASO
 70
    1
  9
$DIMSHO
 70
    1
  9
$DIMPOST
  1

  9
$DIMAPOST
  1

  9
$DIMALT
 70
    0
  9
$DIMALTD
 70
    3
  9
$DIMALTF
 40
0.03937007874
  9
$DIMLFAC
 40
1
  9
$DIMTOFL
 70
    1
  9
$DIMTVP
 40
0
  9
$DIMTIX
 70
    0
  9
$DIMSOXD
 70
    0
  9
$DIMSAH
 70
    0
  9
$DIMBLK1
  1

  9
$DIMBLK2
  1

  9
$DIMSTYLE
  2
ISO-25
  9
$DIMCLRD
 70
    0
  9
$DIMCLRE
 70
    0
  9
$DIMCLRT
 70
    0
  9
$DIMTFAC
 40
1
  9
$DIMGAP
 40
0.625
  9
$DIMJUST
 70
    0
  9
$DIMSD1
 70
    0
  9
$DIMSD2
 70
    0
  9
$DIMTOLJ
 70
    0
  9
$DIMTZIN
 70
    8
  9
$DIMALTZ
 70
    0
  9
$DIMALTTZ
 70
    0
  9
$DIMUPT
 70
    0
  9
$DIMDEC
 70
    2
  9
$DIMTDEC
 70
    2
  9
$DIMALTU
 70
    2
  9
$DIMALTTD
 70
    3
  9
$DIMTXSTY
  7
Standard
  9
$DIMAUNIT
 70
    0
  9
$DIMADEC
 70
    0
  9
$DIMALTRND
 40
0
  9
$DIMAZIN
 70
    0
  9
$DIMDSEP
 70
   44
  9
$DIMATFIT
 70
    3
  9
$DIMFRAC
 70
    0
  9
$DIMLDRBLK
  1

  9
$DIMLUNIT
 70
    2
  9
$DIMLWD
 70
   -2
  9
$DIMLWE
 70
   -2
  9
$DIMTMOVE
 70
    0
  9
$DIMFXL
 40
1
  9
$DIMFXLON
 70
    0
  9
$DIMJOGANG
 40
0.785398163397
  9
$DIMTFILL
 70
    0
  9
$DIMTFILLCLR
 70
    0
  9
$DIMARCSYM
 70
    0
  9
$DIMLTYPE
  6

  9
$DIMLTEX1
  6

  9
$DIMLTEX2
  6

  9
$LUNITS
 70
    2
  9
$LUPREC
 70
    4
  9
$SKETCHINC
 40
1
  9
$FILLETRAD
 40
10
  9
$AUNITS
 70
    0
  9
$AUPREC
 70
    2
  9
$MENU
  1
.
  9
$ELEVATION
 40
0
  9
$PELEVATION
 40
0
  9
$THICKNESS
 40
0
  9
$LIMCHECK
 70
    0
  9
$CHAMFERA
 40
0
  9
$CHAMFERB
 40
0
  9
$CHAMFERC
 40
0
  9
$CHAMFERD
 40
0
  9
$SKPOLY
 70
    0
  9
$USRTIMER
 70
    1
  9
$ANGBASE
 50
0
  9
$ANGDIR
 70
    0
  9
$PDMODE
 70
    0
  9
$PDSIZE
 40
0
  9
$PLINEWID
 40
0
  9
$SPLFRAME
 70
    0
  9
$SPLINETYPE
 70
    6
  9
$SPLINESEGS
 70
    8
  9
$HANDSEED
  5
20000
  9
$SURFTAB1
 70
    6
  9
$SURFTAB2
 70
    6
  9
$SURFTYPE
 70
    6
  9
$SURFU
 70
    6
  9
$SURFV
 70
    6
  9
$UCSBASE
  2

  9
$UCSNAME
  2

  9
$UCSORG
 10
0
 20
0
 30
0
  9
$UCSXDIR
 10
1
 20
0
 30
0
  9
$UCSYDIR
 10
0
 20
1
 30
0
  9
$UCSORTHOREF
  2

  9
$UCSORTHOVIEW
 70
    0
  9
$UCSORGTOP
 10
0
 20
0
 30
0
  9
$UCSORGBOTTOM
 10
0
 20
0
 30
0
  9
$UCSORGLEFT
 10
0
 20
0
 30
0
  9
$UCSORGRIGHT
 10
0
 20
0
 30
0
  9
$UCSORGFRONT
 10
0
 20
0
 30
0
  9
$UCSORGBACK
 10
0
 20
0
 30
0
  9
$PUCSBASE
  2

  9
$PUCSNAME
  2

  9
$PUCSORG
 10
0
 20
0
 30
0
  9
$PUCSXDIR
 10
1
 20
0
 30
0
  9
$PUCSYDIR
 10
0
 20
1
 30
0
  9
$PUCSORTHOREF
  2

  9
$PUCSORTHOVIEW
 70
    0
  9
$PUCSORGTOP
 10
0
 20
0
 30
0
  9
$PUCSORGBOTTOM
 10
0
 20
0
 30
0
  9
$PUCSORGLEFT
 10
0
 20
0
 30
0
  9
$PUCSORGRIGHT
 10
0
 20
0
 30
0
  9
$PUCSORGFRONT
 10
0
 20
0
 30
0
  9
$PUCSORGBACK
 10
0
 20
0
 30
0
  9
$USERI1
 70
    0
  9
$USERI2
 70
    0
  9
$USERI3
 70
    0
  9
$USERI4
 70
    0
  9
$USERI5
 70
    0
  9
$USERR1
 40
0
  9
$USERR2
 40
0
  9
$USERR3
 40
0
  9
$USERR4
 40
0
  9
$USERR5
 40
0
  9
$WORLDVIEW
 70
    1
  9
$SHADEDGE
 70
    3
  9
$SHADEDIF
 70
   70
  9
$TILEMODE
 70
    1
  9
$MAXACTVP
 70
   64
  9
$PINSBASE
 10
0
 20
0
 30
0
  9
$PLIMCHECK
 70
    0
  9
$PEXTMIN
 10
1e+20
 20
1e+20
 30
1e+20
  9
$PEXTMAX
 10
-1e+20
 20
-1e+20
 30
-1e+20
  9
$GRIDMODE
 70
    0
  9
$SNAPSTYLE
 70
    0
  9
$PLIMMIN
 10
0
 20
0
  9
$PLIMMAX
 10
420
 20
297
  9
$UNITMODE
 70
    0
  9
$VISRETAIN
 70
    1
  9
$PLINEGEN
 70
    0
  9
$PSLTSCALE
 70
    1
  9
$TREEDEPTH
 70
 3020
  9
$CMLSTYLE
  2
Standard
  9
$CMLJUST
 70
    0
  9
$CMLSCALE
 40
20
  9
$PROXYGRAPHICS
 70
    1
  9
$MEASUREMENT
 70
    1
  9
$CELWEIGHT
370
   -1
  9
$ENDCAPS
280
    0
  9
$JOINSTYLE
280
    0
  9
$LWDISPLAY
290
    0
  9
$INSUNITS
 70
    6
  9
$HYPERLINKBASE
  1

  9
$STYLESHEET
  1

  9
$XEDIT
290
    1
  9
$CEPSNTYPE
380
    0
  9
$PSTYLEMODE
290
    1
  9
$EXTNAMES
290
    1
  9
$PSVPSCALE
 40
0
  9
$OLESTARTUP
290
    0
  9
$SORTENTS
280
  127
  9
$INDEXCTL
280
    0
  9
$HIDETEXT
280
    1
  9
$XCLIPFRAME
290
    1
  9
$HALOGAP
280
    0
  9
$OBSCOLOR
 70
  257
  9
$OBSLTYPE
280
    0
  9
$INTERSECTIONDISPLAY
280
    0
  9
$INTERSECTIONCOLOR
 70
  257
  9
$DIMASSOC
280
    2
  9
$PROJECTNAME
  1

  9
$CAMERADISPLAY
290
    0
  9
$LENSLENGTH
 40
50
  9
$CAMERAHEIGHT
 40
0
  9
$STEPSPERSEC
 40
24
  9
$STEPSIZE
 40
100
  9
$3DDWFPREC
 40
2
  9
$PSOLWIDTH
 40
0.005
  9
$PSOLHEIGHT
 40
0.08
  9
$LOFTANG1
 40
1.570796326795
  9
$LOFTANG2
 40
1.570796326795
  9
$LOFTMAG1
 40
0
  9
$LOFTMAG2
 40
0
  9
$LOFTPARAM
 70
    7
  9
$LOFTNORMALS
280
    1
  9
$LATITUDE
 40
37.795
  9
$LONGITUDE
 40
-122.394
  9
$NORTHDIRECTION
 40
0
  9
$TIMEZONE
 70
-8000
  9
$LIGHTGLYPHDISPLAY
280
    1
  9
$TILEMODELIGHTSYNCH
280
    1
  9
$SOLIDHIST
280
    0
  9
$SHOWHIST
280
    1
  9
$DWFFRAME
280
    2
  9
$DGNFRAME
280
    2
  9
$REALWORLDSCALE
290
    1
  9
$INTERFERECOLOR
 62
  256
  9
$CSHADOW
280
    0
  9
$SHADOWPLANELOCATION
 40
0
  0
ENDSEC
  0
SECTION
  2
CLASSES
  0
ENDSEC
  0
SECTION
  2
TABLES
  0
TABLE
  2
VPORT
  5
8
330
0
100
AcDbSymbolTable
 70
    1
  0
VPORT
  5
31
330
2
100
AcDbSymbolTableRecord
100
AcDbViewportTableRecord
  2
*ACTIVE
 70
    0
 10
0
 20
0
 11
1
 21
1
 12
471.3729156926914
 22
344.8465014804427
 13
0
 23
0
 14
10
 24
10
 15
10
 25
10
 16
0
 26
0
 36
1
 17
0
 27
0
 37
0
 40
717.4791958859282
 41
1.50207468879668
 42
50
 43
0
 44
0
 50
0
 51
0
 71
    0
 72
  100
 73
    1
 74
    3
 75
    0
 76
    0
 77
    0
 78
    0
281
    0
 65
    1
110
0
120
0
130
0
111
1
121
0
131
0
112
0
122
1
132
0
 79
    0
146
0
348
10020
 60
    7
 61
    5
292
1
282
    1
141
0
142
0
 63
  250
421
3358443
  0
ENDTAB
  0
TABLE
  2
LTYPE
  5
5
330
0
100
AcDbSymbolTable
 70
    4
  0
LTYPE
  5
14
330
5
100
AcDbSymbolTableRecord
100
AcDbLinetypeTableRecord
  2
ByBlock
 70
    0
  3

 72
   65
 73
    0
 40
0
  0
LTYPE
  5
15
330
5
100
AcDbSymbolTableRecord
100
AcDbLinetypeTableRecord
  2
ByLayer
 70
    0
  3

 72
   65
 73
    0
 40
0
  0
LTYPE
  5
16
330
5
100
AcDbSymbolTableRecord
100
AcDbLinetypeTableRecord
  2
Continuous
 70
    0
  3
Solid line
 72
   65
 73
    0
 40
0
  0
LTYPE
  5
32
330
5
100
AcDbSymbolTableRecord
100
AcDbLinetypeTableRecord
  2
DOT
 70
    0
  3
Dot . . . . . . . . . . . . . . . . . . . . . .
 72
   65
 73
    2
 40
6.35
 49
0
 74
    0
 49
-6.35
 74
    0
  0
LTYPE
  5
33
330
5
100
AcDbSymbolTableRecord
100
AcDbLinetypeTableRecord
  2
DOTTINY
 70
    0
  3
Dot (.15x) .....................................
 72
   65
 73
    2
 40
0.9525
 49
0
 74
    0
 49
-0.9525
 74
    0
  0
LTYPE
  5
34
330
5
100
AcDbSymbolTableRecord
100
AcDbLinetypeTableRecord
  2
DOT2
 70
    0
  3
Dot (.5x) .....................................
 72
   65
 73
    2
 40
3.175
 49
0
 74
    0
 49
-3.175
 74
    0
  0
LTYPE
  5
35
330
5
100
AcDbSymbolTableRecord
100
AcDbLinetypeTableRecord
  2
DOTX2
 70
    0
  3
Dot (2x) .  .  .  .  .  .  .  .  .  .  .  .  .
 72
   65
 73
    2
 40
12.7
 49
0
 74
    0
 49
-12.7
 74
    0
  0
LTYPE
  5
36
330
5
100
AcDbSymbolTableRecord
100
AcDbLinetypeTableRecord
  2
DASHED
 70
    0
  3
Dashed _ _ _ _ _ _ _ _ _ _ _ _ _ _ _ _ _
 72
   65
 73
    2
 40
19.05
 49
12.7
 74
    0
 49
-6.35
 74
    0
  0
LTYPE
  5
37
330
5
100
AcDbSymbolTableRecord
100
AcDbLinetypeTableRecord
  2
DASHEDTINY
 70
    0
  3
Dashed (.15x) _ _ _ _ _ _ _ _ _ _ _ _ _ _ _ _ _
 72
   65
 73
    2
 40
2.8575
 49
1.905
 74
    0
 49
-0.9525
 74
    0
  0
LTYPE
  5
38
330
5
100
AcDbSymbolTableRecord
100
AcDbLinetypeTableRecord
  2
DASHED2
 70
    0
  3
Dashed (.5x) _ _ _ _ _ _ _ _ _ _ _ _ _ _ _ _ _
 72
   65
 73
    2
 40
9.524999999999999
 49
6.35
 74
    0
 49
-3.175
 74
    0
  0
LTYPE
  5
39
330
5
100
AcDbSymbolTableRecord
100
AcDbLinetypeTableRecord
  2
DASHEDX2
 70
    0
  3
Dashed (2x) ____  ____  ____  ____  ____  ___
 72
   65
 73
    2
 40
38.09999999999999
 49
25.4
 74
    0
 49
-12.7
 74
    0
  0
LTYPE
  5
3A
330
5
100
AcDbSymbolTableRecord
100
AcDbLinetypeTableRecord
  2
DASHDOT
 70
    0
  3
Dash dot __ . __ . __ . __ . __ . __ . __ . __
 72
   65
 73
    4
 40
25.4
 49
12.7
 74
    0
 49
-6.35
 74
    0
 49
0
 74
    0
 49
-6.35
 74
    0
  0
LTYPE
  5
3B
330
5
100
AcDbSymbolTableRecord
100
AcDbLinetypeTableRecord
  2
DASHDOTTINY
 70
    0
  3
Dash dot (.15x) _._._._._._._._._._._._._._._.
 72
   65
 73
    4
 40
3.81
 49
1.905
 74
    0
 49
-0.9525
 74
    0
 49
0
 74
    0
 49
-0.9525
 74
    0
  0
LTYPE
  5
3C
330
5
100
AcDbSymbolTableRecord
100
AcDbLinetypeTableRecord
  2
DASHDOT2
 70
    0
  3
Dash dot (.5x) _._._._._._._._._._._._._._._.
 72
   65
 73
    4
 40
12.7
 49
6.35
 74
    0
 49
-3.175
 74
    0
 49
0
 74
    0
 49
-3.175
 74
    0
  0
LTYPE
  5
3D
330
5
100
AcDbSymbolTableRecord
100
AcDbLinetypeTableRecord
  2
DASHDOTX2
 70
    0
  3
Dash dot (2x) ____  .  ____  .  ____  .  ___
 72
   65
 73
    4
 40
50.8
 49
25.4
 74
    0
 49
-12.7
 74
    0
 49
0
 74
    0
 49
-12.7
 74
    0
  0
LTYPE
  5
3E
330
5
100
AcDbSymbolTableRecord
100
AcDbLinetypeTableRecord
  2
DIVIDE
 70
    0
  3
Divide ____ . . ____ . . ____ . . ____ . . ____
 72
   65
 73
    6
 40
31.75
 49
12.7
 74
    0
 49
-6.35
 74
    0
 49
0
 74
    0
 49
-6.35
 74
    0
 49
0
 74
    0
 49
-6.35
 74
    0
  0
LTYPE
  5
3F
330
5
100
AcDbSymbolTableRecord
100
AcDbLinetypeTableRecord
  2
DIVIDETINY
 70
    0
  3
Divide (.15x) __..__..__..__..__..__..__..__.._
 72
   65
 73
    6
 40
4.7625
 49
1.905
 74
    0
 49
-0.9525
 74
    0
 49
0
 74
    0
 49
-0.9525
 74
    0
 49
0
 74
    0
 49
-0.9525
 74
    0
  0
LTYPE
  5
40
330
5
100
AcDbSymbolTableRecord
100
AcDbLinetypeTableRecord
  2
DIVIDE2
 70
    0
  3
Divide (.5x) __..__..__..__..__..__..__..__.._
 72
   65
 73
    6
 40
15.875
 49
6.35
 74
    0
 49
-3.175
 74
    0
 49
0
 74
    0
 49
-3.175
 74
    0
 49
0
 74
    0
 49
-3.175
 74
    0
  0
LTYPE
  5
41
330
5
100
AcDbSymbolTableRecord
100
AcDbLinetypeTableRecord
  2
DIVIDEX2
 70
    0
  3
Divide (2x) ________  .  .  ________  .  .  _
 72
   65
 73
    6
 40
63.5
 49
25.4
 74
    0
 49
-12.7
 74
    0
 49
0
 74
    0
 49
-12.7
 74
    0
 49
0
 74
    0
 49
-12.7
 74
    0
  0
LTYPE
  5
42
330
5
100
AcDbSymbolTableRecord
100
AcDbLinetypeTableRecord
  2
BORDER
 70
    0
  3
Border __ __ . __ __ . __ __ . __ __ . __ __ .
 72
   65
 73
    6
 40
44.45
 49
12.7
 74
    0
 49
-6.35
 74
    0
 49
12.7
 74
    0
 49
-6.35
 74
    0
 49
0
 74
    0
 49
-6.35
 74
    0
  0
LTYPE
  5
43
330
5
100
AcDbSymbolTableRecord
100
AcDbLinetypeTableRecord
  2
BORDERTINY
 70
    0
  3
Border (.15x) __.__.__.__.__.__.__.__.__.__.__.
 72
   65
 73
    6
 40
6.6675
 49
1.905
 74
    0
 49
-0.9525
 74
    0
 49
1.905
 74
    0
 49
-0.9525
 74
    0
 49
0
 74
    0
 49
-0.9525
 74
    0
  0
LTYPE
  5
44
330
5
100
AcDbSymbolTableRecord
100
AcDbLinetypeTableRecord
  2
BORDER2
 70
    0
  3
Border (.5x) __.__.__.__.__.__.__.__.__.__.__.
 72
   65
 73
    6
 40
22.225
 49
6.35
 74
    0
 49
-3.175
 74
    0
 49
6.35
 74
    0
 49
-3.175
 74
    0
 49
0
 74
    0
 49
-3.175
 74
    0
  0
LTYPE
  5
45
330
5
100
AcDbSymbolTableRecord
100
AcDbLinetypeTableRecord
  2
BORDERX2
 70
    0
  3
Border (2x) ____  ____  .  ____  ____  .  ___
 72
   65
 73
    6
 40
88.89999999999999
 49
25.4
 74
    0
 49
-12.7
 74
    0
 49
25.4
 74
    0
 49
-12.7
 74
    0
 49
0
 74
    0
 49
-12.7
 74
    0
  0
LTYPE
  5
46
330
5
100
AcDbSymbolTableRecord
100
AcDbLinetypeTableRecord
  2
CENTER
 70
    0
  3
Center ____ _ ____ _ ____ _ ____ _ ____ _ ____
 72
   65
 73
    4
 40
50.8
 49
31.75
 74
    0
 49
-6.35
 74
    0
 49
6.35
 74
    0
 49
-6.35
 74
    0
  0
LTYPE
  5
47
330
5
100
AcDbSymbolTableRecord
100
AcDbLinetypeTableRecord
  2
CENTERTINY
 70
    0
  3
Center (.15x) ___ _ ___ _ ___ _ ___ _ ___ _ ___
 72
   65
 73
    4
 40
7.619999999999999
 49
4.7625
 74
    0
 49
-0.9525
 74
    0
 49
0.9525
 74
    0
 49
-0.9525
 74
    0
  0
LTYPE
  5
48
330
5
100
AcDbSymbolTableRecord
100
AcDbLinetypeTableRecord
  2
CENTER2
 70
    0
  3
Center (.5x) ___ _ ___ _ ___ _ ___ _ ___ _ ___
 72
   65
 73
    4
 40
28.575
 49
19.05
 74
    0
 49
-3.175
 74
    0
 49
3.175
 74
    0
 49
-3.175
 74
    0
  0
LTYPE
  5
49
330
5
100
AcDbSymbolTableRecord
100
AcDbLinetypeTableRecord
  2
CENTERX2
 70
    0
  3
Center (2x) ________  __  ________  __  _____
 72
   65
 73
    4
 40
101.6
 49
63.5
 74
    0
 49
-12.7
 74
    0
 49
12.7
 74
    0
 49
-12.7
 74
    0
  0
ENDTAB
  0
TABLE
  2
LAYER
  5
2
330
0
100
AcDbSymbolTable
 70
    1
  0
LAYER
  5
10
330
2
100
AcDbSymbolTableRecord
100
AcDbLayerTableRecord
  2
0
 70
    0
 62
    7
  6
CONTINUOUS
370
   -3
390
F
  0
LAYER
  5
4A
330
2
100
AcDbSymbolTableRecord
100
AcDbLayerTableRecord
  2
DIM
 70
    0
 62
    3
  6
CONTINUOUS
370
   13
390
F
  0
LAYER
  5
4B
330
2
100
AcDbSymbolTableRecord
100
AcDbLayerTableRecord
  2
DM
 70
    0
 62
    3
  6
CONTINUOUS
370
   13
390
F
  0
LAYER
  5
4C
330
2
100
AcDbSymbolTableRecord
100
AcDbLayerTableRecord
  2
DOOR
 70
    0
 62
   30
  6
CONTINUOUS
370
   18
390
F
  0
LAYER
  5
4D
330
2
100
AcDbSymbolTableRecord
100
AcDbLayerTableRecord
  2
Defpoints
 70
    0
 62
    7
  6
CONTINUOUS
290
0
370
   -3
390
F
  0
LAYER
  5
4E
330
2
100
AcDbSymbolTableRecord
100
AcDbLayerTableRecord
  2
EXT
 70
    0
 62
    7
  6
CONTINUOUS
370
   50
390
F
  0
LAYER
  5
4F
330
2
100
AcDbSymbolTableRecord
100
AcDbLayerTableRecord
  2
FP
 70
    0
 62
    1
  6
CONTINUOUS
370
   25
390
F
  0
LAYER
  5
50
330
2
100
AcDbSymbolTableRecord
100
AcDbLayerTableRecord
  2
GAR
 70
    0
 62
    9
  6
CONTINUOUS
370
   35
390
F
  0
LAYER
  5
51
330
2
100
AcDbSymbolTableRecord
100
AcDbLayerTableRecord
  2
INT
 70
    0
 62
    7
  6
CONTINUOUS
370
   35
390
F
  0
LAYER
  5
52
330
2
100
AcDbSymbolTableRecord
100
AcDbLayerTableRecord
  2
RECT
 70
    0
 62
    4
  6
CONTINUOUS
370
   18
390
F
  0
LAYER
  5
53
330
2
100
AcDbSymbolTableRecord
100
AcDbLayerTableRecord
  2
RM
 70
    0
 62
    2
  6
CONTINUOUS
370
   13
390
F
  0
LAYER
  5
54
330
2
100
AcDbSymbolTableRecord
100
AcDbLayerTableRecord
  2
STR
 70
    0
 62
    8
  6
CONTINUOUS
370
   13
390
F
  0
LAYER
  5
55
330
2
100
AcDbSymbolTableRecord
100
AcDbLayerTableRecord
  2
WIN
 70
    0
 62
    5
  6
CONTINUOUS
370
   25
390
F
  0
ENDTAB
  0
TABLE
  2
STYLE
  5
3
330
0
100
AcDbSymbolTable
 70
    3
  0
STYLE
  5
56
330
2
100
AcDbSymbolTableRecord
100
AcDbTextStyleTableRecord
  2
STANDARD
 70
    0
 40
0
 41
1
 50
0
 71
    0
 42
1
  3
STANDARD
  4

  0
ENDTAB
  0
TABLE
  2
VIEW
  5
6
330
0
100
AcDbSymbolTable
 70
    0
  0
ENDTAB
  0
TABLE
  2
UCS
  5
7
330
0
100
AcDbSymbolTable
 70
    0
  0
ENDTAB
  0
TABLE
  2
APPID
  5
9
330
0
100
AcDbSymbolTable
 70
    1
  0
APPID
  5
12
330
9
100
AcDbSymbolTableRecord
100
AcDbRegAppTableRecord
  2
ACAD
 70
    0
  0
APPID
  5
57
330
9
100
AcDbSymbolTableRecord
100
AcDbRegAppTableRecord
  2
LibreCad
 70
    0
  0
ENDTAB
  0
TABLE
  2
DIMSTYLE
  5
A
330
0
100
AcDbSymbolTable
 70
    1
100
AcDbDimStyleTable
 71
    1
  0
DIMSTYLE
105
58
330
A
100
AcDbSymbolTableRecord
100
AcDbDimStyleTableRecord
  2
Standard
 70
    0
 40
1
 41
2.5
 42
0.625
 43
0.38
 44
1.25
 45
0
 46
0
 47
0
 48
0
 49
1
140
2.5
141
0.09
142
0
143
25.4
144
1
145
0
146
1
147
0.625
148
0
 71
    0
 72
    0
 73
    0
 74
    1
 75
    0
 76
    0
 77
    0
 78
    8
 79
    0
170
    0
171
    2
172
    0
173
    0
174
    0
175
    0
176
    0
177
    0
178
    0
179
    0
271
    2
272
    4
273
    2
274
    2
275
    0
276
    0
277
    2
278
   44
279
    0
280
    0
281
    0
282
    0
283
    1
284
    0
285
    0
286
    0
288
    0
289
    3
340
56
  0
ENDTAB
  0
TABLE
  2
BLOCK_RECORD
  5
1
330
0
100
AcDbSymbolTable
 70
    2
  0
BLOCK_RECORD
  5
1F
330
1
100
AcDbSymbolTableRecord
100
AcDbBlockTableRecord
  2
*Model_Space
 70
    0
280
    1
281
    0
  0
BLOCK_RECORD
  5
1E
330
1
100
AcDbSymbolTableRecord
100
AcDbBlockTableRecord
  2
*Paper_Space
 70
    0
280
    1
281
    0
  0
ENDTAB
  0
ENDSEC
  0
SECTION
  2
BLOCKS
  0
BLOCK
  5
20
330
1F
100
AcDbEntity
  8
0
100
AcDbBlockBegin
  2
*Model_Space
 70
    0
 10
0
 20
0
 30
0
  3
*Model_Space
  1

  0
ENDBLK
  5
21
330
1F
100
AcDbEntity
  8
0
100
AcDbBlockEnd
  0
BLOCK
  5
1C
330
1B
100
AcDbEntity
  8
0
100
AcDbBlockBegin
  2
*Paper_Space
 70
    0
 10
0
 20
0
 30
0
  3
*Paper_Space
  1

  0
ENDBLK
  5
1D
330
1F
100
AcDbEntity
  8
0
100
AcDbBlockEnd
  0
ENDSEC
  0
SECTION
  2
ENTITIES
  0
LWPOLYLINE
  5
59
100
AcDbEntity
  8
GAR
  6
ByLayer
 62
  256
370
   -1
100
AcDbPolyline
 90
    4
 70
    1
 43
0
 10
0
 20
384.25
 10
240
 20
384.25
 10
240
 20
6
 10
0
 20
6
  0
LWPOLYLINE
  5
5A
100
AcDbEntity
  8
GAR
  6
ByLayer
 62
  256
370
   -1
100
AcDbPolyline
 90
    4
 70
    1
 43
0
 10
-6
 20
390.25
 10
240
 20
390.25
 10
240
 20
0
 10
-6
 20
0
  0
TEXT
  5
5B
100
AcDbEntity
  8
GAR
  6
ByLayer
 62
  256
370
   -1
100
AcDbText
 10
120
 20
195.125
 30
0
 40
8
  1
GARAGE (dims TBD)
 50
0
 41
1
 51
0
  7
STANDARD
 71
    0
 72
    1
 11
120
 21
195.125
 31
0
210
0
220
0
230
1
100
AcDbText
 73
    2
  0
LWPOLYLINE
  5
5C
100
AcDbEntity
  8
INT
  6
ByLayer
 62
  256
370
   -1
100
AcDbPolyline
 90
    4
 70
    1
 43
0
 10
495
 20
611.5
 10
625
 20
611.5
 10
625
 20
389.5
 10
495
 20
389.5
  0
TEXT
  5
5D
100
AcDbEntity
  8
RM
  6
ByLayer
 62
  256
370
   -1
100
AcDbText
 10
560
 20
488.5
 30
0
 40
7
  1
SUNROOM
 50
0
 41
1
 51
0
  7
STANDARD
 71
    0
 72
    1
 11
560
 21
488.5
 31
0
210
0
220
0
230
1
100
AcDbText
 73
    2
  0
TEXT
  5
5E
100
AcDbEntity
  8
DM
  6
ByLayer
 62
  256
370
   -1
100
AcDbText
 10
560
 20
502.5
 30
0
 40
4
  1
10'-10" x 18'-6"
 50
0
 41
1
 51
0
  7
STANDARD
 71
    0
 72
    1
 11
560
 21
502.5
 31
0
210
0
220
0
230
1
100
AcDbText
 73
    2
  0
TEXT
  5
5F
100
AcDbEntity
  8
DM
  6
ByLayer
 62
  256
370
   -1
100
AcDbText
 10
560
 20
513.5
 30
0
 40
3.2
  1
(Slate, Arched Win)
 50
0
 41
1
 51
0
  7
STANDARD
 71
    0
 72
    1
 11
560
 21
513.5
 31
0
210
0
220
0
230
1
100
AcDbText
 73
    2
  0
LWPOLYLINE
  5
60
100
AcDbEntity
  8
INT
  6
ByLayer
 62
  256
370
   -1
100
AcDbPolyline
 90
    4
 70
    1
 43
0
 10
630.25
 20
611.5
 10
770.25
 20
611.5
 10
770.25
 20
389.5
 10
630.25
 20
389.5
  0
TEXT
  5
61
100
AcDbEntity
  8
RM
  6
ByLayer
 62
  256
370
   -1
100
AcDbText
 10
700.25
 20
488.5
 30
0
 40
7
  1
DINING ROOM
 50
0
 41
1
 51
0
  7
STANDARD
 71
    0
 72
    1
 11
700.25
 21
488.5
 31
0
210
0
220
0
230
1
100
AcDbText
 73
    2
  0
TEXT
  5
62
100
AcDbEntity
  8
DM
  6
ByLayer
 62
  256
370
   -1
100
AcDbText
 10
700.25
 20
502.5
 30
0
 40
4
  1
11'-8" x 18'-6"
 50
0
 41
1
 51
0
  7
STANDARD
 71
    0
 72
    1
 11
700.25
 21
502.5
 31
0
210
0
220
0
230
1
100
AcDbText
 73
    2
  0
TEXT
  5
63
100
AcDbEntity
  8
DM
  6
ByLayer
 62
  256
370
   -1
100
AcDbText
 10
700.25
 20
513.5
 30
0
 40
3.2
  1
(Hardwood, Crown)
 50
0
 41
1
 51
0
  7
STANDARD
 71
    0
 72
    1
 11
700.25
 21
513.5
 31
0
210
0
220
0
230
1
100
AcDbText
 73
    2
  0
LWPOLYLINE
  5
64
100
AcDbEntity
  8
INT
  6
ByLayer
 62
  256
370
   -1
100
AcDbPolyline
 90
    4
 70
    1
 43
0
 10
495
 20
384.25
 10
625
 20
384.25
 10
625
 20
239
 10
495
 20
239
  0
TEXT
  5
65
100
AcDbEntity
  8
RM
  6
ByLayer
 62
  256
370
   -1
100
AcDbText
 10
560
 20
299.625
 30
0
 40
7
  1
KITCHEN
 50
0
 41
1
 51
0
  7
STANDARD
 71
    0
 72
    1
 11
560
 21
299.625
 31
0
210
0
220
0
230
1
100
AcDbText
 73
    2
  0
TEXT
  5
66
100
AcDbEntity
  8
DM
  6
ByLayer
 62
  256
370
   -1
100
AcDbText
 10
560
 20
324.625
 30
0
 40
3.2
  1
(Tile)
 50
0
 41
1
 51
0
  7
STANDARD
 71
    0
 72
    1
 11
560
 21
324.625
 31
0
210
0
220
0
230
1
100
AcDbText
 73
    2
  0
LINE
  5
67
100
AcDbEntity
  8
INT
  6
ByLayer
 62
  256
370
   -1
100
AcDbLine
 10
423
 20
426
 11
423
 21
239
  0
LINE
  5
68
100
AcDbEntity
  8
INT
  6
ByLayer
 62
  256
370
   -1
100
AcDbLine
 10
423
 20
426
 11
495
 21
426
  0
LINE
  5
69
100
AcDbEntity
  8
INT
  6
ByLayer
 62
  256
370
   -1
100
AcDbLine
 10
423
 20
239
 11
495
 21
239
  0
TEXT
  5
6A
100
AcDbEntity
  8
DM
  6
ByLayer
 62
  256
370
   -1
100
AcDbText
 10
459
 20
332.5
 30
0
 40
3
  1
(open to kitchen)
 50
0
 41
1
 51
0
  7
STANDARD
 71
    0
 72
    1
 11
459
 21
332.5
 31
0
210
0
220
0
230
1
100
AcDbText
 73
    2
  0
LWPOLYLINE
  5
6B
100
AcDbEntity
  8
INT
  6
ByLayer
 62
  256
370
   -1
100
AcDbPolyline
 90
    4
 70
    1
 43
0
 10
279
 20
198
 10
423
 20
198
 10
423
 20
54
 10
279
 20
54
  0
TEXT
  5
6C
100
AcDbEntity
  8
RM
  6
ByLayer
 62
  256
370
   -1
100
AcDbText
 10
351
 20
114
 30
0
 40
7
  1
DEN
 50
0
 41
1
 51
0
  7
STANDARD
 71
    0
 72
    1
 11
351
 21
114
 31
0
210
0
220
0
230
1
100
AcDbText
 73
    2
  0
TEXT
  5
6D
100
AcDbEntity
  8
DM
  6
ByLayer
 62
  256
370
   -1
100
AcDbText
 10
351
 20
128
 30
0
 40
4
  1
12'-0" x 12'-0"
 50
0
 41
1
 51
0
  7
STANDARD
 71
    0
 72
    1
 11
351
 21
128
 31
0
210
0
220
0
230
1
100
AcDbText
 73
    2
  0
TEXT
  5
6E
100
AcDbEntity
  8
DM
  6
ByLayer
 62
  256
370
   -1
100
AcDbText
 10
351
 20
139
 30
0
 40
3.2
  1
(Hardwood)
 50
0
 41
1
 51
0
  7
STANDARD
 71
    0
 72
    1
 11
351
 21
139
 31
0
210
0
220
0
230
1
100
AcDbText
 73
    2
  0
LWPOLYLINE
  5
6F
100
AcDbEntity
  8
INT
  6
ByLayer
 62
  256
370
   -1
100
AcDbPolyline
 90
    4
 70
    1
 43
0
 10
240
 20
426
 10
423
 20
426
 10
423
 20
300
 10
240
 20
300
  0
TEXT
  5
70
100
AcDbEntity
  8
RM
  6
ByLayer
 62
  256
370
   -1
100
AcDbText
 10
331.5
 20
351
 30
0
 40
7
  1
EATING AREA
 50
0
 41
1
 51
0
  7
STANDARD
 71
    0
 72
    1
 11
331.5
 21
351
 31
0
210
0
220
0
230
1
100
AcDbText
 73
    2
  0
TEXT
  5
71
100
AcDbEntity
  8
DM
  6
ByLayer
 62
  256
370
   -1
100
AcDbText
 10
331.5
 20
365
 30
0
 40
4
  1
10'-6" x 15'-3"
 50
0
 41
1
 51
0
  7
STANDARD
 71
    0
 72
    1
 11
331.5
 21
365
 31
0
210
0
220
0
230
1
100
AcDbText
 73
    2
  0
TEXT
  5
72
100
AcDbEntity
  8
DM
  6
ByLayer
 62
  256
370
   -1
100
AcDbText
 10
331.5
 20
376
 30
0
 40
3.2
  1
(Tile)
 50
0
 41
1
 51
0
  7
STANDARD
 71
    0
 72
    1
 11
331.5
 21
376
 31
0
210
0
220
0
230
1
100
AcDbText
 73
    2
  0
LINE
  5
73
100
AcDbEntity
  8
INT
  6
ByLayer
 62
  256
370
   -1
100
AcDbLine
 10
630.25
 20
384.25
 11
770.25
 21
384.25
  0
LINE
  5
74
100
AcDbEntity
  8
INT
  6
ByLayer
 62
  256
370
   -1
100
AcDbLine
 10
770.25
 20
384.25
 11
770.25
 21
246.25
  0
TEXT
  5
75
100
AcDbEntity
  8
RM
  6
ByLayer
 62
  256
370
   -1
100
AcDbText
 10
700.25
 20
307.25
 30
0
 40
6
  1
PIANO ROOM
 50
0
 41
1
 51
0
  7
STANDARD
 71
    0
 72
    1
 11
700.25
 21
307.25
 31
0
210
0
220
0
230
1
100
AcDbText
 73
    2
  0
TEXT
  5
76
100
AcDbEntity
  8
DM
  6
ByLayer
 62
  256
370
   -1
100
AcDbText
 10
700.25
 20
320.25
 30
0
 40
3.8
  1
11'-8" x 11'-6"
 50
0
 41
1
 51
0
  7
STANDARD
 71
    0
 72
    1
 11
700.25
 21
320.25
 31
0
210
0
220
0
230
1
100
AcDbText
 73
    2
  0
LINE
  5
77
100
AcDbEntity
  8
INT
  6
ByLayer
 62
  256
370
   -1
100
AcDbLine
 10
527.25
 20
6
 11
770.25
 21
6
  0
LINE
  5
78
100
AcDbEntity
  8
INT
  6
ByLayer
 62
  256
370
   -1
100
AcDbLine
 10
770.25
 20
241
 11
770.25
 21
6
  0
LINE
  5
79
100
AcDbEntity
  8
INT
  6
ByLayer
 62
  256
370
   -1
100
AcDbLine
 10
770.25
 20
241
 11
770.25
 21
241
  0
TEXT
  5
7A
100
AcDbEntity
  8
RM
  6
ByLayer
 62
  256
370
   -1
100
AcDbText
 10
648.75
 20
109.5
 30
0
 40
8
  1
LIVING ROOM
 50
0
 41
1
 51
0
  7
STANDARD
 71
    0
 72
    1
 11
648.75
 21
109.5
 31
0
210
0
220
0
230
1
100
AcDbText
 73
    2
  0
TEXT
  5
7B
100
AcDbEntity
  8
DM
  6
ByLayer
 62
  256
370
   -1
100
AcDbText
 10
648.75
 20
123.5
 30
0
 40
4
  1
~20'-3" x 19'-7"
 50
0
 41
1
 51
0
  7
STANDARD
 71
    0
 72
    1
 11
648.75
 21
123.5
 31
0
210
0
220
0
230
1
100
AcDbText
 73
    2
  0
TEXT
  5
7C
100
AcDbEntity
  8
DM
  6
ByLayer
 62
  256
370
   -1
100
AcDbText
 10
648.75
 20
135.5
 30
0
 40
3.2
  1
(Carpet, Brick FP)
 50
0
 41
1
 51
0
  7
STANDARD
 71
    0
 72
    1
 11
648.75
 21
135.5
 31
0
210
0
220
0
230
1
100
AcDbText
 73
    2
  0
LWPOLYLINE
  5
7D
100
AcDbEntity
  8
INT
  6
ByLayer
 62
  256
370
   -1
100
AcDbPolyline
 90
    4
 70
    1
 43
0
 10
362
 20
300
 10
423
 20
300
 10
423
 20
239
 10
362
 20
239
  0
TEXT
  5
7E
100
AcDbEntity
  8
RM
  6
ByLayer
 62
  256
370
   -1
100
AcDbText
 10
392.5
 20
266.5
 30
0
 40
3
  1
POWDER
 50
0
 41
1
 51
0
  7
STANDARD
 71
    0
 72
    1
 11
392.5
 21
266.5
 31
0
210
0
220
0
230
1
100
AcDbText
 73
    2
  0
TEXT
  5
7F
100
AcDbEntity
  8
DM
  6
ByLayer
 62
  256
370
   -1
100
AcDbText
 10
392.5
 20
275.5
 30
0
 40
2.4
  1
61x61
 50
0
 41
1
 51
0
  7
STANDARD
 71
    0
 72
    1
 11
392.5
 21
275.5
 31
0
210
0
220
0
230
1
100
AcDbText
 73
    2
  0
LWPOLYLINE
  5
80
100
AcDbEntity
  8
INT
  6
ByLayer
 62
  256
370
   -1
100
AcDbPolyline
 90
    4
 70
    1
 43
0
 10
290
 20
300
 10
362
 20
300
 10
362
 20
276
 10
290
 20
276
  0
TEXT
  5
81
100
AcDbEntity
  8
RM
  6
ByLayer
 62
  256
370
   -1
100
AcDbText
 10
326
 20
285
 30
0
 40
2.6
  1
CLOSET
 50
0
 41
1
 51
0
  7
STANDARD
 71
    0
 72
    1
 11
326
 21
285
 31
0
210
0
220
0
230
1
100
AcDbText
 73
    2
  0
TEXT
  5
82
100
AcDbEntity
  8
DM
  6
ByLayer
 62
  256
370
   -1
100
AcDbText
 10
326
 20
293
 30
0
 40
2.2
  1
72x24
 50
0
 41
1
 51
0
  7
STANDARD
 71
    0
 72
    1
 11
326
 21
293
 31
0
210
0
220
0
230
1
100
AcDbText
 73
    2
  0
LWPOLYLINE
  5
83
100
AcDbEntity
  8
INT
  6
ByLayer
 62
  256
370
   -1
100
AcDbPolyline
 90
    4
 70
    1
 43
0
 10
279
 20
227
 10
325
 20
227
 10
325
 20
198
 10
279
 20
198
  0
TEXT
  5
84
100
AcDbEntity
  8
RM
  6
ByLayer
 62
  256
370
   -1
100
AcDbText
 10
302
 20
209.5
 30
0
 40
2.6
  1
PANTRY
 50
0
 41
1
 51
0
  7
STANDARD
 71
    0
 72
    1
 11
302
 21
209.5
 31
0
210
0
220
0
230
1
100
AcDbText
 73
    2
  0
TEXT
  5
85
100
AcDbEntity
  8
DM
  6
ByLayer
 62
  256
370
   -1
100
AcDbText
 10
302
 20
217.5
 30
0
 40
2.2
  1
46x29
 50
0
 41
1
 51
0
  7
STANDARD
 71
    0
 72
    1
 11
302
 21
217.5
 31
0
210
0
220
0
230
1
100
AcDbText
 73
    2
  0
TEXT
  5
86
100
AcDbEntity
  8
RM
  6
ByLayer
 62
  256
370
   -1
100
AcDbText
 10
459
 20
78
 30
0
 40
4
  1
ENTRY
 50
0
 41
1
 51
0
  7
STANDARD
 71
    0
 72
    1
 11
459
 21
78
 31
0
210
0
220
0
230
1
100
AcDbText
 73
    2
  0
LINE
  5
87
100
AcDbEntity
  8
DOOR
  6
ByLayer
 62
  256
370
   -1
100
AcDbLine
 10
423
 20
102
 11
495
 21
102
  0
LWPOLYLINE
  5
88
100
AcDbEntity
  8
STR
  6
ByLayer
 62
  256
370
   -1
100
AcDbPolyline
 90
    4
 70
    1
 43
0
 10
240
 20
144
 10
279
 20
144
 10
279
 20
54
 10
240
 20
54
  0
TEXT
  5
89
100
AcDbEntity
  8
STR
  6
ByLayer
 62
  256
370
   -1
100
AcDbText
 10
259.5
 20
99
 30
0
 40
2.6
  1
LOFT STAIRS
 50
0
 41
1
 51
0
  7
STANDARD
 71
    0
 72
    1
 11
259.5
 21
99
 31
0
210
0
220
0
230
1
100
AcDbText
 73
    2
  0
LWPOLYLINE
  5
8A
100
AcDbEntity
  8
STR
  6
ByLayer
 62
  256
370
   -1
100
AcDbPolyline
 90
    4
 70
    1
 43
0
 10
495
 20
102
 10
573
 20
102
 10
573
 20
6
 10
495
 20
6
  0
LINE
  5
8B
100
AcDbEntity
  8
STR
  6
ByLayer
 62
  256
370
   -1
100
AcDbLine
 10
534
 20
102
 11
534
 21
6
  0
LWPOLYLINE
  5
8C
100
AcDbEntity
  8
STR
  6
ByLayer
 62
  256
370
   -1
100
AcDbPolyline
 90
    4
 70
    1
 43
0
 10
501
 20
139
 10
573
 20
139
 10
573
 20
101
 10
501
 20
101
  0
TEXT
  5
8D
100
AcDbEntity
  8
STR
  6
ByLayer
 62
  256
370
   -1
100
AcDbText
 10
534
 20
54
 30
0
 40
3
  1
BEDROOM STAIRS
 50
0
 41
1
 51
0
  7
STANDARD
 71
    0
 72
    1
 11
534
 21
54
 31
0
210
0
220
0
230
1
100
AcDbText
 73
    2
  0
TEXT
  5
8E
100
AcDbEntity
  8
STR
  6
ByLayer
 62
  256
370
   -1
100
AcDbText
 10
537
 20
120
 30
0
 40
2.2
  1
landing
 50
0
 41
1
 51
0
  7
STANDARD
 71
    0
 72
    1
 11
537
 21
120
 31
0
210
0
220
0
230
1
100
AcDbText
 73
    2
  0
LWPOLYLINE
  5
8F
100
AcDbEntity
  8
FP
  6
ByLayer
 62
  256
370
   -1
100
AcDbPolyline
 90
    4
 70
    1
 43
0
 10
612.75
 20
28
 10
684.75
 20
28
 10
684.75
 20
6
 10
612.75
 20
6
  0
TEXT
  5
90
100
AcDbEntity
  8
FP
  6
ByLayer
 62
  256
370
   -1
100
AcDbText
 10
648.75
 20
17
 30
0
 40
3
  1
BRICK FP
 50
0
 41
1
 51
0
  7
STANDARD
 71
    0
 72
    1
 11
648.75
 21
17
 31
0
210
0
220
0
230
1
100
AcDbText
 73
    2
  0
LINE
  5
91
100
AcDbEntity
  8
RM
  6
ByLayer
 62
  256
370
   -1
100
AcDbLine
 10
816.25
 20
308.75
 11
846.25
 21
308.75
  0
LINE
  5
92
100
AcDbEntity
  8
RM
  6
ByLayer
 62
  256
370
   -1
100
AcDbLine
 10
846.25
 20
308.75
 11
838.25
 21
303.75
  0
LINE
  5
93
100
AcDbEntity
  8
RM
  6
ByLayer
 62
  256
370
   -1
100
AcDbLine
 10
846.25
 20
308.75
 11
838.25
 21
313.75
  0
TEXT
  5
94
100
AcDbEntity
  8
RM
  6
ByLayer
 62
  256
370
   -1
100
AcDbText
 10
856.25
 20
308.75
 30
0
 40
8
  1
N
 50
0
 41
1
 51
0
  7
STANDARD
 71
    0
 72
    1
 11
856.25
 21
308.75
 31
0
210
0
220
0
230
1
100
AcDbText
 73
    2
  0
TEXT
  5
95
100
AcDbEntity
  8
DM
  6
ByLayer
 62
  256
370
   -1
100
AcDbText
 10
385.125
 20
-20
 30
0
 40
5
  1
EAST (Front Door / Street)
 50
0
 41
1
 51
0
  7
STANDARD
 71
    0
 72
    1
 11
385.125
 21
-20
 31
0
210
0
220
0
230
1
100
AcDbText
 73
    2
  0
TEXT
  5
96
100
AcDbEntity
  8
DM
  6
ByLayer
 62
  256
370
   -1
100
AcDbText
 10
385.125
 20
637.5
 30
0
 40
5
  1
WEST (Backyard)
 50
0
 41
1
 51
0
  7
STANDARD
 71
    0
 72
    1
 11
385.125
 21
637.5
 31
0
210
0
220
0
230
1
100
AcDbText
 73
    2
  0
TEXT
  5
97
100
AcDbEntity
  8
DM
  6
ByLayer
 62
  256
370
   -1
100
AcDbText
 10
-30
 20
308.75
 30
0
 40
4
  1
SOUTH (Garage)
 50
0
 41
1
 51
0
  7
STANDARD
 71
    0
 72
    1
 11
-30
 21
308.75
 31
0
210
0
220
0
230
1
100
AcDbText
 73
    2
  0
TEXT
  5
98
100
AcDbEntity
  8
DM
  6
ByLayer
 62
  256
370
   -1
100
AcDbText
 10
801.25
 20
268.75
 30
0
 40
4
  1
NORTH (Living Rm)
 50
0
 41
1
 51
0
  7
STANDARD
 71
    0
 72
    1
 11
801.25
 21
268.75
 31
0
210
0
220
0
230
1
100
AcDbText
 73
    2
  0
TEXT
  5
99
100
AcDbEntity
  8
RM
  6
ByLayer
 62
  256
370
   -1
100
AcDbText
 10
385.125
 20
667.5
 30
0
 40
10
  1
30 PARK — GROUND FLOOR (v8)
 50
0
 41
1
 51
0
  7
STANDARD
 71
    0
 72
    1
 11
385.125
 21
667.5
 31
0
210
0
220
0
230
1
100
AcDbText
 73
    2
  0
TEXT
  5
9A
100
AcDbEntity
  8
DM
  6
ByLayer
 62
  256
370
   -1
100
AcDbText
 10
385.125
 20
682.5
 30
0
 40
4
  1
3-rectangle structure | Front faces EAST | Ceiling 8'-0"
 50
0
 41
1
 51
0
  7
STANDARD
 71
    0
 72
    1
 11
385.125
 21
682.5
 31
0
210
0
220
0
230
1
100
AcDbText
 73
    2
  0
ENDSEC
  0
SECTION
  2
OBJECTS
  0
DICTIONARY
  5
C
330
0
100
AcDbDictionary
281
    1
  3
ACAD_GROUP
350
D
  0
DICTIONARY
  5
D
330
C
100
AcDbDictionary
281
    1
  0
PLOTSETTINGS
  5
9B
100
AcDbPlotSettings
  6
1x1
 40
0
 41
0
 42
0
 43
0
  0
ENDSEC
  0
EOF
