999
FreeCAD v1.1 44227 +568 (Git)
  0
SECTION
  2
HEADER
  9
$ACADVER
  1
AC1014
  9
$ACADMAINTVER
 70
     9
  9
$DWGCODEPAGE
  3
ANSI_1252
  9
$TEXTSTYLE
  7
STANDARD
  9
$DIMSTYLE
  2
STANDARD
  9
$DIMTXSTY
  7
STANDARD
  9
$CMLSTYLE
  2
STANDARD
  9
$LUNITS
 70
2
  9
$INSUNITS
 70
4
  9
$PEXTMAX
 10
50
 20
50
 30
50
  9
$PEXTMIN
 10
0
 20
0
 30
0
  9
$HANDSEED
  5
FFFF
  0
ENDSEC
  0
SECTION
  2
CLASSES
  0
CLASS
  1
ACDBDICTIONARYWDFLT
  2
AcDbDictionaryWithDefault
  3
ObjectDBX Classes
 90
        0
280
     0
281
     0
  0
CLASS
  1
XRECORD
  2
AcDbXrecord
  3
ObjectDBX Classes
 90
        0
280
     0
281
     0
  0
CLASS
  1
LWPOLYLINE
  2
AcDbPolyline
  3
ObjectDBX Classes
 90
        0
280
     0
281
     1
  0
ENDSEC
  0
SECTION
  2
TABLES
  0
TABLE
  2
VPORT
  5
20
330
0
100
AcDbSymbolTable
 70
     1
  0
VPORT
  5
21
330
20
100
AcDbSymbolTableRecord
100
AcDbViewportTableRecord
  2
*ACTIVE
 70
     0
  0
ENDTAB
  0
TABLE
  2
LTYPE
  5
22
330
0
100
AcDbSymbolTable
 70
     1
  0
LTYPE
  5
23
330
21
100
AcDbSymbolTableRecord
100
AcDbLinetypeTableRecord
  2
BYBLOCK
 70
     0
  3

 72
    65
 73
     0
 40
0.0
  0
LTYPE
  5
24
330
21
100
AcDbSymbolTableRecord
100
AcDbLinetypeTableRecord
  2
BYLAYER
 70
     0
  3

 72
    65
 73
     0
 40
0.0
  0
LTYPE
  5
25
330
21
100
AcDbSymbolTableRecord
100
AcDbLinetypeTableRecord
  2
CONTINUOUS
 70
     0
  3
Solid line
 72
    65
 73
     0
 40
0.0
  0
ENDTAB
  0
TABLE
  2
LAYER
  5
AC8
330
0
100
AcDbSymbolTable
 70
89
  0
LAYER
  5
AC9
330
AC8
100
AcDbSymbolTableRecord
100
AcDbLayerTableRecord
  2
0
 70
   0
 62
   7
  6
CONTINUOUS
  0
LAYER
  5
ACA
330
AC8
100
AcDbSymbolTableRecord
100
AcDbLayerTableRecord
  2
none
 70
    0
 62
    7
  6
CONTINUOUS
  0
LAYER
  5
ACB
330
AC8
100
AcDbSymbolTableRecord
100
AcDbLayerTableRecord
  2
Wire
 70
    0
 62
    7
  6
CONTINUOUS
  0
LAYER
  5
ACC
330
AC8
100
AcDbSymbolTableRecord
100
AcDbLayerTableRecord
  2
Wire003
 70
    0
 62
    7
  6
CONTINUOUS
  0
LAYER
  5
ACD
330
AC8
100
AcDbSymbolTableRecord
100
AcDbLayerTableRecord
  2
Wire004
 70
    0
 62
    7
  6
CONTINUOUS
  0
LAYER
  5
ACE
330
AC8
100
AcDbSymbolTableRecord
100
AcDbLayerTableRecord
  2
Wire005
 70
    0
 62
    7
  6
CONTINUOUS
  0
LAYER
  5
ACF
330
AC8
100
AcDbSymbolTableRecord
100
AcDbLayerTableRecord
  2
Wire006
 70
    0
 62
    7
  6
CONTINUOUS
  0
LAYER
  5
AD0
330
AC8
100
AcDbSymbolTableRecord
100
AcDbLayerTableRecord
  2
Wire008
 70
    0
 62
    7
  6
CONTINUOUS
  0
LAYER
  5
AD1
330
AC8
100
AcDbSymbolTableRecord
100
AcDbLayerTableRecord
  2
Wire009
 70
    0
 62
    7
  6
CONTINUOUS
  0
LAYER
  5
AD2
330
AC8
100
AcDbSymbolTableRecord
100
AcDbLayerTableRecord
  2
Wire010
 70
    0
 62
    7
  6
CONTINUOUS
  0
LAYER
  5
AD3
330
AC8
100
AcDbSymbolTableRecord
100
AcDbLayerTableRecord
  2
Wire012
 70
    0
 62
    7
  6
CONTINUOUS
  0
LAYER
  5
AD4
330
AC8
100
AcDbSymbolTableRecord
100
AcDbLayerTableRecord
  2
Wire017
 70
    0
 62
    7
  6
CONTINUOUS
  0
LAYER
  5
AD5
330
AC8
100
AcDbSymbolTableRecord
100
AcDbLayerTableRecord
  2
Wire018
 70
    0
 62
    7
  6
CONTINUOUS
  0
LAYER
  5
AD6
330
AC8
100
AcDbSymbolTableRecord
100
AcDbLayerTableRecord
  2
Wire019
 70
    0
 62
    7
  6
CONTINUOUS
  0
LAYER
  5
AD7
330
AC8
100
AcDbSymbolTableRecord
100
AcDbLayerTableRecord
  2
Wire020
 70
    0
 62
    7
  6
CONTINUOUS
  0
LAYER
  5
AD8
330
AC8
100
AcDbSymbolTableRecord
100
AcDbLayerTableRecord
  2
Wire023
 70
    0
 62
    7
  6
CONTINUOUS
  0
LAYER
  5
AD9
330
AC8
100
AcDbSymbolTableRecord
100
AcDbLayerTableRecord
  2
Wire024
 70
    0
 62
    7
  6
CONTINUOUS
  0
LAYER
  5
ADA
330
AC8
100
AcDbSymbolTableRecord
100
AcDbLayerTableRecord
  2
Wire025
 70
    0
 62
    7
  6
CONTINUOUS
  0
LAYER
  5
ADB
330
AC8
100
AcDbSymbolTableRecord
100
AcDbLayerTableRecord
  2
Wire026
 70
    0
 62
    7
  6
CONTINUOUS
  0
LAYER
  5
ADC
330
AC8
100
AcDbSymbolTableRecord
100
AcDbLayerTableRecord
  2
Line001
 70
    0
 62
    7
  6
CONTINUOUS
  0
LAYER
  5
ADD
330
AC8
100
AcDbSymbolTableRecord
100
AcDbLayerTableRecord
  2
Line002
 70
    0
 62
    7
  6
CONTINUOUS
  0
LAYER
  5
ADE
330
AC8
100
AcDbSymbolTableRecord
100
AcDbLayerTableRecord
  2
Line003
 70
    0
 62
    7
  6
CONTINUOUS
  0
LAYER
  5
ADF
330
AC8
100
AcDbSymbolTableRecord
100
AcDbLayerTableRecord
  2
Line004
 70
    0
 62
    7
  6
CONTINUOUS
  0
LAYER
  5
AE0
330
AC8
100
AcDbSymbolTableRecord
100
AcDbLayerTableRecord
  2
Wire027
 70
    0
 62
    7
  6
CONTINUOUS
  0
LAYER
  5
AE1
330
AC8
100
AcDbSymbolTableRecord
100
AcDbLayerTableRecord
  2
Line019
 70
    0
 62
    7
  6
CONTINUOUS
  0
LAYER
  5
AE2
330
AC8
100
AcDbSymbolTableRecord
100
AcDbLayerTableRecord
  2
Line020
 70
    0
 62
    7
  6
CONTINUOUS
  0
LAYER
  5
AE3
330
AC8
100
AcDbSymbolTableRecord
100
AcDbLayerTableRecord
  2
Line021
 70
    0
 62
    7
  6
CONTINUOUS
  0
LAYER
  5
AE4
330
AC8
100
AcDbSymbolTableRecord
100
AcDbLayerTableRecord
  2
Wire028
 70
    0
 62
    7
  6
CONTINUOUS
  0
LAYER
  5
AE5
330
AC8
100
AcDbSymbolTableRecord
100
AcDbLayerTableRecord
  2
Line022
 70
    0
 62
    7
  6
CONTINUOUS
  0
LAYER
  5
AE6
330
AC8
100
AcDbSymbolTableRecord
100
AcDbLayerTableRecord
  2
Line023
 70
    0
 62
    7
  6
CONTINUOUS
  0
LAYER
  5
AE7
330
AC8
100
AcDbSymbolTableRecord
100
AcDbLayerTableRecord
  2
Line024
 70
    0
 62
    7
  6
CONTINUOUS
  0
LAYER
  5
AE8
330
AC8
100
AcDbSymbolTableRecord
100
AcDbLayerTableRecord
  2
Line025
 70
    0
 62
    7
  6
CONTINUOUS
  0
LAYER
  5
AE9
330
AC8
100
AcDbSymbolTableRecord
100
AcDbLayerTableRecord
  2
Line026
 70
    0
 62
    7
  6
CONTINUOUS
  0
LAYER
  5
AEA
330
AC8
100
AcDbSymbolTableRecord
100
AcDbLayerTableRecord
  2
Line027
 70
    0
 62
    7
  6
CONTINUOUS
  0
LAYER
  5
AEB
330
AC8
100
AcDbSymbolTableRecord
100
AcDbLayerTableRecord
  2
Line028
 70
    0
 62
    7
  6
CONTINUOUS
  0
LAYER
  5
AEC
330
AC8
100
AcDbSymbolTableRecord
100
AcDbLayerTableRecord
  2
Line029
 70
    0
 62
    7
  6
CONTINUOUS
  0
LAYER
  5
AED
330
AC8
100
AcDbSymbolTableRecord
100
AcDbLayerTableRecord
  2
Line030
 70
    0
 62
    7
  6
CONTINUOUS
  0
LAYER
  5
AEE
330
AC8
100
AcDbSymbolTableRecord
100
AcDbLayerTableRecord
  2
Line031
 70
    0
 62
    7
  6
CONTINUOUS
  0
LAYER
  5
AEF
330
AC8
100
AcDbSymbolTableRecord
100
AcDbLayerTableRecord
  2
Line032
 70
    0
 62
    7
  6
CONTINUOUS
  0
LAYER
  5
AF0
330
AC8
100
AcDbSymbolTableRecord
100
AcDbLayerTableRecord
  2
Line033
 70
    0
 62
    7
  6
CONTINUOUS
  0
LAYER
  5
AF1
330
AC8
100
AcDbSymbolTableRecord
100
AcDbLayerTableRecord
  2
Line034
 70
    0
 62
    7
  6
CONTINUOUS
  0
LAYER
  5
AF2
330
AC8
100
AcDbSymbolTableRecord
100
AcDbLayerTableRecord
  2
Line035
 70
    0
 62
    7
  6
CONTINUOUS
  0
LAYER
  5
AF3
330
AC8
100
AcDbSymbolTableRecord
100
AcDbLayerTableRecord
  2
Line036
 70
    0
 62
    7
  6
CONTINUOUS
  0
LAYER
  5
AF4
330
AC8
100
AcDbSymbolTableRecord
100
AcDbLayerTableRecord
  2
Line037
 70
    0
 62
    7
  6
CONTINUOUS
  0
LAYER
  5
AF5
330
AC8
100
AcDbSymbolTableRecord
100
AcDbLayerTableRecord
  2
Line038
 70
    0
 62
    7
  6
CONTINUOUS
  0
LAYER
  5
AF6
330
AC8
100
AcDbSymbolTableRecord
100
AcDbLayerTableRecord
  2
Line039
 70
    0
 62
    7
  6
CONTINUOUS
  0
LAYER
  5
AF7
330
AC8
100
AcDbSymbolTableRecord
100
AcDbLayerTableRecord
  2
Line040
 70
    0
 62
    7
  6
CONTINUOUS
  0
LAYER
  5
AF8
330
AC8
100
AcDbSymbolTableRecord
100
AcDbLayerTableRecord
  2
Line041
 70
    0
 62
    7
  6
CONTINUOUS
  0
LAYER
  5
AF9
330
AC8
100
AcDbSymbolTableRecord
100
AcDbLayerTableRecord
  2
Line042
 70
    0
 62
    7
  6
CONTINUOUS
  0
LAYER
  5
AFA
330
AC8
100
AcDbSymbolTableRecord
100
AcDbLayerTableRecord
  2
Line043
 70
    0
 62
    7
  6
CONTINUOUS
  0
LAYER
  5
AFB
330
AC8
100
AcDbSymbolTableRecord
100
AcDbLayerTableRecord
  2
Line044
 70
    0
 62
    7
  6
CONTINUOUS
  0
LAYER
  5
AFC
330
AC8
100
AcDbSymbolTableRecord
100
AcDbLayerTableRecord
  2
Line045
 70
    0
 62
    7
  6
CONTINUOUS
  0
LAYER
  5
AFD
330
AC8
100
AcDbSymbolTableRecord
100
AcDbLayerTableRecord
  2
Line046
 70
    0
 62
    7
  6
CONTINUOUS
  0
LAYER
  5
AFE
330
AC8
100
AcDbSymbolTableRecord
100
AcDbLayerTableRecord
  2
Line047
 70
    0
 62
    7
  6
CONTINUOUS
  0
LAYER
  5
AFF
330
AC8
100
AcDbSymbolTableRecord
100
AcDbLayerTableRecord
  2
Line048
 70
    0
 62
    7
  6
CONTINUOUS
  0
LAYER
  5
B00
330
AC8
100
AcDbSymbolTableRecord
100
AcDbLayerTableRecord
  2
Line049
 70
    0
 62
    7
  6
CONTINUOUS
  0
LAYER
  5
B01
330
AC8
100
AcDbSymbolTableRecord
100
AcDbLayerTableRecord
  2
Line050
 70
    0
 62
    7
  6
CONTINUOUS
  0
LAYER
  5
B02
330
AC8
100
AcDbSymbolTableRecord
100
AcDbLayerTableRecord
  2
Wire029
 70
    0
 62
    7
  6
CONTINUOUS
  0
LAYER
  5
B03
330
AC8
100
AcDbSymbolTableRecord
100
AcDbLayerTableRecord
  2
Wire033
 70
    0
 62
    7
  6
CONTINUOUS
  0
LAYER
  5
B04
330
AC8
100
AcDbSymbolTableRecord
100
AcDbLayerTableRecord
  2
Wire035
 70
    0
 62
    7
  6
CONTINUOUS
  0
LAYER
  5
B05
330
AC8
100
AcDbSymbolTableRecord
100
AcDbLayerTableRecord
  2
Wire037
 70
    0
 62
    7
  6
CONTINUOUS
  0
LAYER
  5
B06
330
AC8
100
AcDbSymbolTableRecord
100
AcDbLayerTableRecord
  2
Wire039
 70
    0
 62
    7
  6
CONTINUOUS
  0
LAYER
  5
B07
330
AC8
100
AcDbSymbolTableRecord
100
AcDbLayerTableRecord
  2
Wire041
 70
    0
 62
    7
  6
CONTINUOUS
  0
LAYER
  5
B08
330
AC8
100
AcDbSymbolTableRecord
100
AcDbLayerTableRecord
  2
Line
 70
    0
 62
    7
  6
CONTINUOUS
  0
LAYER
  5
B09
330
AC8
100
AcDbSymbolTableRecord
100
AcDbLayerTableRecord
  2
Line051
 70
    0
 62
    7
  6
CONTINUOUS
  0
LAYER
  5
B0A
330
AC8
100
AcDbSymbolTableRecord
100
AcDbLayerTableRecord
  2
Line052
 70
    0
 62
    7
  6
CONTINUOUS
  0
LAYER
  5
B0B
330
AC8
100
AcDbSymbolTableRecord
100
AcDbLayerTableRecord
  2
Line053
 70
    0
 62
    7
  6
CONTINUOUS
  0
LAYER
  5
B0C
330
AC8
100
AcDbSymbolTableRecord
100
AcDbLayerTableRecord
  2
Line054
 70
    0
 62
    7
  6
CONTINUOUS
  0
LAYER
  5
B0D
330
AC8
100
AcDbSymbolTableRecord
100
AcDbLayerTableRecord
  2
Line055
 70
    0
 62
    7
  6
CONTINUOUS
  0
LAYER
  5
B0E
330
AC8
100
AcDbSymbolTableRecord
100
AcDbLayerTableRecord
  2
Line056
 70
    0
 62
    7
  6
CONTINUOUS
  0
LAYER
  5
B0F
330
AC8
100
AcDbSymbolTableRecord
100
AcDbLayerTableRecord
  2
Line057
 70
    0
 62
    7
  6
CONTINUOUS
  0
LAYER
  5
B10
330
AC8
100
AcDbSymbolTableRecord
100
AcDbLayerTableRecord
  2
Line058
 70
    0
 62
    7
  6
CONTINUOUS
  0
LAYER
  5
B11
330
AC8
100
AcDbSymbolTableRecord
100
AcDbLayerTableRecord
  2
Line059
 70
    0
 62
    7
  6
CONTINUOUS
  0
LAYER
  5
B12
330
AC8
100
AcDbSymbolTableRecord
100
AcDbLayerTableRecord
  2
Line060
 70
    0
 62
    7
  6
CONTINUOUS
  0
LAYER
  5
B13
330
AC8
100
AcDbSymbolTableRecord
100
AcDbLayerTableRecord
  2
Line061
 70
    0
 62
    7
  6
CONTINUOUS
  0
LAYER
  5
B14
330
AC8
100
AcDbSymbolTableRecord
100
AcDbLayerTableRecord
  2
Line062
 70
    0
 62
    7
  6
CONTINUOUS
  0
LAYER
  5
B15
330
AC8
100
AcDbSymbolTableRecord
100
AcDbLayerTableRecord
  2
Line063
 70
    0
 62
    7
  6
CONTINUOUS
  0
LAYER
  5
B16
330
AC8
100
AcDbSymbolTableRecord
100
AcDbLayerTableRecord
  2
Line064
 70
    0
 62
    7
  6
CONTINUOUS
  0
LAYER
  5
B17
330
AC8
100
AcDbSymbolTableRecord
100
AcDbLayerTableRecord
  2
Line065
 70
    0
 62
    7
  6
CONTINUOUS
  0
LAYER
  5
B18
330
AC8
100
AcDbSymbolTableRecord
100
AcDbLayerTableRecord
  2
Wire044
 70
    0
 62
    7
  6
CONTINUOUS
  0
LAYER
  5
B19
330
AC8
100
AcDbSymbolTableRecord
100
AcDbLayerTableRecord
  2
Wire045
 70
    0
 62
    7
  6
CONTINUOUS
  0
LAYER
  5
B1A
330
AC8
100
AcDbSymbolTableRecord
100
AcDbLayerTableRecord
  2
Wire046
 70
    0
 62
    7
  6
CONTINUOUS
  0
LAYER
  5
B1B
330
AC8
100
AcDbSymbolTableRecord
100
AcDbLayerTableRecord
  2
Wire047
 70
    0
 62
    7
  6
CONTINUOUS
  0
LAYER
  5
B1C
330
AC8
100
AcDbSymbolTableRecord
100
AcDbLayerTableRecord
  2
Wire048
 70
    0
 62
    7
  6
CONTINUOUS
  0
LAYER
  5
B1D
330
AC8
100
AcDbSymbolTableRecord
100
AcDbLayerTableRecord
  2
Wire049
 70
    0
 62
    7
  6
CONTINUOUS
  0
LAYER
  5
B1E
330
AC8
100
AcDbSymbolTableRecord
100
AcDbLayerTableRecord
  2
Wire051
 70
    0
 62
    7
  6
CONTINUOUS
  0
LAYER
  5
B1F
330
AC8
100
AcDbSymbolTableRecord
100
AcDbLayerTableRecord
  2
Wire052
 70
    0
 62
    7
  6
CONTINUOUS
  0
LAYER
  5
B20
330
AC8
100
AcDbSymbolTableRecord
100
AcDbLayerTableRecord
  2
Wire053
 70
    0
 62
    7
  6
CONTINUOUS
  0
LAYER
  5
B21
330
AC8
100
AcDbSymbolTableRecord
100
AcDbLayerTableRecord
  2
Wire054
 70
    0
 62
    7
  6
CONTINUOUS
  0
ENDTAB
  0
TABLE
  2
STYLE
  5
70
330
0
100
AcDbSymbolTable
 70
     2
  0
STYLE
  5
71
330
70
100
AcDbSymbolTableRecord
100
AcDbTextStyleTableRecord
  2
STANDARD
 70
     0
 40
0.0
 41
1.0
 50
0.0
 71
     0
 42
2.5
  3
arial.ttf
  4

  0
STYLE
  5
72
330
70
100
AcDbSymbolTableRecord
100
AcDbTextStyleTableRecord
  2
ANNOTATIVE
 70
     0
 40
0.0
 41
1.0
 50
0.0
 71
     0
 42
2.5
  3
arial.ttf
  4

  0
ENDTAB
  0
TABLE
  2
VIEW
  5
73
330
0
100
AcDbSymbolTable
 70
     0
  0
ENDTAB
  0
TABLE
  2
UCS
  5
74
330
0
100
AcDbSymbolTable
 70
     0
  0
ENDTAB
  0
TABLE
  2
APPID
  5
75
330
0
100
AcDbSymbolTable
 70
     2
  0
APPID
  5
76
330
75
100
AcDbSymbolTableRecord
100
AcDbRegAppTableRecord
  2
ACAD
 70
     0
  0
APPID
  5
77
330
75
100
AcDbSymbolTableRecord
100
AcDbRegAppTableRecord
  2
ACADANNOTATIVE
 70
     0
  0
ENDTAB
  0
TABLE
  2
DIMSTYLE
  5
78
330
0
100
AcDbSymbolTable
 70
     2
  0
DIMSTYLE
105
79
330
78
100
AcDbSymbolTableRecord
100
AcDbDimStyleTableRecord
  2
STANDARD
 70
     0
  3

  4

  5

  6

  7

 40
0.0
 41
2.5
 42
0.625
 43
3.75
 44
1.25
 45
0.0
 46
0.0
 47
0.0
 48
0.0
140
2.5
141
2.5
142
0.0
143
0.03937007874016
144
1.0
145
0.0
146
1.0
147
0.625
 71
     0
 72
     0
 73
     0
 74
     0
 75
     0
 76
     0
 77
     1
 78
     8
170
     0
171
     3
172
     1
173
     0
174
     0
175
     0
176
     0
177
     0
178
     0
270
     2
271
     2
272
     2
273
     2
274
     3
340
71
275
     0
280
     0
281
     0
282
     0
283
     0
284
     8
285
     0
286
     0
287
     3
288
     0
  0
ENDTAB
  0
TABLE
  2
BLOCK_RECORD
  5
A01
330
0
100
AcDbSymbolTable
  70
5
  0
BLOCK_RECORD
  5
A02
330
A01
100
AcDbSymbolTableRecord
100
AcDbBlockTableRecord
  2
*MODEL_SPACE
  0
BLOCK_RECORD
  5
A03
330
A01
100
AcDbSymbolTableRecord
100
AcDbBlockTableRecord
  2
*PAPER_SPACE
  0
ENDTAB
  0
ENDSEC
  0
SECTION
  2
BLOCKS
  0
BLOCK
  5
A04
330
A02
100
AcDbEntity
  8
0
100
AcDbBlockBegin
  2
*MODEL_SPACE
 70
   0
 10
0
 20
0
 30
0
  3
*MODEL_SPACE
  1
 
  0
ENDBLK
  5
A05
330
A02
100
AcDbEntity
  8
0
100
AcDbBlockEnd
  0
BLOCK
  5
A06
330
A03
100
AcDbEntity
 67
1
  8
0
100
AcDbBlockBegin
  2
*PAPER_SPACE
 70
   0
 10
0
 20
0
 30
0
  3
*PAPER_SPACE
  1
 
  0
ENDBLK
  5
A07
330
A03
100
AcDbEntity
 67
    1
  8
0
100
AcDbBlockEnd
  0
ENDSEC
  0
SECTION
  2
ENTITIES
  0
LINE
  5
A08
330
A02
100
AcDbEntity
  8
Wire
100
AcDbLine
 10
625.000000000
 20
389.500000000
 30
0.000000000
 11
630.200000000
 21
389.500000000
 31
0.000000000
  0
LINE
  5
A09
330
A02
100
AcDbEntity
  8
Wire
100
AcDbLine
 10
630.200000000
 20
389.500000000
 30
0.000000000
 11
630.200000000
 21
611.500000000
 31
0.000000000
  0
LINE
  5
A0A
330
A02
100
AcDbEntity
  8
Wire
100
AcDbLine
 10
630.200000000
 20
611.500000000
 30
0.000000000
 11
625.000000000
 21
611.500000000
 31
0.000000000
  0
LINE
  5
A0B
330
A02
100
AcDbEntity
  8
Wire
100
AcDbLine
 10
625.000000000
 20
611.500000000
 30
0.000000000
 11
625.000000000
 21
389.500000000
 31
0.000000000
  0
LINE
  5
A0C
330
A02
100
AcDbEntity
  8
Wire003
100
AcDbLine
 10
489.750000000
 20
384.200000000
 30
0.000000000
 11
495.000000000
 21
384.200000000
 31
0.000000000
  0
LINE
  5
A0D
330
A02
100
AcDbEntity
  8
Wire003
100
AcDbLine
 10
495.000000000
 20
384.200000000
 30
0.000000000
 11
495.000000000
 21
611.500000000
 31
0.000000000
  0
LINE
  5
A0E
330
A02
100
AcDbEntity
  8
Wire003
100
AcDbLine
 10
495.000000000
 20
611.500000000
 30
0.000000000
 11
489.750000000
 21
611.500000000
 31
0.000000000
  0
LINE
  5
A0F
330
A02
100
AcDbEntity
  8
Wire003
100
AcDbLine
 10
489.750000000
 20
611.500000000
 30
0.000000000
 11
489.750000000
 21
384.200000000
 31
0.000000000
  0
LINE
  5
A10
330
A02
100
AcDbEntity
  8
Wire004
100
AcDbLine
 10
495.000000000
 20
233.750000000
 30
0.000000000
 11
625.000000000
 21
233.750000000
 31
0.000000000
  0
LINE
  5
A11
330
A02
100
AcDbEntity
  8
Wire004
100
AcDbLine
 10
625.000000000
 20
233.750000000
 30
0.000000000
 11
625.000000000
 21
239.000000000
 31
0.000000000
  0
LINE
  5
A12
330
A02
100
AcDbEntity
  8
Wire004
100
AcDbLine
 10
625.000000000
 20
239.000000000
 30
0.000000000
 11
495.000000000
 21
239.000000000
 31
0.000000000
  0
LINE
  5
A13
330
A02
100
AcDbEntity
  8
Wire004
100
AcDbLine
 10
495.000000000
 20
239.000000000
 30
0.000000000
 11
495.000000000
 21
233.750000000
 31
0.000000000
  0
LINE
  5
A14
330
A02
100
AcDbEntity
  8
Wire005
100
AcDbLine
 10
489.750000000
 20
611.500000000
 30
0.000000000
 11
776.450000000
 21
611.500000000
 31
0.000000000
  0
LINE
  5
A15
330
A02
100
AcDbEntity
  8
Wire005
100
AcDbLine
 10
776.450000000
 20
611.500000000
 30
0.000000000
 11
776.450000000
 21
617.750000000
 31
0.000000000
  0
LINE
  5
A16
330
A02
100
AcDbEntity
  8
Wire005
100
AcDbLine
 10
776.450000000
 20
617.750000000
 30
0.000000000
 11
489.750000000
 21
617.750000000
 31
0.000000000
  0
LINE
  5
A17
330
A02
100
AcDbEntity
  8
Wire005
100
AcDbLine
 10
489.750000000
 20
617.750000000
 30
0.000000000
 11
489.750000000
 21
611.500000000
 31
0.000000000
  0
LINE
  5
A18
330
A02
100
AcDbEntity
  8
Wire006
100
AcDbLine
 10
770.200000000
 20
239.000000000
 30
0.000000000
 11
776.450000000
 21
239.000000000
 31
0.000000000
  0
LINE
  5
A19
330
A02
100
AcDbEntity
  8
Wire006
100
AcDbLine
 10
776.450000000
 20
239.000000000
 30
0.000000000
 11
776.450000000
 21
617.750000000
 31
0.000000000
  0
LINE
  5
A1A
330
A02
100
AcDbEntity
  8
Wire006
100
AcDbLine
 10
776.450000000
 20
617.750000000
 30
0.000000000
 11
770.200000000
 21
617.750000000
 31
0.000000000
  0
LINE
  5
A1B
330
A02
100
AcDbEntity
  8
Wire006
100
AcDbLine
 10
770.200000000
 20
617.750000000
 30
0.000000000
 11
770.200000000
 21
239.000000000
 31
0.000000000
  0
LINE
  5
A1C
330
A02
100
AcDbEntity
  8
Wire008
100
AcDbLine
 10
770.200000000
 20
0.000000000
 30
0.000000000
 11
776.450000000
 21
0.000000000
 31
0.000000000
  0
LINE
  5
A1D
330
A02
100
AcDbEntity
  8
Wire008
100
AcDbLine
 10
776.450000000
 20
0.000000000
 30
0.000000000
 11
776.450000000
 21
246.200000000
 31
0.000000000
  0
LINE
  5
A1E
330
A02
100
AcDbEntity
  8
Wire008
100
AcDbLine
 10
776.450000000
 20
246.200000000
 30
0.000000000
 11
770.200000000
 21
246.200000000
 31
0.000000000
  0
LINE
  5
A1F
330
A02
100
AcDbEntity
  8
Wire008
100
AcDbLine
 10
770.200000000
 20
246.200000000
 30
0.000000000
 11
770.200000000
 21
0.000000000
 31
0.000000000
  0
LINE
  5
A20
330
A02
100
AcDbEntity
  8
Wire009
100
AcDbLine
 10
279.000000000
 20
198.000000000
 30
0.000000000
 11
423.000000000
 21
198.000000000
 31
0.000000000
  0
LINE
  5
A21
330
A02
100
AcDbEntity
  8
Wire009
100
AcDbLine
 10
423.000000000
 20
198.000000000
 30
0.000000000
 11
423.000000000
 21
203.250000000
 31
0.000000000
  0
LINE
  5
A22
330
A02
100
AcDbEntity
  8
Wire009
100
AcDbLine
 10
423.000000000
 20
203.250000000
 30
0.000000000
 11
279.000000000
 21
203.250000000
 31
0.000000000
  0
LINE
  5
A23
330
A02
100
AcDbEntity
  8
Wire009
100
AcDbLine
 10
279.000000000
 20
203.250000000
 30
0.000000000
 11
279.000000000
 21
198.000000000
 31
0.000000000
  0
LINE
  5
A24
330
A02
100
AcDbEntity
  8
Wire010
100
AcDbLine
 10
273.750000000
 20
54.000000000
 30
0.000000000
 11
279.000000000
 21
54.000000000
 31
0.000000000
  0
LINE
  5
A25
330
A02
100
AcDbEntity
  8
Wire010
100
AcDbLine
 10
279.000000000
 20
54.000000000
 30
0.000000000
 11
279.000000000
 21
203.250000000
 31
0.000000000
  0
LINE
  5
A26
330
A02
100
AcDbEntity
  8
Wire010
100
AcDbLine
 10
279.000000000
 20
203.250000000
 30
0.000000000
 11
273.750000000
 21
203.250000000
 31
0.000000000
  0
LINE
  5
A27
330
A02
100
AcDbEntity
  8
Wire010
100
AcDbLine
 10
273.750000000
 20
203.250000000
 30
0.000000000
 11
273.750000000
 21
54.000000000
 31
0.000000000
  0
LINE
  5
A28
330
A02
100
AcDbEntity
  8
Wire012
100
AcDbLine
 10
423.000000000
 20
48.750000000
 30
0.000000000
 11
428.250000000
 21
48.750000000
 31
0.000000000
  0
LINE
  5
A29
330
A02
100
AcDbEntity
  8
Wire012
100
AcDbLine
 10
428.250000000
 20
48.750000000
 30
0.000000000
 11
428.250000000
 21
203.250000000
 31
0.000000000
  0
LINE
  5
A2A
330
A02
100
AcDbEntity
  8
Wire012
100
AcDbLine
 10
428.250000000
 20
203.250000000
 30
0.000000000
 11
423.000000000
 21
203.250000000
 31
0.000000000
  0
LINE
  5
A2B
330
A02
100
AcDbEntity
  8
Wire012
100
AcDbLine
 10
423.000000000
 20
203.250000000
 30
0.000000000
 11
423.000000000
 21
48.750000000
 31
0.000000000
  0
LINE
  5
A2C
330
A02
100
AcDbEntity
  8
Wire017
100
AcDbLine
 10
362.000000000
 20
233.750000000
 30
0.000000000
 11
428.250000000
 21
233.750000000
 31
0.000000000
  0
LINE
  5
A2D
330
A02
100
AcDbEntity
  8
Wire017
100
AcDbLine
 10
428.250000000
 20
233.750000000
 30
0.000000000
 11
428.250000000
 21
239.000000000
 31
0.000000000
  0
LINE
  5
A2E
330
A02
100
AcDbEntity
  8
Wire017
100
AcDbLine
 10
428.250000000
 20
239.000000000
 30
0.000000000
 11
362.000000000
 21
239.000000000
 31
0.000000000
  0
LINE
  5
A2F
330
A02
100
AcDbEntity
  8
Wire017
100
AcDbLine
 10
362.000000000
 20
239.000000000
 30
0.000000000
 11
362.000000000
 21
233.750000000
 31
0.000000000
  0
LINE
  5
A30
330
A02
100
AcDbEntity
  8
Wire018
100
AcDbLine
 10
356.750000000
 20
233.750000000
 30
0.000000000
 11
362.000000000
 21
233.750000000
 31
0.000000000
  0
LINE
  5
A31
330
A02
100
AcDbEntity
  8
Wire018
100
AcDbLine
 10
362.000000000
 20
233.750000000
 30
0.000000000
 11
362.000000000
 21
300.000000000
 31
0.000000000
  0
LINE
  5
A32
330
A02
100
AcDbEntity
  8
Wire018
100
AcDbLine
 10
362.000000000
 20
300.000000000
 30
0.000000000
 11
356.750000000
 21
300.000000000
 31
0.000000000
  0
LINE
  5
A33
330
A02
100
AcDbEntity
  8
Wire018
100
AcDbLine
 10
356.750000000
 20
300.000000000
 30
0.000000000
 11
356.750000000
 21
233.750000000
 31
0.000000000
  0
LINE
  5
A34
330
A02
100
AcDbEntity
  8
Wire019
100
AcDbLine
 10
290.000000000
 20
270.750000000
 30
0.000000000
 11
362.000000000
 21
270.750000000
 31
0.000000000
  0
LINE
  5
A35
330
A02
100
AcDbEntity
  8
Wire019
100
AcDbLine
 10
362.000000000
 20
270.750000000
 30
0.000000000
 11
362.000000000
 21
276.000000000
 31
0.000000000
  0
LINE
  5
A36
330
A02
100
AcDbEntity
  8
Wire019
100
AcDbLine
 10
362.000000000
 20
276.000000000
 30
0.000000000
 11
290.000000000
 21
276.000000000
 31
0.000000000
  0
LINE
  5
A37
330
A02
100
AcDbEntity
  8
Wire019
100
AcDbLine
 10
290.000000000
 20
276.000000000
 30
0.000000000
 11
290.000000000
 21
270.750000000
 31
0.000000000
  0
LINE
  5
A38
330
A02
100
AcDbEntity
  8
Wire020
100
AcDbLine
 10
284.750000000
 20
270.750000000
 30
0.000000000
 11
290.000000000
 21
270.750000000
 31
0.000000000
  0
LINE
  5
A39
330
A02
100
AcDbEntity
  8
Wire020
100
AcDbLine
 10
290.000000000
 20
270.750000000
 30
0.000000000
 11
290.000000000
 21
300.000000000
 31
0.000000000
  0
LINE
  5
A3A
330
A02
100
AcDbEntity
  8
Wire020
100
AcDbLine
 10
290.000000000
 20
300.000000000
 30
0.000000000
 11
284.750000000
 21
300.000000000
 31
0.000000000
  0
LINE
  5
A3B
330
A02
100
AcDbEntity
  8
Wire020
100
AcDbLine
 10
284.750000000
 20
300.000000000
 30
0.000000000
 11
284.750000000
 21
270.750000000
 31
0.000000000
  0
LINE
  5
A3C
330
A02
100
AcDbEntity
  8
Wire023
100
AcDbLine
 10
-6.000000000
 20
0.000000000
 30
0.000000000
 11
246.000000000
 21
0.000000000
 31
0.000000000
  0
LINE
  5
A3D
330
A02
100
AcDbEntity
  8
Wire023
100
AcDbLine
 10
246.000000000
 20
0.000000000
 30
0.000000000
 11
246.000000000
 21
6.000000000
 31
0.000000000
  0
LINE
  5
A3E
330
A02
100
AcDbEntity
  8
Wire023
100
AcDbLine
 10
246.000000000
 20
6.000000000
 30
0.000000000
 11
-6.000000000
 21
6.000000000
 31
0.000000000
  0
LINE
  5
A3F
330
A02
100
AcDbEntity
  8
Wire023
100
AcDbLine
 10
-6.000000000
 20
6.000000000
 30
0.000000000
 11
-6.000000000
 21
0.000000000
 31
0.000000000
  0
LINE
  5
A40
330
A02
100
AcDbEntity
  8
Wire024
100
AcDbLine
 10
-6.000000000
 20
0.000000000
 30
0.000000000
 11
0.000000000
 21
0.000000000
 31
0.000000000
  0
LINE
  5
A41
330
A02
100
AcDbEntity
  8
Wire024
100
AcDbLine
 10
0.000000000
 20
0.000000000
 30
0.000000000
 11
0.000000000
 21
390.200000000
 31
0.000000000
  0
LINE
  5
A42
330
A02
100
AcDbEntity
  8
Wire024
100
AcDbLine
 10
0.000000000
 20
390.200000000
 30
0.000000000
 11
-6.000000000
 21
390.200000000
 31
0.000000000
  0
LINE
  5
A43
330
A02
100
AcDbEntity
  8
Wire024
100
AcDbLine
 10
-6.000000000
 20
390.200000000
 30
0.000000000
 11
-6.000000000
 21
0.000000000
 31
0.000000000
  0
LINE
  5
A44
330
A02
100
AcDbEntity
  8
Wire025
100
AcDbLine
 10
-6.000000000
 20
384.200000000
 30
0.000000000
 11
246.000000000
 21
384.200000000
 31
0.000000000
  0
LINE
  5
A45
330
A02
100
AcDbEntity
  8
Wire025
100
AcDbLine
 10
246.000000000
 20
384.200000000
 30
0.000000000
 11
246.000000000
 21
390.200000000
 31
0.000000000
  0
LINE
  5
A46
330
A02
100
AcDbEntity
  8
Wire025
100
AcDbLine
 10
246.000000000
 20
390.200000000
 30
0.000000000
 11
-6.000000000
 21
390.200000000
 31
0.000000000
  0
LINE
  5
A47
330
A02
100
AcDbEntity
  8
Wire025
100
AcDbLine
 10
-6.000000000
 20
390.200000000
 30
0.000000000
 11
-6.000000000
 21
384.200000000
 31
0.000000000
  0
LINE
  5
A48
330
A02
100
AcDbEntity
  8
Wire026
100
AcDbLine
 10
240.000000000
 20
0.000000000
 30
0.000000000
 11
246.000000000
 21
0.000000000
 31
0.000000000
  0
LINE
  5
A49
330
A02
100
AcDbEntity
  8
Wire026
100
AcDbLine
 10
246.000000000
 20
0.000000000
 30
0.000000000
 11
246.000000000
 21
390.200000000
 31
0.000000000
  0
LINE
  5
A4A
330
A02
100
AcDbEntity
  8
Wire026
100
AcDbLine
 10
246.000000000
 20
390.200000000
 30
0.000000000
 11
240.000000000
 21
390.200000000
 31
0.000000000
  0
LINE
  5
A4B
330
A02
100
AcDbEntity
  8
Wire026
100
AcDbLine
 10
240.000000000
 20
390.200000000
 30
0.000000000
 11
240.000000000
 21
0.000000000
 31
0.000000000
  0
LINE
  5
A4C
330
A02
100
AcDbEntity
  8
Line001
100
AcDbLine
 10
423.000000000
 20
239.000000000
 30
0.000000000
 11
495.000000000
 21
239.000000000
 31
0.000000000
  0
LINE
  5
A4D
330
A02
100
AcDbEntity
  8
Line002
100
AcDbLine
 10
770.200000000
 20
384.200000000
 30
0.000000000
 11
770.200000000
 21
246.200000000
 31
0.000000000
  0
LINE
  5
A4E
330
A02
100
AcDbEntity
  8
Line003
100
AcDbLine
 10
527.200000000
 20
6.000000000
 30
0.000000000
 11
770.200000000
 21
6.000000000
 31
0.000000000
  0
LINE
  5
A4F
330
A02
100
AcDbEntity
  8
Line004
100
AcDbLine
 10
770.200000000
 20
241.000000000
 30
0.000000000
 11
770.200000000
 21
6.000000000
 31
0.000000000
  0
LINE
  5
A50
330
A02
100
AcDbEntity
  8
Wire027
100
AcDbLine
 10
612.800000000
 20
6.000000000
 30
0.000000000
 11
684.800000000
 21
6.000000000
 31
0.000000000
  0
LINE
  5
A51
330
A02
100
AcDbEntity
  8
Wire027
100
AcDbLine
 10
684.800000000
 20
6.000000000
 30
0.000000000
 11
684.800000000
 21
28.000000000
 31
0.000000000
  0
LINE
  5
A52
330
A02
100
AcDbEntity
  8
Wire027
100
AcDbLine
 10
684.800000000
 20
28.000000000
 30
0.000000000
 11
612.800000000
 21
28.000000000
 31
0.000000000
  0
LINE
  5
A53
330
A02
100
AcDbEntity
  8
Wire027
100
AcDbLine
 10
612.800000000
 20
28.000000000
 30
0.000000000
 11
612.800000000
 21
6.000000000
 31
0.000000000
  0
LINE
  5
A54
330
A02
100
AcDbEntity
  8
Line019
100
AcDbLine
 10
816.200000000
 20
308.800000000
 30
0.000000000
 11
846.200000000
 21
308.800000000
 31
0.000000000
  0
LINE
  5
A55
330
A02
100
AcDbEntity
  8
Line020
100
AcDbLine
 10
846.200000000
 20
308.800000000
 30
0.000000000
 11
838.200000000
 21
303.800000000
 31
0.000000000
  0
LINE
  5
A56
330
A02
100
AcDbEntity
  8
Line021
100
AcDbLine
 10
846.200000000
 20
308.800000000
 30
0.000000000
 11
838.200000000
 21
313.800000000
 31
0.000000000
  0
LINE
  5
A57
330
A02
100
AcDbEntity
  8
Wire028
100
AcDbLine
 10
495.000000000
 20
6.000000000
 30
0.000000000
 11
573.000000000
 21
6.000000000
 31
0.000000000
  0
LINE
  5
A58
330
A02
100
AcDbEntity
  8
Wire028
100
AcDbLine
 10
573.000000000
 20
6.000000000
 30
0.000000000
 11
573.000000000
 21
102.000000000
 31
0.000000000
  0
LINE
  5
A59
330
A02
100
AcDbEntity
  8
Wire028
100
AcDbLine
 10
573.000000000
 20
102.000000000
 30
0.000000000
 11
495.000000000
 21
102.000000000
 31
0.000000000
  0
LINE
  5
A5A
330
A02
100
AcDbEntity
  8
Wire028
100
AcDbLine
 10
495.000000000
 20
102.000000000
 30
0.000000000
 11
495.000000000
 21
6.000000000
 31
0.000000000
  0
LINE
  5
A5B
330
A02
100
AcDbEntity
  8
Line022
100
AcDbLine
 10
534.000000000
 20
6.000000000
 30
0.000000000
 11
534.000000000
 21
102.000000000
 31
0.000000000
  0
LINE
  5
A5C
330
A02
100
AcDbEntity
  8
Line023
100
AcDbLine
 10
495.000000000
 20
14.000000000
 30
0.000000000
 11
534.000000000
 21
14.000000000
 31
0.000000000
  0
LINE
  5
A5D
330
A02
100
AcDbEntity
  8
Line024
100
AcDbLine
 10
495.000000000
 20
22.000000000
 30
0.000000000
 11
534.000000000
 21
22.000000000
 31
0.000000000
  0
LINE
  5
A5E
330
A02
100
AcDbEntity
  8
Line025
100
AcDbLine
 10
495.000000000
 20
30.000000000
 30
0.000000000
 11
534.000000000
 21
30.000000000
 31
0.000000000
  0
LINE
  5
A5F
330
A02
100
AcDbEntity
  8
Line026
100
AcDbLine
 10
495.000000000
 20
38.000000000
 30
0.000000000
 11
534.000000000
 21
38.000000000
 31
0.000000000
  0
LINE
  5
A60
330
A02
100
AcDbEntity
  8
Line027
100
AcDbLine
 10
495.000000000
 20
46.000000000
 30
0.000000000
 11
534.000000000
 21
46.000000000
 31
0.000000000
  0
LINE
  5
A61
330
A02
100
AcDbEntity
  8
Line028
100
AcDbLine
 10
495.000000000
 20
54.000000000
 30
0.000000000
 11
534.000000000
 21
54.000000000
 31
0.000000000
  0
LINE
  5
A62
330
A02
100
AcDbEntity
  8
Line029
100
AcDbLine
 10
495.000000000
 20
62.000000000
 30
0.000000000
 11
534.000000000
 21
62.000000000
 31
0.000000000
  0
LINE
  5
A63
330
A02
100
AcDbEntity
  8
Line030
100
AcDbLine
 10
495.000000000
 20
70.000000000
 30
0.000000000
 11
534.000000000
 21
70.000000000
 31
0.000000000
  0
LINE
  5
A64
330
A02
100
AcDbEntity
  8
Line031
100
AcDbLine
 10
495.000000000
 20
78.000000000
 30
0.000000000
 11
534.000000000
 21
78.000000000
 31
0.000000000
  0
LINE
  5
A65
330
A02
100
AcDbEntity
  8
Line032
100
AcDbLine
 10
495.000000000
 20
86.000000000
 30
0.000000000
 11
534.000000000
 21
86.000000000
 31
0.000000000
  0
LINE
  5
A66
330
A02
100
AcDbEntity
  8
Line033
100
AcDbLine
 10
495.000000000
 20
94.000000000
 30
0.000000000
 11
534.000000000
 21
94.000000000
 31
0.000000000
  0
LINE
  5
A67
330
A02
100
AcDbEntity
  8
Line034
100
AcDbLine
 10
534.000000000
 20
14.000000000
 30
0.000000000
 11
573.000000000
 21
14.000000000
 31
0.000000000
  0
LINE
  5
A68
330
A02
100
AcDbEntity
  8
Line035
100
AcDbLine
 10
534.000000000
 20
22.000000000
 30
0.000000000
 11
573.000000000
 21
22.000000000
 31
0.000000000
  0
LINE
  5
A69
330
A02
100
AcDbEntity
  8
Line036
100
AcDbLine
 10
534.000000000
 20
30.000000000
 30
0.000000000
 11
573.000000000
 21
30.000000000
 31
0.000000000
  0
LINE
  5
A6A
330
A02
100
AcDbEntity
  8
Line037
100
AcDbLine
 10
534.000000000
 20
38.000000000
 30
0.000000000
 11
573.000000000
 21
38.000000000
 31
0.000000000
  0
LINE
  5
A6B
330
A02
100
AcDbEntity
  8
Line038
100
AcDbLine
 10
534.000000000
 20
46.000000000
 30
0.000000000
 11
573.000000000
 21
46.000000000
 31
0.000000000
  0
LINE
  5
A6C
330
A02
100
AcDbEntity
  8
Line039
100
AcDbLine
 10
534.000000000
 20
54.000000000
 30
0.000000000
 11
573.000000000
 21
54.000000000
 31
0.000000000
  0
LINE
  5
A6D
330
A02
100
AcDbEntity
  8
Line040
100
AcDbLine
 10
534.000000000
 20
62.000000000
 30
0.000000000
 11
573.000000000
 21
62.000000000
 31
0.000000000
  0
LINE
  5
A6E
330
A02
100
AcDbEntity
  8
Line041
100
AcDbLine
 10
534.000000000
 20
70.000000000
 30
0.000000000
 11
573.000000000
 21
70.000000000
 31
0.000000000
  0
LINE
  5
A6F
330
A02
100
AcDbEntity
  8
Line042
100
AcDbLine
 10
534.000000000
 20
78.000000000
 30
0.000000000
 11
573.000000000
 21
78.000000000
 31
0.000000000
  0
LINE
  5
A70
330
A02
100
AcDbEntity
  8
Line043
100
AcDbLine
 10
534.000000000
 20
86.000000000
 30
0.000000000
 11
573.000000000
 21
86.000000000
 31
0.000000000
  0
LINE
  5
A71
330
A02
100
AcDbEntity
  8
Line044
100
AcDbLine
 10
534.000000000
 20
94.000000000
 30
0.000000000
 11
573.000000000
 21
94.000000000
 31
0.000000000
  0
LINE
  5
A72
330
A02
100
AcDbEntity
  8
Line045
100
AcDbLine
 10
514.500000000
 20
70.000000000
 30
0.000000000
 11
514.500000000
 21
30.000000000
 31
0.000000000
  0
LINE
  5
A73
330
A02
100
AcDbEntity
  8
Line046
100
AcDbLine
 10
514.500000000
 20
30.000000000
 30
0.000000000
 11
509.500000000
 21
40.000000000
 31
0.000000000
  0
LINE
  5
A74
330
A02
100
AcDbEntity
  8
Line047
100
AcDbLine
 10
514.500000000
 20
30.000000000
 30
0.000000000
 11
519.500000000
 21
40.000000000
 31
0.000000000
  0
LINE
  5
A75
330
A02
100
AcDbEntity
  8
Line048
100
AcDbLine
 10
553.500000000
 20
30.000000000
 30
0.000000000
 11
553.500000000
 21
70.000000000
 31
0.000000000
  0
LINE
  5
A76
330
A02
100
AcDbEntity
  8
Line049
100
AcDbLine
 10
553.500000000
 20
70.000000000
 30
0.000000000
 11
548.500000000
 21
60.000000000
 31
0.000000000
  0
LINE
  5
A77
330
A02
100
AcDbEntity
  8
Line050
100
AcDbLine
 10
553.500000000
 20
70.000000000
 30
0.000000000
 11
558.500000000
 21
60.000000000
 31
0.000000000
  0
LINE
  5
A78
330
A02
100
AcDbEntity
  8
Wire029
100
AcDbLine
 10
501.000000000
 20
101.000000000
 30
0.000000000
 11
573.000000000
 21
101.000000000
 31
0.000000000
  0
LINE
  5
A79
330
A02
100
AcDbEntity
  8
Wire029
100
AcDbLine
 10
573.000000000
 20
101.000000000
 30
0.000000000
 11
573.000000000
 21
139.000000000
 31
0.000000000
  0
LINE
  5
A7A
330
A02
100
AcDbEntity
  8
Wire029
100
AcDbLine
 10
573.000000000
 20
139.000000000
 30
0.000000000
 11
501.000000000
 21
139.000000000
 31
0.000000000
  0
LINE
  5
A7B
330
A02
100
AcDbEntity
  8
Wire029
100
AcDbLine
 10
501.000000000
 20
139.000000000
 30
0.000000000
 11
501.000000000
 21
101.000000000
 31
0.000000000
  0
LINE
  5
A7C
330
A02
100
AcDbEntity
  8
Wire033
100
AcDbLine
 10
356.750000000
 20
294.750000000
 30
0.000000000
 11
428.250000000
 21
294.750000000
 31
0.000000000
  0
LINE
  5
A7D
330
A02
100
AcDbEntity
  8
Wire033
100
AcDbLine
 10
428.250000000
 20
294.750000000
 30
0.000000000
 11
428.250000000
 21
300.000000000
 31
0.000000000
  0
LINE
  5
A7E
330
A02
100
AcDbEntity
  8
Wire033
100
AcDbLine
 10
428.250000000
 20
300.000000000
 30
0.000000000
 11
356.750000000
 21
300.000000000
 31
0.000000000
  0
LINE
  5
A7F
330
A02
100
AcDbEntity
  8
Wire033
100
AcDbLine
 10
356.750000000
 20
300.000000000
 30
0.000000000
 11
356.750000000
 21
294.750000000
 31
0.000000000
  0
LINE
  5
A80
330
A02
100
AcDbEntity
  8
Wire035
100
AcDbLine
 10
489.750000000
 20
384.200000000
 30
0.000000000
 11
770.200000000
 21
384.200000000
 31
0.000000000
  0
LINE
  5
A81
330
A02
100
AcDbEntity
  8
Wire035
100
AcDbLine
 10
770.200000000
 20
384.200000000
 30
0.000000000
 11
770.200000000
 21
389.500000000
 31
0.000000000
  0
LINE
  5
A82
330
A02
100
AcDbEntity
  8
Wire035
100
AcDbLine
 10
770.200000000
 20
389.500000000
 30
0.000000000
 11
489.750000000
 21
389.500000000
 31
0.000000000
  0
LINE
  5
A83
330
A02
100
AcDbEntity
  8
Wire035
100
AcDbLine
 10
489.750000000
 20
389.500000000
 30
0.000000000
 11
489.750000000
 21
384.200000000
 31
0.000000000
  0
LINE
  5
A84
330
A02
100
AcDbEntity
  8
Wire037
100
AcDbLine
 10
423.000000000
 20
96.000000000
 30
0.000000000
 11
495.000000000
 21
96.000000000
 31
0.000000000
  0
LINE
  5
A85
330
A02
100
AcDbEntity
  8
Wire037
100
AcDbLine
 10
495.000000000
 20
96.000000000
 30
0.000000000
 11
495.000000000
 21
102.000000000
 31
0.000000000
  0
LINE
  5
A86
330
A02
100
AcDbEntity
  8
Wire037
100
AcDbLine
 10
495.000000000
 20
102.000000000
 30
0.000000000
 11
423.000000000
 21
102.000000000
 31
0.000000000
  0
LINE
  5
A87
330
A02
100
AcDbEntity
  8
Wire037
100
AcDbLine
 10
423.000000000
 20
102.000000000
 30
0.000000000
 11
423.000000000
 21
96.000000000
 31
0.000000000
  0
LINE
  5
A88
330
A02
100
AcDbEntity
  8
Wire039
100
AcDbLine
 10
423.000000000
 20
233.750000000
 30
0.000000000
 11
428.250000000
 21
233.750000000
 31
0.000000000
  0
LINE
  5
A89
330
A02
100
AcDbEntity
  8
Wire039
100
AcDbLine
 10
428.250000000
 20
233.750000000
 30
0.000000000
 11
428.250000000
 21
300.000000000
 31
0.000000000
  0
LINE
  5
A8A
330
A02
100
AcDbEntity
  8
Wire039
100
AcDbLine
 10
428.250000000
 20
300.000000000
 30
0.000000000
 11
423.000000000
 21
300.000000000
 31
0.000000000
  0
LINE
  5
A8B
330
A02
100
AcDbEntity
  8
Wire039
100
AcDbLine
 10
423.000000000
 20
300.000000000
 30
0.000000000
 11
423.000000000
 21
233.750000000
 31
0.000000000
  0
LINE
  5
A8C
330
A02
100
AcDbEntity
  8
Wire041
100
AcDbLine
 10
240.000000000
 20
54.000000000
 30
0.000000000
 11
273.750000000
 21
54.000000000
 31
0.000000000
  0
LINE
  5
A8D
330
A02
100
AcDbEntity
  8
Wire041
100
AcDbLine
 10
273.750000000
 20
54.000000000
 30
0.000000000
 11
273.750000000
 21
198.000000000
 31
0.000000000
  0
LINE
  5
A8E
330
A02
100
AcDbEntity
  8
Wire041
100
AcDbLine
 10
273.750000000
 20
198.000000000
 30
0.000000000
 11
240.000000000
 21
198.000000000
 31
0.000000000
  0
LINE
  5
A8F
330
A02
100
AcDbEntity
  8
Wire041
100
AcDbLine
 10
240.000000000
 20
198.000000000
 30
0.000000000
 11
240.000000000
 21
54.000000000
 31
0.000000000
  0
LINE
  5
A90
330
A02
100
AcDbEntity
  8
Line
100
AcDbLine
 10
240.000000000
 20
64.285714286
 30
0.000000000
 11
273.750000000
 21
64.285714286
 31
0.000000000
  0
LINE
  5
A91
330
A02
100
AcDbEntity
  8
Line051
100
AcDbLine
 10
240.000000000
 20
74.571428571
 30
0.000000000
 11
273.750000000
 21
74.571428571
 31
0.000000000
  0
LINE
  5
A92
330
A02
100
AcDbEntity
  8
Line052
100
AcDbLine
 10
240.000000000
 20
84.857142857
 30
0.000000000
 11
273.750000000
 21
84.857142857
 31
0.000000000
  0
LINE
  5
A93
330
A02
100
AcDbEntity
  8
Line053
100
AcDbLine
 10
240.000000000
 20
95.142857143
 30
0.000000000
 11
273.750000000
 21
95.142857143
 31
0.000000000
  0
LINE
  5
A94
330
A02
100
AcDbEntity
  8
Line054
100
AcDbLine
 10
240.000000000
 20
105.428571429
 30
0.000000000
 11
273.750000000
 21
105.428571429
 31
0.000000000
  0
LINE
  5
A95
330
A02
100
AcDbEntity
  8
Line055
100
AcDbLine
 10
240.000000000
 20
115.714285714
 30
0.000000000
 11
273.750000000
 21
115.714285714
 31
0.000000000
  0
LINE
  5
A96
330
A02
100
AcDbEntity
  8
Line056
100
AcDbLine
 10
240.000000000
 20
126.000000000
 30
0.000000000
 11
273.750000000
 21
126.000000000
 31
0.000000000
  0
LINE
  5
A97
330
A02
100
AcDbEntity
  8
Line057
100
AcDbLine
 10
240.000000000
 20
136.285714286
 30
0.000000000
 11
273.750000000
 21
136.285714286
 31
0.000000000
  0
LINE
  5
A98
330
A02
100
AcDbEntity
  8
Line058
100
AcDbLine
 10
240.000000000
 20
146.571428571
 30
0.000000000
 11
273.750000000
 21
146.571428571
 31
0.000000000
  0
LINE
  5
A99
330
A02
100
AcDbEntity
  8
Line059
100
AcDbLine
 10
240.000000000
 20
156.857142857
 30
0.000000000
 11
273.750000000
 21
156.857142857
 31
0.000000000
  0
LINE
  5
A9A
330
A02
100
AcDbEntity
  8
Line060
100
AcDbLine
 10
240.000000000
 20
167.142857143
 30
0.000000000
 11
273.750000000
 21
167.142857143
 31
0.000000000
  0
LINE
  5
A9B
330
A02
100
AcDbEntity
  8
Line061
100
AcDbLine
 10
240.000000000
 20
177.428571429
 30
0.000000000
 11
273.750000000
 21
177.428571429
 31
0.000000000
  0
LINE
  5
A9C
330
A02
100
AcDbEntity
  8
Line062
100
AcDbLine
 10
240.000000000
 20
187.714285714
 30
0.000000000
 11
273.750000000
 21
187.714285714
 31
0.000000000
  0
LINE
  5
A9D
330
A02
100
AcDbEntity
  8
Line063
100
AcDbLine
 10
256.875000000
 20
150.000000000
 30
0.000000000
 11
256.875000000
 21
100.000000000
 31
0.000000000
  0
LINE
  5
A9E
330
A02
100
AcDbEntity
  8
Line064
100
AcDbLine
 10
256.875000000
 20
100.000000000
 30
0.000000000
 11
252.875000000
 21
108.000000000
 31
0.000000000
  0
LINE
  5
A9F
330
A02
100
AcDbEntity
  8
Line065
100
AcDbLine
 10
256.875000000
 20
100.000000000
 30
0.000000000
 11
260.875000000
 21
108.000000000
 31
0.000000000
  0
LINE
  5
AA0
330
A02
100
AcDbEntity
  8
Wire044
100
AcDbLine
 10
489.750000000
 20
0.000000000
 30
0.000000000
 11
495.000000000
 21
0.000000000
 31
0.000000000
  0
LINE
  5
AA1
330
A02
100
AcDbEntity
  8
Wire044
100
AcDbLine
 10
495.000000000
 20
0.000000000
 30
0.000000000
 11
495.000000000
 21
96.000000000
 31
0.000000000
  0
LINE
  5
AA2
330
A02
100
AcDbEntity
  8
Wire044
100
AcDbLine
 10
495.000000000
 20
96.000000000
 30
0.000000000
 11
489.750000000
 21
96.000000000
 31
0.000000000
  0
LINE
  5
AA3
330
A02
100
AcDbEntity
  8
Wire044
100
AcDbLine
 10
489.750000000
 20
96.000000000
 30
0.000000000
 11
489.750000000
 21
0.000000000
 31
0.000000000
  0
LINE
  5
AA4
330
A02
100
AcDbEntity
  8
Wire045
100
AcDbLine
 10
240.000000000
 20
390.200000000
 30
0.000000000
 11
246.000000000
 21
390.200000000
 31
0.000000000
  0
LINE
  5
AA5
330
A02
100
AcDbEntity
  8
Wire045
100
AcDbLine
 10
246.000000000
 20
390.200000000
 30
0.000000000
 11
246.000000000
 21
431.250000000
 31
0.000000000
  0
LINE
  5
AA6
330
A02
100
AcDbEntity
  8
Wire045
100
AcDbLine
 10
246.000000000
 20
431.250000000
 30
0.000000000
 11
240.000000000
 21
431.250000000
 31
0.000000000
  0
LINE
  5
AA7
330
A02
100
AcDbEntity
  8
Wire045
100
AcDbLine
 10
240.000000000
 20
431.250000000
 30
0.000000000
 11
240.000000000
 21
390.200000000
 31
0.000000000
  0
LINE
  5
AA8
330
A02
100
AcDbEntity
  8
Wire046
100
AcDbLine
 10
489.750000000
 20
0.000000000
 30
0.000000000
 11
776.450000000
 21
0.000000000
 31
0.000000000
  0
LINE
  5
AA9
330
A02
100
AcDbEntity
  8
Wire046
100
AcDbLine
 10
776.450000000
 20
0.000000000
 30
0.000000000
 11
776.450000000
 21
6.000000000
 31
0.000000000
  0
LINE
  5
AAA
330
A02
100
AcDbEntity
  8
Wire046
100
AcDbLine
 10
776.450000000
 20
6.000000000
 30
0.000000000
 11
489.750000000
 21
6.000000000
 31
0.000000000
  0
LINE
  5
AAB
330
A02
100
AcDbEntity
  8
Wire046
100
AcDbLine
 10
489.750000000
 20
6.000000000
 30
0.000000000
 11
489.750000000
 21
0.000000000
 31
0.000000000
  0
LINE
  5
AAC
330
A02
100
AcDbEntity
  8
Wire047
100
AcDbLine
 10
240.000000000
 20
426.000000000
 30
0.000000000
 11
495.000000000
 21
426.000000000
 31
0.000000000
  0
LINE
  5
AAD
330
A02
100
AcDbEntity
  8
Wire047
100
AcDbLine
 10
495.000000000
 20
426.000000000
 30
0.000000000
 11
495.000000000
 21
431.250000000
 31
0.000000000
  0
LINE
  5
AAE
330
A02
100
AcDbEntity
  8
Wire047
100
AcDbLine
 10
495.000000000
 20
431.250000000
 30
0.000000000
 11
240.000000000
 21
431.250000000
 31
0.000000000
  0
LINE
  5
AAF
330
A02
100
AcDbEntity
  8
Wire047
100
AcDbLine
 10
240.000000000
 20
431.250000000
 30
0.000000000
 11
240.000000000
 21
426.000000000
 31
0.000000000
  0
LINE
  5
AB0
330
A02
100
AcDbEntity
  8
Wire048
100
AcDbLine
 10
240.000000000
 20
48.750000000
 30
0.000000000
 11
423.000000000
 21
48.750000000
 31
0.000000000
  0
LINE
  5
AB1
330
A02
100
AcDbEntity
  8
Wire048
100
AcDbLine
 10
423.000000000
 20
48.750000000
 30
0.000000000
 11
423.000000000
 21
54.000000000
 31
0.000000000
  0
LINE
  5
AB2
330
A02
100
AcDbEntity
  8
Wire048
100
AcDbLine
 10
423.000000000
 20
54.000000000
 30
0.000000000
 11
240.000000000
 21
54.000000000
 31
0.000000000
  0
LINE
  5
AB3
330
A02
100
AcDbEntity
  8
Wire048
100
AcDbLine
 10
240.000000000
 20
54.000000000
 30
0.000000000
 11
240.000000000
 21
48.750000000
 31
0.000000000
  0
LINE
  5
AB4
330
A02
100
AcDbEntity
  8
Wire049
100
AcDbLine
 10
240.000000000
 20
294.750000000
 30
0.000000000
 11
428.250000000
 21
294.750000000
 31
0.000000000
  0
LINE
  5
AB5
330
A02
100
AcDbEntity
  8
Wire049
100
AcDbLine
 10
428.250000000
 20
294.750000000
 30
0.000000000
 11
428.250000000
 21
300.000000000
 31
0.000000000
  0
LINE
  5
AB6
330
A02
100
AcDbEntity
  8
Wire049
100
AcDbLine
 10
428.250000000
 20
300.000000000
 30
0.000000000
 11
240.000000000
 21
300.000000000
 31
0.000000000
  0
LINE
  5
AB7
330
A02
100
AcDbEntity
  8
Wire049
100
AcDbLine
 10
240.000000000
 20
300.000000000
 30
0.000000000
 11
240.000000000
 21
294.750000000
 31
0.000000000
  0
LINE
  5
AB8
330
A02
100
AcDbEntity
  8
Wire051
100
AcDbLine
 10
625.000000000
 20
239.000000000
 30
0.000000000
 11
630.200000000
 21
239.000000000
 31
0.000000000
  0
LINE
  5
AB9
330
A02
100
AcDbEntity
  8
Wire051
100
AcDbLine
 10
630.200000000
 20
239.000000000
 30
0.000000000
 11
630.200000000
 21
389.500000000
 31
0.000000000
  0
LINE
  5
ABA
330
A02
100
AcDbEntity
  8
Wire051
100
AcDbLine
 10
630.200000000
 20
389.500000000
 30
0.000000000
 11
625.000000000
 21
389.500000000
 31
0.000000000
  0
LINE
  5
ABB
330
A02
100
AcDbEntity
  8
Wire051
100
AcDbLine
 10
625.000000000
 20
389.500000000
 30
0.000000000
 11
625.000000000
 21
239.000000000
 31
0.000000000
  0
LINE
  5
ABC
330
A02
100
AcDbEntity
  8
Wire052
100
AcDbLine
 10
273.750000000
 20
203.250000000
 30
0.000000000
 11
279.000000000
 21
203.250000000
 31
0.000000000
  0
LINE
  5
ABD
330
A02
100
AcDbEntity
  8
Wire052
100
AcDbLine
 10
279.000000000
 20
203.250000000
 30
0.000000000
 11
279.000000000
 21
232.250000000
 31
0.000000000
  0
LINE
  5
ABE
330
A02
100
AcDbEntity
  8
Wire052
100
AcDbLine
 10
279.000000000
 20
232.250000000
 30
0.000000000
 11
273.750000000
 21
232.250000000
 31
0.000000000
  0
LINE
  5
ABF
330
A02
100
AcDbEntity
  8
Wire052
100
AcDbLine
 10
273.750000000
 20
232.250000000
 30
0.000000000
 11
273.750000000
 21
203.250000000
 31
0.000000000
  0
LINE
  5
AC0
330
A02
100
AcDbEntity
  8
Wire053
100
AcDbLine
 10
273.750000000
 20
227.000000000
 30
0.000000000
 11
325.000000000
 21
227.000000000
 31
0.000000000
  0
LINE
  5
AC1
330
A02
100
AcDbEntity
  8
Wire053
100
AcDbLine
 10
325.000000000
 20
227.000000000
 30
0.000000000
 11
325.000000000
 21
232.250000000
 31
0.000000000
  0
LINE
  5
AC2
330
A02
100
AcDbEntity
  8
Wire053
100
AcDbLine
 10
325.000000000
 20
232.250000000
 30
0.000000000
 11
273.750000000
 21
232.250000000
 31
0.000000000
  0
LINE
  5
AC3
330
A02
100
AcDbEntity
  8
Wire053
100
AcDbLine
 10
273.750000000
 20
232.250000000
 30
0.000000000
 11
273.750000000
 21
227.000000000
 31
0.000000000
  0
LINE
  5
AC4
330
A02
100
AcDbEntity
  8
Wire054
100
AcDbLine
 10
325.000000000
 20
198.000000000
 30
0.000000000
 11
330.250000000
 21
198.000000000
 31
0.000000000
  0
LINE
  5
AC5
330
A02
100
AcDbEntity
  8
Wire054
100
AcDbLine
 10
330.250000000
 20
198.000000000
 30
0.000000000
 11
330.250000000
 21
227.000000000
 31
0.000000000
  0
LINE
  5
AC6
330
A02
100
AcDbEntity
  8
Wire054
100
AcDbLine
 10
330.250000000
 20
227.000000000
 30
0.000000000
 11
325.000000000
 21
227.000000000
 31
0.000000000
  0
LINE
  5
AC7
330
A02
100
AcDbEntity
  8
Wire054
100
AcDbLine
 10
325.000000000
 20
227.000000000
 30
0.000000000
 11
325.000000000
 21
198.000000000
 31
0.000000000
  0
ENDSEC
  0
SECTION
  2
OBJECTS
  0
DICTIONARY
  5
F000
330
0
100
AcDbDictionary
  3
ACAD_GROUP
350
F001
  0
DICTIONARY
  5
F001
330
F000
100
AcDbDictionary
  0
ENDSEC
  0
EOF