<?xml version='1.0' encoding='utf-8'?>
<svg xmlns="http://www.w3.org/2000/svg" width="1600mm" height="1400mm" viewBox="0 0 1000000 875000"><defs><style>.C1 {stroke: #ffffff; stroke-width: 312; stroke-opacity: 1.000; fill: none; fill-opacity: 1.000;}</style><style>.C2 {stroke: #ffffff; stroke-width: 219; stroke-opacity: 1.000; fill: none; fill-opacity: 1.000;}</style><style>.C3 {stroke: none; stroke-width: none; stroke-opacity: 1.000; fill: #ffff00; fill-opacity: 1.000;}</style><style>.C4 {stroke: none; stroke-width: none; stroke-opacity: 1.000; fill: #00ff00; fill-opacity: 1.000;}</style><style>.C5 {stroke: #808080; stroke-width: 81; stroke-opacity: 1.000; fill: none; fill-opacity: 1.000;}</style><style>.C6 {stroke: none; stroke-width: none; stroke-opacity: 1.000; fill: #808080; fill-opacity: 1.000;}</style><style>.C7 {stroke: #ff0000; stroke-width: 156; stroke-opacity: 1.000; fill: none; fill-opacity: 1.000;}</style><style>.C8 {stroke: none; stroke-width: none; stroke-opacity: 1.000; fill: #ff0000; fill-opacity: 1.000;}</style><style>.C9 {stroke: #c0c0c0; stroke-width: 219; stroke-opacity: 1.000; fill: none; fill-opacity: 1.000;}</style><style>.CA {stroke: none; stroke-width: none; stroke-opacity: 1.000; fill: #c0c0c0; fill-opacity: 1.000;}</style><style>.CB {stroke: #ffffff; stroke-width: 156; stroke-opacity: 1.000; fill: none; fill-opacity: 1.000;}</style><style>.CC {stroke: #ffff00; stroke-width: 81; stroke-opacity: 1.000; fill: none; fill-opacity: 1.000;}</style></defs><rect fill="#212830" x="0" y="0" width="1000000" height="875000" fill-opacity="1.0" /><g stroke-linecap="round" stroke-linejoin="round" fill-rule="evenodd"><path d="M 305093 83074 l 582643 0 l 0 747599 l -582643 0 l 0 -747599" class="C1" /><path d="M 312357 90338 l 568115 0 l 0 733071 l -568115 0 l 0 -733071" class="C1" /><path d="M 547230 90338 l 157389 0 l 0 268772 l -157389 0 l 0 -268772" class="C2" /><path d="M 604085 235293 l 0 1118 q -585 -312 -1107 -465 q -522 -153 -1005 -153 q -846 0 -1303 363 q -457 363 -457 1033 q 0 562 304 849 q 304 287 1155 463 l 619 142 q 1158 244 1706 860 q 548 616 548 1649 q 0 1232 -741 1868 q -741 636 -2177 636 q -545 0 -1155 -136 q -610 -136 -1263 -403 l 0 -1181 q 630 392 1232 590 q 602 199 1186 199 q 880 0 1362 -386 q 482 -386 482 -1101 q 0 -624 -346 -976 q -346 -352 -1135 -528 l -624 -136 q -1158 -255 -1672 -800 q -514 -545 -514 -1516 q 0 -1124 712 -1771 q 712 -647 1961 -647 q 539 0 1096 108 q 556 108 1135 324 Z M 606038 235015 l 1039 0 l 0 5148 q 0 1362 446 1961 q 446 599 1439 599 q 993 0 1436 -599 q 443 -599 443 -1961 l 0 -5148 l 1039 0 l 0 5290 q 0 1657 -738 2503 q -738 846 -2180 846 q -1447 0 -2185 -846 q -738 -846 -738 -2503 l 0 -5290 Z M 613815 235015 l 1391 0 l 3383 7090 l 0 -7090 l 999 0 l 0 8475 l -1391 0 l -3383 -7090 l 0 7090 l -999 0 l 0 -8475 Z M 625252 239517 q 335 125 647 534 q 312 409 630 1124 l 1050 2316 l -1113 0 l -976 -2174 q -375 -851 -729 -1130 q -355 -278 -968 -278 l -1124 0 l 0 3582 l -1033 0 l 0 -8475 l 2327 0 q 1311 0 1953 607 q 641 607 641 1833 q 0 800 -332 1328 q -332 528 -973 732 m -2583 -3559 l 0 3008 l 1294 0 q 749 0 1130 -383 q 380 -383 380 -1127 q 0 -744 -380 -1121 q -380 -377 -1130 -377 l -1294 0 Z M 631996 235793 q -1124 0 -1785 931 q -661 931 -661 2537 q 0 1601 661 2532 q 661 931 1785 931 q 1124 0 1782 -931 q 658 -931 658 -2532 q 0 -1606 -658 -2537 q -658 -931 -1782 -931 m 0 -931 q 1606 0 2566 1195 q 959 1195 959 3204 q 0 2004 -959 3199 q -959 1195 -2566 1195 q -1606 0 -2569 -1192 q -962 -1192 -962 -3201 q 0 -2009 962 -3204 q 962 -1195 2569 -1195 Z M 640227 235793 q -1124 0 -1785 931 q -661 931 -661 2537 q 0 1601 661 2532 q 661 931 1785 931 q 1124 0 1782 -931 q 658 -931 658 -2532 q 0 -1606 -658 -2537 q -658 -931 -1782 -931 m 0 -931 q 1606 0 2566 1195 q 959 1195 959 3204 q 0 2004 -959 3199 q -959 1195 -2566 1195 q -1606 0 -2569 -1192 q -962 -1192 -962 -3201 q 0 -2009 962 -3204 q 962 -1195 2569 -1195 Z M 645364 235015 l 1538 0 l 1947 5767 l 1953 -5767 l 1538 0 l 0 8475 l -1005 0 l 0 -7442 l -1970 5813 l -1033 0 l -1970 -5813 l 0 7442 l -999 0 l 0 -8475 Z" class="C3" /><path d="M 602013 224266 l 1012 0 l 0 -3879 l -1103 245 l 0 -627 l 1097 -245 l 620 0 l 0 4506 l 1012 0 l 0 579 l -2636 0 l 0 -579 Z M 607220 220214 q -477 0 -719 523 q -242 523 -242 1572 q 0 1046 242 1568 q 242 523 719 523 q 480 0 720 -523 q 240 -523 240 -1568 q 0 -1049 -240 -1572 q -240 -523 -720 -523 m 0 -545 q 770 0 1175 676 q 405 676 405 1963 q 0 1284 -405 1960 q -405 676 -1175 676 q -770 0 -1175 -676 q -405 -676 -405 -1960 q 0 -1287 405 -1963 q 405 -676 1175 -676 Z M 610340 219761 l 0 1890 l -521 0 l 0 -1890 l 521 0 Z M 611246 222656 l 1652 0 l 0 559 l -1652 0 l 0 -559 Z M 613984 224266 l 1012 0 l 0 -3879 l -1103 245 l 0 -627 l 1097 -245 l 620 0 l 0 4506 l 1012 0 l 0 579 l -2636 0 l 0 -579 Z M 619192 220214 q -477 0 -719 523 q -242 523 -242 1572 q 0 1046 242 1568 q 242 523 719 523 q 480 0 720 -523 q 240 -523 240 -1568 q 0 -1049 -240 -1572 q -240 -523 -720 -523 m 0 -545 q 770 0 1175 676 q 405 676 405 1963 q 0 1284 -405 1960 q -405 676 -1175 676 q -770 0 -1175 -676 q -405 -676 -405 -1960 q 0 -1287 405 -1963 q 405 -676 1175 -676 Z M 622312 219761 l 0 1890 l -521 0 l 0 -1890 l 521 0 m 1158 0 l 0 1890 l -518 0 l 0 -1890 l 518 0 Z M 629511 221031 l -1243 1856 l 1304 1958 l -664 0 l -998 -1499 l -1001 1499 l -664 0 l 1335 -1996 l -1223 -1819 l 668 0 l 909 1359 l 909 -1359 l 668 0 Z M 632549 224266 l 1012 0 l 0 -3879 l -1103 245 l 0 -627 l 1097 -245 l 620 0 l 0 4506 l 1012 0 l 0 579 l -2636 0 l 0 -579 Z M 637757 222431 q -443 0 -695 262 q -252 262 -252 722 q 0 460 252 722 q 252 262 695 262 q 443 0 696 -264 q 254 -264 254 -720 q 0 -460 -254 -722 q -254 -262 -696 -262 m -620 -293 q -398 -109 -620 -412 q -221 -303 -221 -739 q 0 -610 390 -964 q 390 -354 1071 -354 q 685 0 1073 354 q 388 354 388 964 q 0 436 -221 739 q -221 303 -616 412 q 446 116 696 453 q 250 337 250 824 q 0 739 -407 1134 q -407 395 -1163 395 q -756 0 -1163 -395 q -407 -395 -407 -1134 q 0 -487 252 -824 q 252 -337 698 -453 m -225 -1086 q 0 395 221 616 q 221 221 623 221 q 398 0 623 -221 q 225 -221 225 -616 q 0 -395 -225 -616 q -225 -221 -623 -221 q -402 0 -623 221 q -221 221 -221 616 Z M 640877 219761 l 0 1890 l -521 0 l 0 -1890 l 521 0 Z M 641783 222656 l 1652 0 l 0 559 l -1652 0 l 0 -559 Z M 645812 222029 q -416 0 -659 317 q -244 317 -244 868 q 0 548 244 867 q 244 318 659 318 q 419 0 662 -318 q 244 -318 244 -867 q 0 -552 -244 -868 q -244 -317 -662 -317 m 1229 -2156 l 0 627 q -232 -123 -470 -187 q -238 -65 -470 -65 q -613 0 -937 460 q -324 460 -368 1390 q 181 -296 453 -455 q 272 -158 599 -158 q 691 0 1092 465 q 400 465 400 1265 q 0 783 -417 1257 q -417 473 -1112 473 q -794 0 -1212 -676 q -419 -676 -419 -1960 q 0 -1206 514 -1923 q 514 -717 1383 -717 q 232 0 470 51 q 238 51 494 153 Z M 648856 219761 l 0 1890 l -521 0 l 0 -1890 l 521 0 m 1158 0 l 0 1890 l -518 0 l 0 -1890 l 518 0 Z" class="C4" /><path d="M 603554 205614 q -324 615 -480 1218 q -157 602 -157 1220 q 0 618 158 1224 q 158 606 479 1219 l -385 0 q -364 -629 -543 -1236 q -179 -607 -179 -1207 q 0 -597 179 -1202 q 179 -605 543 -1236 l 385 0 Z M 606586 205908 l 0 527 q -276 -147 -522 -219 q -246 -72 -474 -72 q -399 0 -614 171 q -215 171 -215 487 q 0 265 143 400 q 143 135 545 218 l 292 67 q 546 115 804 405 q 258 290 258 777 q 0 581 -349 880 q -349 300 -1026 300 q -257 0 -545 -64 q -288 -64 -595 -190 l 0 -557 q 297 185 581 278 q 284 94 559 94 q 415 0 642 -182 q 227 -182 227 -519 q 0 -294 -163 -460 q -163 -166 -535 -249 l -294 -64 q -546 -120 -788 -377 q -242 -257 -242 -714 q 0 -530 336 -835 q 336 -305 925 -305 q 254 0 516 51 q 262 51 535 153 Z M 607544 205609 l 442 0 l 0 4164 l -442 0 l 0 -4164 Z M 610139 208266 q -538 0 -745 136 q -207 136 -207 466 q 0 262 155 416 q 155 154 423 154 q 369 0 591 -290 q 222 -290 222 -772 l 0 -110 l -439 0 m 883 -203 l 0 1710 l -444 0 l 0 -455 q -150 273 -376 403 q -226 130 -555 130 q -415 0 -658 -258 q -244 -258 -244 -692 q 0 -506 304 -763 q 304 -257 909 -257 l 621 0 l 0 -48 q 0 -340 -201 -526 q -201 -186 -565 -186 q -230 0 -450 62 q -219 62 -423 185 l 0 -455 q 244 -104 472 -157 q 229 -52 446 -52 q 586 0 875 337 q 289 337 289 1022 Z M 612374 205924 l 0 851 l 913 0 l 0 383 l -913 0 l 0 1627 q 0 367 90 471 q 90 104 365 104 l 458 0 l 0 412 l -458 0 q -511 0 -706 -213 q -195 -213 -195 -775 l 0 -1627 l -324 0 l 0 -383 l 324 0 l 0 -851 l 447 0 Z M 616174 208151 l 0 241 l -2039 0 q 29 508 277 775 q 248 266 686 266 q 257 0 496 -70 q 240 -70 475 -209 l 0 466 q -238 112 -488 171 q -250 59 -507 59 q -648 0 -1024 -417 q -376 -417 -376 -1129 q 0 -736 357 -1168 q 357 -432 965 -432 q 543 0 860 389 q 317 389 317 1058 m -444 -145 q -5 -404 -203 -645 q -198 -241 -524 -241 q -372 0 -595 233 q -223 233 -256 656 l 1579 -3 Z M 617014 209093 l 508 0 l 0 460 l -396 856 l -310 0 l 198 -856 l 0 -460 Z M 621253 206310 l -661 1988 l 1325 0 l -664 -1988 m -276 -533 l 554 0 l 1370 3995 l -506 0 l -329 -1025 l -1622 0 l -326 1025 l -514 0 l 1373 -3995 Z M 624967 207236 q -75 -48 -163 -71 q -88 -23 -193 -23 q -377 0 -578 272 q -201 272 -201 780 l 0 1579 l -447 0 l 0 -2997 l 447 0 l 0 466 q 139 -273 364 -405 q 225 -132 543 -132 q 45 0 102 7 q 56 7 123 20 l 3 506 Z M 627370 206890 l 0 460 q -187 -115 -376 -173 q -189 -58 -381 -58 q -434 0 -672 304 q -238 304 -238 852 q 0 549 238 852 q 238 304 672 304 q 193 0 381 -58 q 189 -58 376 -173 l 0 455 q -185 96 -384 145 q -199 48 -421 48 q -610 0 -969 -425 q -359 -425 -359 -1148 q 0 -733 363 -1153 q 363 -420 991 -420 q 206 0 401 47 q 195 47 377 140 Z M 630383 207963 l 0 1809 l -444 0 l 0 -1793 q 0 -425 -150 -637 q -150 -211 -447 -211 q -359 0 -566 254 q -207 254 -207 693 l 0 1694 l -447 0 l 0 -4164 l 447 0 l 0 1632 q 158 -270 373 -404 q 215 -134 499 -134 q 463 0 702 320 q 240 320 240 941 Z M 633573 208151 l 0 241 l -2039 0 q 29 508 277 775 q 248 266 686 266 q 257 0 496 -70 q 240 -70 475 -209 l 0 466 q -238 112 -488 171 q -250 59 -507 59 q -648 0 -1024 -417 q -376 -417 -376 -1129 q 0 -736 357 -1168 q 357 -432 965 -432 q 543 0 860 389 q 317 389 317 1058 m -444 -145 q -5 -404 -203 -645 q -198 -241 -524 -241 q -372 0 -595 233 q -223 233 -256 656 l 1579 -3 Z M 636075 207230 l 0 -1622 l 444 0 l 0 4164 l -444 0 l 0 -450 q -139 268 -352 397 q -213 130 -512 130 q -490 0 -796 -434 q -306 -434 -306 -1140 q 0 -706 306 -1140 q 306 -434 796 -434 q 300 0 512 130 q 213 130 352 397 m -1509 1046 q 0 543 201 852 q 201 309 551 309 q 353 0 555 -309 q 202 -309 202 -852 q 0 -543 -202 -852 q -202 -309 -555 -309 q -351 0 -551 309 q -201 309 -201 852 Z M 638695 205777 l 492 0 l 755 3377 l 755 -3377 l 546 0 l 757 3377 l 755 -3377 l 492 0 l -902 3995 l -613 0 l -757 -3468 l -768 3468 l -610 0 l -902 -3995 Z M 643873 206775 l 442 0 l 0 2997 l -442 0 l 0 -2997 m 0 -1167 l 442 0 l 0 624 l -442 0 l 0 -624 Z M 647486 207963 l 0 1809 l -444 0 l 0 -1793 q 0 -425 -150 -637 q -150 -211 -447 -211 q -359 0 -566 254 q -207 254 -207 693 l 0 1694 l -447 0 l 0 -2997 l 447 0 l 0 466 q 158 -270 373 -404 q 215 -134 499 -134 q 463 0 702 320 q 240 320 240 941 Z M 648299 205614 l 385 0 q 361 632 541 1236 q 179 605 179 1202 q 0 599 -179 1207 q -179 607 -541 1236 l -385 0 q 318 -613 476 -1219 q 158 -606 158 -1224 q 0 -618 -158 -1220 q -158 -602 -476 -1218 Z" class="C4" /><path d="M 710976 90338 l 169496 0 l 0 268772 l -169496 0 l 0 -268772" class="C2" /><path d="M 760763 235958 l 0 6590 l 1243 0 q 1578 0 2313 -795 q 735 -795 735 -2509 q 0 -1703 -735 -2495 q -735 -792 -2313 -792 l -1243 0 m -1033 -942 l 2117 0 q 2219 0 3255 1025 q 1036 1025 1036 3204 q 0 2191 -1042 3218 q -1042 1027 -3250 1027 l -2117 0 l 0 -8475 Z M 767785 235015 l 1033 0 l 0 8475 l -1033 0 l 0 -8475 Z M 770867 235015 l 1391 0 l 3383 7090 l 0 -7090 l 999 0 l 0 8475 l -1391 0 l -3383 -7090 l 0 7090 l -999 0 l 0 -8475 Z M 778689 235015 l 1033 0 l 0 8475 l -1033 0 l 0 -8475 Z M 781771 235015 l 1391 0 l 3383 7090 l 0 -7090 l 999 0 l 0 8475 l -1391 0 l -3383 -7090 l 0 7090 l -999 0 l 0 -8475 Z M 794793 242281 l 0 -2276 l -1686 0 l 0 -942 l 2708 0 l 0 3639 q -596 471 -1317 712 q -721 241 -1538 241 q -1788 0 -2796 -1161 q -1008 -1161 -1008 -3233 q 0 -2078 1008 -3238 q 1008 -1161 2796 -1161 q 744 0 1416 204 q 673 204 1240 602 l 0 1220 q -573 -539 -1218 -812 q -644 -272 -1354 -272 q -1396 0 -2100 868 q -704 868 -704 2588 q 0 1714 704 2583 q 704 868 2100 868 q 551 0 979 -105 q 429 -105 769 -326 Z M 804636 239517 q 335 125 647 534 q 312 409 630 1124 l 1050 2316 l -1113 0 l -976 -2174 q -375 -851 -729 -1130 q -355 -278 -968 -278 l -1124 0 l 0 3582 l -1033 0 l 0 -8475 l 2327 0 q 1311 0 1953 607 q 641 607 641 1833 q 0 800 -332 1328 q -332 528 -973 732 m -2583 -3559 l 0 3008 l 1294 0 q 749 0 1130 -383 q 380 -383 380 -1127 q 0 -744 -380 -1121 q -380 -377 -1130 -377 l -1294 0 Z M 811379 235793 q -1124 0 -1785 931 q -661 931 -661 2537 q 0 1601 661 2532 q 661 931 1785 931 q 1124 0 1782 -931 q 658 -931 658 -2532 q 0 -1606 -658 -2537 q -658 -931 -1782 -931 m 0 -931 q 1606 0 2566 1195 q 959 1195 959 3204 q 0 2004 -959 3199 q -959 1195 -2566 1195 q -1606 0 -2569 -1192 q -962 -1192 -962 -3201 q 0 -2009 962 -3204 q 962 -1195 2569 -1195 Z M 819610 235793 q -1124 0 -1785 931 q -661 931 -661 2537 q 0 1601 661 2532 q 661 931 1785 931 q 1124 0 1782 -931 q 658 -931 658 -2532 q 0 -1606 -658 -2537 q -658 -931 -1782 -931 m 0 -931 q 1606 0 2566 1195 q 959 1195 959 3204 q 0 2004 -959 3199 q -959 1195 -2566 1195 q -1606 0 -2569 -1192 q -962 -1192 -962 -3201 q 0 -2009 962 -3204 q 962 -1195 2569 -1195 Z M 824747 235015 l 1538 0 l 1947 5767 l 1953 -5767 l 1538 0 l 0 8475 l -1005 0 l 0 -7442 l -1970 5813 l -1033 0 l -1970 -5813 l 0 7442 l -999 0 l 0 -8475 Z" class="C3" /><path d="M 773808 224266 l 1012 0 l 0 -3879 l -1103 245 l 0 -627 l 1097 -245 l 620 0 l 0 4506 l 1012 0 l 0 579 l -2636 0 l 0 -579 Z M 777799 224266 l 1012 0 l 0 -3879 l -1103 245 l 0 -627 l 1097 -245 l 620 0 l 0 4506 l 1012 0 l 0 579 l -2636 0 l 0 -579 Z M 782135 219761 l 0 1890 l -521 0 l 0 -1890 l 521 0 Z M 783041 222656 l 1652 0 l 0 559 l -1652 0 l 0 -559 Z M 786995 222431 q -443 0 -695 262 q -252 262 -252 722 q 0 460 252 722 q 252 262 695 262 q 443 0 696 -264 q 254 -264 254 -720 q 0 -460 -254 -722 q -254 -262 -696 -262 m -620 -293 q -398 -109 -620 -412 q -221 -303 -221 -739 q 0 -610 390 -964 q 390 -354 1071 -354 q 685 0 1073 354 q 388 354 388 964 q 0 436 -221 739 q -221 303 -616 412 q 446 116 696 453 q 250 337 250 824 q 0 739 -407 1134 q -407 395 -1163 395 q -756 0 -1163 -395 q -407 -395 -407 -1134 q 0 -487 252 -824 q 252 -337 698 -453 m -225 -1086 q 0 395 221 616 q 221 221 623 221 q 398 0 623 -221 q 225 -221 225 -616 q 0 -395 -225 -616 q -225 -221 -623 -221 q -402 0 -623 221 q -221 221 -221 616 Z M 790115 219761 l 0 1890 l -521 0 l 0 -1890 l 521 0 m 1158 0 l 0 1890 l -518 0 l 0 -1890 l 518 0 Z M 797314 221031 l -1243 1856 l 1304 1958 l -664 0 l -998 -1499 l -1001 1499 l -664 0 l 1335 -1996 l -1223 -1819 l 668 0 l 909 1359 l 909 -1359 l 668 0 Z M 800352 224266 l 1012 0 l 0 -3879 l -1103 245 l 0 -627 l 1097 -245 l 620 0 l 0 4506 l 1012 0 l 0 579 l -2636 0 l 0 -579 Z M 805560 222431 q -443 0 -695 262 q -252 262 -252 722 q 0 460 252 722 q 252 262 695 262 q 443 0 696 -264 q 254 -264 254 -720 q 0 -460 -254 -722 q -254 -262 -696 -262 m -620 -293 q -398 -109 -620 -412 q -221 -303 -221 -739 q 0 -610 390 -964 q 390 -354 1071 -354 q 685 0 1073 354 q 388 354 388 964 q 0 436 -221 739 q -221 303 -616 412 q 446 116 696 453 q 250 337 250 824 q 0 739 -407 1134 q -407 395 -1163 395 q -756 0 -1163 -395 q -407 -395 -407 -1134 q 0 -487 252 -824 q 252 -337 698 -453 m -225 -1086 q 0 395 221 616 q 221 221 623 221 q 398 0 623 -221 q 225 -221 225 -616 q 0 -395 -225 -616 q -225 -221 -623 -221 q -402 0 -623 221 q -221 221 -221 616 Z M 808680 219761 l 0 1890 l -521 0 l 0 -1890 l 521 0 Z M 809586 222656 l 1652 0 l 0 559 l -1652 0 l 0 -559 Z M 813615 222029 q -416 0 -659 317 q -244 317 -244 868 q 0 548 244 867 q 244 318 659 318 q 419 0 662 -318 q 244 -318 244 -867 q 0 -552 -244 -868 q -244 -317 -662 -317 m 1229 -2156 l 0 627 q -232 -123 -470 -187 q -238 -65 -470 -65 q -613 0 -937 460 q -324 460 -368 1390 q 181 -296 453 -455 q 272 -158 599 -158 q 691 0 1092 465 q 400 465 400 1265 q 0 783 -417 1257 q -417 473 -1112 473 q -794 0 -1212 -676 q -419 -676 -419 -1960 q 0 -1206 514 -1923 q 514 -717 1383 -717 q 232 0 470 51 q 238 51 494 153 Z M 816660 219761 l 0 1890 l -521 0 l 0 -1890 l 521 0 m 1158 0 l 0 1890 l -518 0 l 0 -1890 l 518 0 Z" class="C4" /><path d="M 773402 205614 q -324 615 -480 1218 q -157 602 -157 1220 q 0 618 158 1224 q 158 606 479 1219 l -385 0 q -364 -629 -543 -1236 q -179 -607 -179 -1207 q 0 -597 179 -1202 q 179 -605 543 -1236 l 385 0 Z M 774280 205777 l 487 0 l 0 1638 l 1766 0 l 0 -1638 l 487 0 l 0 3995 l -487 0 l 0 -1903 l -1766 0 l 0 1903 l -487 0 l 0 -3995 Z M 779196 208266 q -538 0 -745 136 q -207 136 -207 466 q 0 262 155 416 q 155 154 423 154 q 369 0 591 -290 q 222 -290 222 -772 l 0 -110 l -439 0 m 883 -203 l 0 1710 l -444 0 l 0 -455 q -150 273 -376 403 q -226 130 -555 130 q -415 0 -658 -258 q -244 -258 -244 -692 q 0 -506 304 -763 q 304 -257 909 -257 l 621 0 l 0 -48 q 0 -340 -201 -526 q -201 -186 -565 -186 q -230 0 -450 62 q -219 62 -423 185 l 0 -455 q 244 -104 472 -157 q 229 -52 446 -52 q 586 0 875 337 q 289 337 289 1022 Z M 782554 207236 q -75 -48 -163 -71 q -88 -23 -193 -23 q -377 0 -578 272 q -201 272 -201 780 l 0 1579 l -447 0 l 0 -2997 l 447 0 l 0 466 q 139 -273 364 -405 q 225 -132 543 -132 q 45 0 102 7 q 56 7 123 20 l 3 506 Z M 784791 207230 l 0 -1622 l 444 0 l 0 4164 l -444 0 l 0 -450 q -139 268 -352 397 q -213 130 -512 130 q -490 0 -796 -434 q -306 -434 -306 -1140 q 0 -706 306 -1140 q 306 -434 796 -434 q 300 0 512 130 q 213 130 352 397 m -1509 1046 q 0 543 201 852 q 201 309 551 309 q 353 0 555 -309 q 202 -309 202 -852 q 0 -543 -202 -852 q -202 -309 -555 -309 q -351 0 -551 309 q -201 309 -201 852 Z M 785888 206775 l 444 0 l 554 2339 l 551 -2339 l 522 0 l 554 2339 l 551 -2339 l 444 0 l -706 2997 l -522 0 l -581 -2457 l -583 2457 l -522 0 l -706 -2997 Z M 791224 207121 q -356 0 -563 309 q -207 309 -207 847 q 0 538 206 847 q 206 309 565 309 q 356 0 562 -310 q 206 -310 206 -846 q 0 -533 -206 -844 q -206 -312 -562 -312 m 0 -417 q 578 0 909 417 q 330 417 330 1156 q 0 736 -330 1155 q -330 419 -909 419 q -581 0 -909 -419 q -328 -419 -328 -1155 q 0 -739 328 -1156 q 328 -417 909 -417 Z M 794240 207121 q -356 0 -563 309 q -207 309 -207 847 q 0 538 206 847 q 206 309 565 309 q 356 0 562 -310 q 206 -310 206 -846 q 0 -533 -206 -844 q -206 -312 -562 -312 m 0 -417 q 578 0 909 417 q 330 417 330 1156 q 0 736 -330 1155 q -330 419 -909 419 q -581 0 -909 -419 q -328 -419 -328 -1155 q 0 -739 328 -1156 q 328 -417 909 -417 Z M 797987 207230 l 0 -1622 l 444 0 l 0 4164 l -444 0 l 0 -450 q -139 268 -352 397 q -213 130 -512 130 q -490 0 -796 -434 q -306 -434 -306 -1140 q 0 -706 306 -1140 q 306 -434 796 -434 q 300 0 512 130 q 213 130 352 397 m -1509 1046 q 0 543 201 852 q 201 309 551 309 q 353 0 555 -309 q 202 -309 202 -852 q 0 -543 -202 -852 q -202 -309 -555 -309 q -351 0 -551 309 q -201 309 -201 852 Z M 799456 209093 l 508 0 l 0 460 l -396 856 l -310 0 l 198 -856 l 0 -460 Z M 805185 206085 l 0 570 q -246 -254 -524 -380 q -278 -126 -591 -126 q -615 0 -943 419 q -328 419 -328 1211 q 0 789 328 1208 q 328 419 943 419 q 313 0 591 -126 q 278 -126 524 -380 l 0 565 q -254 193 -541 289 q -286 96 -602 96 q -819 0 -1287 -555 q -468 -555 -468 -1516 q 0 -963 468 -1519 q 468 -555 1287 -555 q 321 0 607 95 q 286 95 535 285 Z M 807481 207236 q -75 -48 -163 -71 q -88 -23 -193 -23 q -377 0 -578 272 q -201 272 -201 780 l 0 1579 l -447 0 l 0 -2997 l 447 0 l 0 466 q 139 -273 364 -405 q 225 -132 543 -132 q 45 0 102 7 q 56 7 123 20 l 3 506 Z M 808988 207121 q -356 0 -563 309 q -207 309 -207 847 q 0 538 206 847 q 206 309 565 309 q 356 0 562 -310 q 206 -310 206 -846 q 0 -533 -206 -844 q -206 -312 -562 -312 m 0 -417 q 578 0 909 417 q 330 417 330 1156 q 0 736 -330 1155 q -330 419 -909 419 q -581 0 -909 -419 q -328 -419 -328 -1155 q 0 -739 328 -1156 q 328 -417 909 -417 Z M 810700 206775 l 444 0 l 554 2339 l 551 -2339 l 522 0 l 554 2339 l 551 -2339 l 444 0 l -706 2997 l -522 0 l -581 -2457 l -583 2457 l -522 0 l -706 -2997 Z M 817235 207963 l 0 1809 l -444 0 l 0 -1793 q 0 -425 -150 -637 q -150 -211 -447 -211 q -359 0 -566 254 q -207 254 -207 693 l 0 1694 l -447 0 l 0 -2997 l 447 0 l 0 466 q 158 -270 373 -404 q 215 -134 499 -134 q 463 0 702 320 q 240 320 240 941 Z M 818048 205614 l 385 0 q 361 632 541 1236 q 179 605 179 1202 q 0 599 -179 1207 q -179 607 -541 1236 l -385 0 q 318 -613 476 -1219 q 158 -606 158 -1224 q 0 -618 -158 -1220 q -158 -602 -476 -1218 Z" class="C4" /><path d="M 547230 365467 l 157389 0 l 0 167075 l -157389 0 l 0 -167075" class="C2" /><path d="M 603989 459295 l 1033 0 l 0 3582 l 3423 -3582 l 1328 0 l -3786 3951 l 4053 4524 l -1357 0 l -3661 -4081 l 0 4081 l -1033 0 l 0 -8475 Z M 610846 459295 l 1033 0 l 0 8475 l -1033 0 l 0 -8475 Z M 612878 459295 l 6448 0 l 0 965 l -2708 0 l 0 7510 l -1033 0 l 0 -7510 l -2708 0 l 0 -965 Z M 626024 459948 l 0 1209 q -522 -539 -1113 -806 q -590 -267 -1254 -267 q -1306 0 -2001 888 q -695 888 -695 2569 q 0 1675 695 2563 q 695 888 2001 888 q 664 0 1254 -267 q 590 -267 1113 -806 l 0 1198 q -539 409 -1147 613 q -607 204 -1277 204 q -1737 0 -2730 -1178 q -993 -1178 -993 -3216 q 0 -2043 993 -3221 q 993 -1178 2730 -1178 q 681 0 1289 202 q 607 202 1135 605 Z M 627620 459295 l 1033 0 l 0 3474 l 3746 0 l 0 -3474 l 1033 0 l 0 8475 l -1033 0 l 0 -4036 l -3746 0 l 0 4036 l -1033 0 l 0 -8475 Z M 635487 459295 l 4819 0 l 0 965 l -3786 0 l 0 2509 l 3633 0 l 0 965 l -3633 0 l 0 3071 l 3883 0 l 0 965 l -4916 0 l 0 -8475 Z M 642094 459295 l 1391 0 l 3383 7090 l 0 -7090 l 999 0 l 0 8475 l -1391 0 l -3383 -7090 l 0 7090 l -999 0 l 0 -8475 Z" class="C3" /><path d="M 621139 429894 q -324 615 -480 1218 q -157 602 -157 1220 q 0 618 158 1224 q 158 606 479 1219 l -385 0 q -364 -629 -543 -1236 q -179 -607 -179 -1207 q 0 -597 179 -1202 q 179 -605 543 -1236 l 385 0 Z M 621522 430057 l 3040 0 l 0 455 l -1276 0 l 0 3540 l -487 0 l 0 -3540 l -1276 0 l 0 -455 Z M 625009 431055 l 442 0 l 0 2997 l -442 0 l 0 -2997 m 0 -1167 l 442 0 l 0 624 l -442 0 l 0 -624 Z M 626379 429888 l 442 0 l 0 4164 l -442 0 l 0 -4164 Z M 630056 432431 l 0 241 l -2039 0 q 29 508 277 775 q 248 266 686 266 q 257 0 496 -70 q 240 -70 475 -209 l 0 466 q -238 112 -488 171 q -250 59 -507 59 q -648 0 -1024 -417 q -376 -417 -376 -1129 q 0 -736 357 -1168 q 357 -432 965 -432 q 543 0 860 389 q 317 389 317 1058 m -444 -145 q -5 -404 -203 -645 q -198 -241 -524 -241 q -372 0 -595 233 q -223 233 -256 656 l 1579 -3 Z M 630714 429894 l 385 0 q 361 632 541 1236 q 179 605 179 1202 q 0 599 -179 1207 q -179 607 -541 1236 l -385 0 q 318 -613 476 -1219 q 158 -606 158 -1224 q 0 -618 -158 -1220 q -158 -602 -476 -1218 Z" class="C4" /><path d="M 372892 590957 l 174339 0 l 0 174339 l -174339 0 l 0 -174339" class="C2" /><path d="M 450880 689360 l 0 6590 l 1243 0 q 1578 0 2313 -795 q 735 -795 735 -2509 q 0 -1703 -735 -2495 q -735 -792 -2313 -792 l -1243 0 m -1033 -942 l 2117 0 q 2219 0 3255 1025 q 1036 1025 1036 3204 q 0 2191 -1042 3218 q -1042 1027 -3250 1027 l -2117 0 l 0 -8475 Z M 457901 688417 l 4819 0 l 0 965 l -3786 0 l 0 2509 l 3633 0 l 0 965 l -3633 0 l 0 3071 l 3883 0 l 0 965 l -4916 0 l 0 -8475 Z M 464508 688417 l 1391 0 l 3383 7090 l 0 -7090 l 999 0 l 0 8475 l -1391 0 l -3383 -7090 l 0 7090 l -999 0 l 0 -8475 Z" class="C3" /><path d="M 438145 677669 l 1012 0 l 0 -3879 l -1103 245 l 0 -627 l 1097 -245 l 620 0 l 0 4506 l 1012 0 l 0 579 l -2636 0 l 0 -579 Z M 442562 677669 l 2159 0 l 0 579 l -2905 0 l 0 -579 q 351 -405 960 -1088 q 610 -683 766 -880 q 296 -371 414 -628 q 118 -257 118 -506 q 0 -405 -255 -661 q -255 -255 -668 -255 q -289 0 -613 112 q -324 112 -691 341 l 0 -695 q 375 -167 700 -252 q 325 -85 594 -85 q 712 0 1134 395 q 422 395 422 1056 q 0 313 -106 594 q -106 281 -385 662 q -78 99 -489 570 q -410 472 -1156 1320 Z M 446472 673163 l 0 1890 l -521 0 l 0 -1890 l 521 0 Z M 447378 676058 l 1652 0 l 0 559 l -1652 0 l 0 -559 Z M 451332 673616 q -477 0 -719 523 q -242 523 -242 1572 q 0 1046 242 1568 q 242 523 719 523 q 480 0 720 -523 q 240 -523 240 -1568 q 0 -1049 -240 -1572 q -240 -523 -720 -523 m 0 -545 q 770 0 1175 676 q 405 676 405 1963 q 0 1284 -405 1960 q -405 676 -1175 676 q -770 0 -1175 -676 q -405 -676 -405 -1960 q 0 -1287 405 -1963 q 405 -676 1175 -676 Z M 454452 673163 l 0 1890 l -521 0 l 0 -1890 l 521 0 m 1158 0 l 0 1890 l -518 0 l 0 -1890 l 518 0 Z M 461652 674433 l -1243 1856 l 1304 1958 l -664 0 l -998 -1499 l -1001 1499 l -664 0 l 1335 -1996 l -1223 -1819 l 668 0 l 909 1359 l 909 -1359 l 668 0 Z M 464690 677669 l 1012 0 l 0 -3879 l -1103 245 l 0 -627 l 1097 -245 l 620 0 l 0 4506 l 1012 0 l 0 579 l -2636 0 l 0 -579 Z M 469107 677669 l 2159 0 l 0 579 l -2905 0 l 0 -579 q 351 -405 960 -1088 q 610 -683 766 -880 q 296 -371 414 -628 q 118 -257 118 -506 q 0 -405 -255 -661 q -255 -255 -668 -255 q -289 0 -613 112 q -324 112 -691 341 l 0 -695 q 375 -167 700 -252 q 325 -85 594 -85 q 712 0 1134 395 q 422 395 422 1056 q 0 313 -106 594 q -106 281 -385 662 q -78 99 -489 570 q -410 472 -1156 1320 Z M 473017 673163 l 0 1890 l -521 0 l 0 -1890 l 521 0 Z M 473923 676058 l 1652 0 l 0 559 l -1652 0 l 0 -559 Z M 477877 673616 q -477 0 -719 523 q -242 523 -242 1572 q 0 1046 242 1568 q 242 523 719 523 q 480 0 720 -523 q 240 -523 240 -1568 q 0 -1049 -240 -1572 q -240 -523 -720 -523 m 0 -545 q 770 0 1175 676 q 405 676 405 1963 q 0 1284 -405 1960 q -405 676 -1175 676 q -770 0 -1175 -676 q -405 -676 -405 -1960 q 0 -1287 405 -1963 q 405 -676 1175 -676 Z M 480997 673163 l 0 1890 l -521 0 l 0 -1890 l 521 0 m 1158 0 l 0 1890 l -518 0 l 0 -1890 l 518 0 Z" class="C4" /><path d="M 447127 659016 q -324 615 -480 1218 q -157 602 -157 1220 q 0 618 158 1224 q 158 606 479 1219 l -385 0 q -364 -629 -543 -1236 q -179 -607 -179 -1207 q 0 -597 179 -1202 q 179 -605 543 -1236 l 385 0 Z M 448004 659179 l 487 0 l 0 1638 l 1766 0 l 0 -1638 l 487 0 l 0 3995 l -487 0 l 0 -1903 l -1766 0 l 0 1903 l -487 0 l 0 -3995 Z M 452920 661668 q -538 0 -745 136 q -207 136 -207 466 q 0 262 155 416 q 155 154 423 154 q 369 0 591 -290 q 222 -290 222 -772 l 0 -110 l -439 0 m 883 -203 l 0 1710 l -444 0 l 0 -455 q -150 273 -376 403 q -226 130 -555 130 q -415 0 -658 -258 q -244 -258 -244 -692 q 0 -506 304 -763 q 304 -257 909 -257 l 621 0 l 0 -48 q 0 -340 -201 -526 q -201 -186 -565 -186 q -230 0 -450 62 q -219 62 -423 185 l 0 -455 q 244 -104 472 -157 q 229 -52 446 -52 q 586 0 875 337 q 289 337 289 1022 Z M 456278 660638 q -75 -48 -163 -71 q -88 -23 -193 -23 q -377 0 -578 272 q -201 272 -201 780 l 0 1579 l -447 0 l 0 -2997 l 447 0 l 0 466 q 139 -273 364 -405 q 225 -132 543 -132 q 45 0 102 7 q 56 7 123 20 l 3 506 Z M 458516 660632 l 0 -1622 l 444 0 l 0 4164 l -444 0 l 0 -450 q -139 268 -352 397 q -213 130 -512 130 q -490 0 -796 -434 q -306 -434 -306 -1140 q 0 -706 306 -1140 q 306 -434 796 -434 q 300 0 512 130 q 213 130 352 397 m -1509 1046 q 0 543 201 852 q 201 309 551 309 q 353 0 555 -309 q 202 -309 202 -852 q 0 -543 -202 -852 q -202 -309 -555 -309 q -351 0 -551 309 q -201 309 -201 852 Z M 459613 660178 l 444 0 l 554 2339 l 551 -2339 l 522 0 l 554 2339 l 551 -2339 l 444 0 l -706 2997 l -522 0 l -581 -2457 l -583 2457 l -522 0 l -706 -2997 Z M 464949 660523 q -356 0 -563 309 q -207 309 -207 847 q 0 538 206 847 q 206 309 565 309 q 356 0 562 -310 q 206 -310 206 -846 q 0 -533 -206 -844 q -206 -312 -562 -312 m 0 -417 q 578 0 909 417 q 330 417 330 1156 q 0 736 -330 1155 q -330 419 -909 419 q -581 0 -909 -419 q -328 -419 -328 -1155 q 0 -739 328 -1156 q 328 -417 909 -417 Z M 467965 660523 q -356 0 -563 309 q -207 309 -207 847 q 0 538 206 847 q 206 309 565 309 q 356 0 562 -310 q 206 -310 206 -846 q 0 -533 -206 -844 q -206 -312 -562 -312 m 0 -417 q 578 0 909 417 q 330 417 330 1156 q 0 736 -330 1155 q -330 419 -909 419 q -581 0 -909 -419 q -328 -419 -328 -1155 q 0 -739 328 -1156 q 328 -417 909 -417 Z M 471711 660632 l 0 -1622 l 444 0 l 0 4164 l -444 0 l 0 -450 q -139 268 -352 397 q -213 130 -512 130 q -490 0 -796 -434 q -306 -434 -306 -1140 q 0 -706 306 -1140 q 306 -434 796 -434 q 300 0 512 130 q 213 130 352 397 m -1509 1046 q 0 543 201 852 q 201 309 551 309 q 353 0 555 -309 q 202 -309 202 -852 q 0 -543 -202 -852 q -202 -309 -555 -309 q -351 0 -551 309 q -201 309 -201 852 Z M 472998 659016 l 385 0 q 361 632 541 1236 q 179 605 179 1202 q 0 599 -179 1207 q -179 607 -541 1236 l -385 0 q 318 -613 476 -1219 q 158 -606 158 -1224 q 0 -618 -158 -1220 q -158 -602 -476 -1218 Z" class="C4" /><path d="M 710976 365467 l 169496 0" class="C2" /><path d="M 710976 365467 l 0 167075" class="C2" /><path d="M 880472 365467 l 0 167075" class="C2" /><path d="M 768061 458287 l 0 2730 l 1109 0 q 618 0 956 -355 q 338 -355 338 -1012 q 0 -652 -338 -1007 q -338 -355 -956 -355 l -1109 0 m -886 -808 l 1995 0 q 1100 0 1662 552 q 562 552 562 1618 q 0 1075 -562 1625 q -562 550 -1662 550 l -1109 0 l 0 2919 l -886 0 l 0 -7264 Z M 772581 457479 l 886 0 l 0 7264 l -886 0 l 0 -7264 Z M 777408 458447 l -1202 3615 l 2408 0 l -1207 -3615 m -501 -968 l 1007 0 l 2491 7264 l -920 0 l -598 -1863 l -2948 0 l -594 1863 l -934 0 l 2496 -7264 Z M 781354 457479 l 1192 0 l 2900 6077 l 0 -6077 l 856 0 l 0 7264 l -1192 0 l -2900 -6077 l 0 6077 l -856 0 l 0 -7264 Z M 790710 458146 q -963 0 -1530 798 q -567 798 -567 2175 q 0 1372 567 2170 q 567 798 1530 798 q 963 0 1528 -798 q 564 -798 564 -2170 q 0 -1377 -564 -2175 q -564 -798 -1528 -798 m 0 -798 q 1377 0 2199 1024 q 822 1024 822 2747 q 0 1718 -822 2742 q -822 1024 -2199 1024 q -1377 0 -2202 -1022 q -825 -1022 -825 -2744 q 0 -1722 825 -2747 q 825 -1024 2202 -1024 Z M 801059 461337 q 287 107 555 457 q 268 350 540 963 l 900 1985 l -954 0 l -837 -1863 q -321 -730 -625 -968 q -304 -238 -830 -238 l -963 0 l 0 3070 l -886 0 l 0 -7264 l 1995 0 q 1124 0 1674 521 q 550 521 550 1572 q 0 686 -285 1139 q -285 452 -834 628 m -2214 -3051 l 0 2579 l 1109 0 q 642 0 968 -328 q 326 -328 326 -966 q 0 -637 -326 -961 q -326 -324 -968 -324 l -1109 0 Z M 806839 458146 q -963 0 -1530 798 q -567 798 -567 2175 q 0 1372 567 2170 q 567 798 1530 798 q 963 0 1528 -798 q 564 -798 564 -2170 q 0 -1377 -564 -2175 q -564 -798 -1528 -798 m 0 -798 q 1377 0 2199 1024 q 822 1024 822 2747 q 0 1718 -822 2742 q -822 1024 -2199 1024 q -1377 0 -2202 -1022 q -825 -1022 -825 -2744 q 0 -1722 825 -2747 q 825 -1024 2202 -1024 Z M 813894 458146 q -963 0 -1530 798 q -567 798 -567 2175 q 0 1372 567 2170 q 567 798 1530 798 q 963 0 1528 -798 q 564 -798 564 -2170 q 0 -1377 -564 -2175 q -564 -798 -1528 -798 m 0 -798 q 1377 0 2199 1024 q 822 1024 822 2747 q 0 1718 -822 2742 q -822 1024 -2199 1024 q -1377 0 -2202 -1022 q -825 -1022 -825 -2744 q 0 -1722 825 -2747 q 825 -1024 2202 -1024 Z M 818297 457479 l 1319 0 l 1669 4943 l 1674 -4943 l 1319 0 l 0 7264 l -861 0 l 0 -6379 l -1688 4982 l -886 0 l -1688 -4982 l 0 6379 l -856 0 l 0 -7264 Z" class="C3" /><path d="M 774851 446031 l 963 0 l 0 -3695 l -1051 234 l 0 -597 l 1044 -234 l 590 0 l 0 4291 l 963 0 l 0 551 l -2511 0 l 0 -551 Z M 778653 446031 l 963 0 l 0 -3695 l -1051 234 l 0 -597 l 1044 -234 l 590 0 l 0 4291 l 963 0 l 0 551 l -2511 0 l 0 -551 Z M 782782 441740 l 0 1800 l -496 0 l 0 -1800 l 496 0 Z M 783645 444497 l 1573 0 l 0 532 l -1573 0 l 0 -532 Z M 787411 444283 q -422 0 -662 250 q -240 250 -240 688 q 0 438 240 688 q 240 250 662 250 q 422 0 663 -251 q 242 -251 242 -686 q 0 -438 -242 -688 q -242 -250 -663 -250 m -590 -279 q -380 -104 -590 -392 q -211 -289 -211 -704 q 0 -581 371 -918 q 371 -337 1020 -337 q 652 0 1022 337 q 370 337 370 918 q 0 415 -211 704 q -211 289 -587 392 q 425 110 663 431 q 238 321 238 785 q 0 704 -388 1080 q -388 376 -1108 376 q -720 0 -1108 -376 q -388 -376 -388 -1080 q 0 -464 240 -785 q 240 -321 665 -431 m -214 -1035 q 0 376 211 587 q 211 211 594 211 q 380 0 594 -211 q 214 -211 214 -587 q 0 -376 -214 -587 q -214 -211 -594 -211 q -383 0 -594 211 q -211 211 -211 587 Z M 790382 441740 l 0 1800 l -496 0 l 0 -1800 l 496 0 m 1103 0 l 0 1800 l -493 0 l 0 -1800 l 493 0 Z M 797239 442950 l -1184 1768 l 1242 1865 l -633 0 l -950 -1427 l -954 1427 l -633 0 l 1272 -1901 l -1164 -1732 l 636 0 l 866 1294 l 866 -1294 l 636 0 Z M 800132 446031 l 963 0 l 0 -3695 l -1051 234 l 0 -597 l 1044 -234 l 590 0 l 0 4291 l 963 0 l 0 551 l -2511 0 l 0 -551 Z M 803934 446031 l 963 0 l 0 -3695 l -1051 234 l 0 -597 l 1044 -234 l 590 0 l 0 4291 l 963 0 l 0 551 l -2511 0 l 0 -551 Z M 808063 441740 l 0 1800 l -496 0 l 0 -1800 l 496 0 Z M 808926 444497 l 1573 0 l 0 532 l -1573 0 l 0 -532 Z M 812763 443900 q -396 0 -628 302 q -232 302 -232 827 q 0 522 232 826 q 232 303 628 303 q 399 0 631 -303 q 232 -303 232 -826 q 0 -525 -232 -827 q -232 -302 -631 -302 m 1171 -2053 l 0 597 q -221 -117 -448 -178 q -227 -62 -448 -62 q -584 0 -892 438 q -308 438 -350 1323 q 172 -282 431 -433 q 259 -151 571 -151 q 658 0 1040 443 q 381 443 381 1205 q 0 746 -397 1197 q -397 451 -1059 451 q -756 0 -1155 -644 q -399 -644 -399 -1867 q 0 -1148 490 -1831 q 490 -683 1317 -683 q 221 0 448 49 q 227 49 470 146 Z M 815663 441740 l 0 1800 l -496 0 l 0 -1800 l 496 0 m 1103 0 l 0 1800 l -493 0 l 0 -1800 l 493 0 Z" class="C4" /><path d="M 586275 823409 l 294197 0" class="C2" /><path d="M 586275 538898 l 0 284511" class="C2" /><path d="M 880472 538898 l 0 284511" class="C2" /><path d="M 586275 538898 l 124701 0" class="C2" /><path d="M 693895 693260 l 1181 0 l 0 8583 l 4243 0 l 0 1103 l -5423 0 l 0 -9685 Z M 700551 693260 l 1181 0 l 0 9685 l -1181 0 l 0 -9685 Z M 706318 702946 l -3328 -9685 l 1233 0 l 2764 8154 l 2770 -8154 l 1226 0 l -3321 9685 l -1343 0 Z M 712248 693260 l 1181 0 l 0 9685 l -1181 0 l 0 -9685 Z M 715770 693260 l 1589 0 l 3866 8103 l 0 -8103 l 1142 0 l 0 9685 l -1589 0 l -3866 -8103 l 0 8103 l -1142 0 l 0 -9685 Z M 730652 701564 l 0 -2601 l -1927 0 l 0 -1077 l 3094 0 l 0 4158 q -681 538 -1505 814 q -824 276 -1758 276 q -2043 0 -3195 -1327 q -1151 -1327 -1151 -3695 q 0 -2374 1151 -3701 q 1151 -1327 3195 -1327 q 850 0 1619 234 q 769 234 1417 688 l 0 1395 q -655 -616 -1392 -928 q -736 -311 -1547 -311 q -1596 0 -2400 993 q -804 993 -804 2958 q 0 1959 804 2952 q 804 993 2400 993 q 629 0 1119 -120 q 490 -120 879 -373 Z M 741901 698405 q 383 143 740 610 q 357 467 720 1284 l 1200 2647 l -1272 0 l -1116 -2485 q -428 -973 -834 -1291 q -405 -318 -1106 -318 l -1284 0 l 0 4093 l -1181 0 l 0 -9685 l 2660 0 q 1499 0 2232 694 q 733 694 733 2095 q 0 915 -380 1518 q -380 603 -1113 837 m -2952 -4068 l 0 3438 l 1479 0 q 856 0 1291 -438 q 435 -438 435 -1288 q 0 -850 -435 -1281 q -435 -431 -1291 -431 l -1479 0 Z M 749608 694149 q -1284 0 -2040 1064 q -756 1064 -756 2900 q 0 1829 756 2893 q 756 1064 2040 1064 q 1284 0 2037 -1064 q 753 -1064 753 -2893 q 0 -1836 -753 -2900 q -753 -1064 -2037 -1064 m 0 -1064 q 1836 0 2932 1366 q 1096 1366 1096 3662 q 0 2290 -1096 3656 q -1096 1366 -2932 1366 q -1836 0 -2935 -1362 q -1100 -1362 -1100 -3659 q 0 -2296 1100 -3662 q 1100 -1366 2935 -1366 Z M 759015 694149 q -1284 0 -2040 1064 q -756 1064 -756 2900 q 0 1829 756 2893 q 756 1064 2040 1064 q 1284 0 2037 -1064 q 753 -1064 753 -2893 q 0 -1836 -753 -2900 q -753 -1064 -2037 -1064 m 0 -1064 q 1836 0 2932 1366 q 1096 1366 1096 3662 q 0 2290 -1096 3656 q -1096 1366 -2932 1366 q -1836 0 -2935 -1362 q -1100 -1362 -1100 -3659 q 0 -2296 1100 -3662 q 1100 -1366 2935 -1366 Z M 764885 693260 l 1758 0 l 2225 6591 l 2232 -6591 l 1758 0 l 0 9685 l -1148 0 l 0 -8505 l -2251 6643 l -1181 0 l -2251 -6643 l 0 8505 l -1142 0 l 0 -9685 Z" class="C3" /><path d="M 712642 680913 l 0 606 q -320 269 -594 385 q -274 116 -574 116 q -337 0 -783 -201 q -34 -14 -51 -20 q -20 -10 -65 -27 q -477 -211 -763 -211 q -272 0 -535 131 q -262 131 -565 414 l 0 -606 q 324 -269 598 -387 q 274 -118 570 -118 q 337 0 790 204 q 27 14 44 20 q 24 10 68 27 q 473 211 763 211 q 262 0 521 -129 q 259 -129 576 -416 Z M 714512 683117 l 2159 0 l 0 579 l -2905 0 l 0 -579 q 351 -405 960 -1088 q 610 -683 766 -880 q 296 -371 414 -628 q 118 -257 118 -506 q 0 -405 -255 -661 q -255 -255 -668 -255 q -289 0 -613 112 q -324 112 -691 341 l 0 -695 q 375 -167 700 -252 q 325 -85 594 -85 q 712 0 1134 395 q 422 395 422 1056 q 0 313 -106 594 q -106 281 -385 662 q -78 99 -489 570 q -410 472 -1156 1320 Z M 719294 679064 q -477 0 -719 523 q -242 523 -242 1572 q 0 1046 242 1568 q 242 523 719 523 q 480 0 720 -523 q 240 -523 240 -1568 q 0 -1049 -240 -1572 q -240 -523 -720 -523 m 0 -545 q 770 0 1175 676 q 405 676 405 1963 q 0 1284 -405 1960 q -405 676 -1175 676 q -770 0 -1175 -676 q -405 -676 -405 -1960 q 0 -1287 405 -1963 q 405 -676 1175 -676 Z M 722414 678611 l 0 1890 l -521 0 l 0 -1890 l 521 0 Z M 723320 681506 l 1652 0 l 0 559 l -1652 0 l 0 -559 Z M 727826 680954 q 443 106 693 439 q 250 334 250 824 q 0 753 -465 1165 q -465 412 -1323 412 q -289 0 -594 -63 q -305 -63 -632 -189 l 0 -664 q 259 167 565 252 q 307 85 640 85 q 582 0 887 -255 q 305 -255 305 -742 q 0 -450 -283 -703 q -283 -254 -790 -254 l -531 0 l 0 -565 l 555 0 q 456 0 700 -203 q 244 -203 244 -584 q 0 -392 -250 -601 q -250 -209 -717 -209 q -255 0 -545 61 q -289 61 -640 191 l 0 -613 q 351 -109 659 -163 q 308 -54 581 -54 q 705 0 1117 356 q 412 356 412 962 q 0 422 -218 714 q -218 291 -620 404 Z M 730393 678611 l 0 1890 l -521 0 l 0 -1890 l 521 0 m 1158 0 l 0 1890 l -518 0 l 0 -1890 l 518 0 Z M 737593 679881 l -1243 1856 l 1304 1958 l -664 0 l -998 -1499 l -1001 1499 l -664 0 l 1335 -1996 l -1223 -1819 l 668 0 l 909 1359 l 909 -1359 l 668 0 Z M 740631 683117 l 1012 0 l 0 -3879 l -1103 245 l 0 -627 l 1097 -245 l 620 0 l 0 4506 l 1012 0 l 0 579 l -2636 0 l 0 -579 Z M 744531 683590 l 0 -627 q 235 123 473 187 q 238 65 470 65 q 613 0 937 -458 q 324 -458 368 -1391 q -177 293 -450 450 q -272 157 -603 157 q -688 0 -1088 -461 q -400 -461 -400 -1262 q 0 -783 417 -1257 q 417 -473 1109 -473 q 794 0 1212 676 q 419 676 419 1963 q 0 1202 -513 1919 q -513 717 -1381 717 q -235 0 -473 -51 q -238 -51 -497 -153 m 1233 -2156 q 419 0 662 -317 q 244 -317 244 -868 q 0 -548 -244 -867 q -244 -318 -662 -318 q -416 0 -659 318 q -244 318 -244 867 q 0 552 244 868 q 244 317 659 317 Z M 748959 678611 l 0 1890 l -521 0 l 0 -1890 l 521 0 Z M 749865 681506 l 1652 0 l 0 559 l -1652 0 l 0 -559 Z M 752337 678611 l 2943 0 l 0 293 l -1662 4792 l -644 0 l 1560 -4506 l -2197 0 l 0 -579 Z M 756938 678611 l 0 1890 l -521 0 l 0 -1890 l 521 0 m 1158 0 l 0 1890 l -518 0 l 0 -1890 l 518 0 Z" class="C4" /><path d="M 713261 664464 q -324 615 -480 1218 q -157 602 -157 1220 q 0 618 158 1224 q 158 606 479 1219 l -385 0 q -364 -629 -543 -1236 q -179 -607 -179 -1207 q 0 -597 179 -1202 q 179 -605 543 -1236 l 385 0 Z M 716831 664935 l 0 570 q -246 -254 -524 -380 q -278 -126 -591 -126 q -615 0 -943 419 q -328 419 -328 1211 q 0 789 328 1208 q 328 419 943 419 q 313 0 591 -126 q 278 -126 524 -380 l 0 565 q -254 193 -541 289 q -286 96 -602 96 q -819 0 -1287 -555 q -468 -555 -468 -1516 q 0 -963 468 -1519 q 468 -555 1287 -555 q 321 0 607 95 q 286 95 535 285 Z M 718789 667116 q -538 0 -745 136 q -207 136 -207 466 q 0 262 155 416 q 155 154 423 154 q 369 0 591 -290 q 222 -290 222 -772 l 0 -110 l -439 0 m 883 -203 l 0 1710 l -444 0 l 0 -455 q -150 273 -376 403 q -226 130 -555 130 q -415 0 -658 -258 q -244 -258 -244 -692 q 0 -506 304 -763 q 304 -257 909 -257 l 621 0 l 0 -48 q 0 -340 -201 -526 q -201 -186 -565 -186 q -230 0 -450 62 q -219 62 -423 185 l 0 -455 q 244 -104 472 -157 q 229 -52 446 -52 q 586 0 875 337 q 289 337 289 1022 Z M 722148 666086 q -75 -48 -163 -71 q -88 -23 -193 -23 q -377 0 -578 272 q -201 272 -201 780 l 0 1579 l -447 0 l 0 -2997 l 447 0 l 0 466 q 139 -273 364 -405 q 225 -132 543 -132 q 45 0 102 7 q 56 7 123 20 l 3 506 Z M 723039 668173 l 0 1590 l -447 0 l 0 -4137 l 447 0 l 0 455 q 139 -268 352 -397 q 213 -130 510 -130 q 492 0 799 434 q 306 434 306 1140 q 0 706 -306 1140 q -306 434 -799 434 q -297 0 -510 -130 q -213 -130 -352 -397 m 1507 -1046 q 0 -543 -201 -852 q -201 -309 -551 -309 q -353 0 -554 309 q -201 309 -201 852 q 0 543 201 852 q 201 309 554 309 q 351 0 551 -309 q 201 -309 201 -852 Z M 728048 667001 l 0 241 l -2039 0 q 29 508 277 775 q 248 266 686 266 q 257 0 496 -70 q 240 -70 475 -209 l 0 466 q -238 112 -488 171 q -250 59 -507 59 q -648 0 -1024 -417 q -376 -417 -376 -1129 q 0 -736 357 -1168 q 357 -432 965 -432 q 543 0 860 389 q 317 389 317 1058 m -444 -145 q -5 -404 -203 -645 q -198 -241 -524 -241 q -372 0 -595 233 q -223 233 -256 656 l 1579 -3 Z M 729215 664775 l 0 851 l 913 0 l 0 383 l -913 0 l 0 1627 q 0 367 90 471 q 90 104 365 104 l 458 0 l 0 412 l -458 0 q -511 0 -706 -213 q -195 -213 -195 -775 l 0 -1627 l -324 0 l 0 -383 l 324 0 l 0 -851 l 447 0 Z M 730821 667943 l 508 0 l 0 460 l -396 856 l -310 0 l 198 -856 l 0 -460 Z M 734345 666715 l 0 1464 l 779 0 q 393 0 582 -181 q 189 -181 189 -553 q 0 -375 -189 -553 q -189 -178 -582 -178 l -779 0 m 0 -1643 l 0 1204 l 720 0 q 356 0 531 -149 q 175 -149 175 -454 q 0 -302 -175 -452 q -175 -150 -531 -150 l -720 0 m -487 -444 l 1242 0 q 557 0 858 257 q 301 257 301 731 q 0 367 -154 583 q -154 217 -454 270 q 361 86 559 357 q 198 272 198 678 q 0 535 -328 827 q -328 292 -933 292 l -1290 0 l 0 -3995 Z M 738784 666086 q -75 -48 -163 -71 q -88 -23 -193 -23 q -377 0 -578 272 q -201 272 -201 780 l 0 1579 l -447 0 l 0 -2997 l 447 0 l 0 466 q 139 -273 364 -405 q 225 -132 543 -132 q 45 0 102 7 q 56 7 123 20 l 3 506 Z M 739247 665626 l 442 0 l 0 2997 l -442 0 l 0 -2997 m 0 -1167 l 442 0 l 0 624 l -442 0 l 0 -624 Z M 742558 665741 l 0 460 q -187 -115 -376 -173 q -189 -58 -381 -58 q -434 0 -672 304 q -238 304 -238 852 q 0 549 238 852 q 238 304 672 304 q 193 0 381 -58 q 189 -58 376 -173 l 0 455 q -185 96 -384 145 q -199 48 -421 48 q -610 0 -969 -425 q -359 -425 -359 -1148 q 0 -733 363 -1153 q 363 -420 991 -420 q 206 0 401 47 q 195 47 377 140 Z M 743310 664459 l 447 0 l 0 2459 l 1322 -1293 l 567 0 l -1432 1402 l 1491 1595 l -578 0 l -1370 -1464 l 0 1464 l -447 0 l 0 -4164 Z M 747768 664627 l 2066 0 l 0 455 l -1579 0 l 0 1177 l 1426 0 l 0 455 l -1426 0 l 0 1908 l -487 0 l 0 -3995 Z M 751091 665072 l 0 1501 l 610 0 q 340 0 526 -195 q 186 -195 186 -557 q 0 -359 -186 -554 q -186 -195 -526 -195 l -610 0 m -487 -444 l 1097 0 q 605 0 914 304 q 309 304 309 890 q 0 591 -309 894 q -309 302 -914 302 l -610 0 l 0 1606 l -487 0 l 0 -3995 Z M 753489 664464 l 385 0 q 361 632 541 1236 q 179 605 179 1202 q 0 599 -179 1207 q -179 607 -541 1236 l -385 0 q 318 -613 476 -1219 q 158 -606 158 -1224 q 0 -618 -158 -1220 q -158 -602 -476 -1218 Z" class="C4" /><path d="M 325675 304932 l 221556 0 l 0 152547 l -221556 0 l 0 -152547" class="C2" /><path d="M 420552 387259 l 4131 0 l 0 827 l -3245 0 l 0 2151 l 3114 0 l 0 827 l -3114 0 l 0 2632 l 3328 0 l 0 827 l -4213 0 l 0 -7264 Z M 428400 388227 l -1202 3615 l 2408 0 l -1207 -3615 m -501 -968 l 1007 0 l 2491 7264 l -920 0 l -598 -1863 l -2948 0 l -594 1863 l -934 0 l 2496 -7264 Z M 431446 387259 l 5527 0 l 0 827 l -2321 0 l 0 6437 l -886 0 l 0 -6437 l -2321 0 l 0 -827 Z M 437820 387259 l 886 0 l 0 7264 l -886 0 l 0 -7264 Z M 440462 387259 l 1192 0 l 2900 6077 l 0 -6077 l 856 0 l 0 7264 l -1192 0 l -2900 -6077 l 0 6077 l -856 0 l 0 -7264 Z M 451623 393487 l 0 -1951 l -1445 0 l 0 -808 l 2321 0 l 0 3119 q -511 404 -1129 611 q -618 207 -1319 207 q -1533 0 -2396 -995 q -864 -995 -864 -2771 q 0 -1781 864 -2776 q 864 -995 2396 -995 q 637 0 1214 175 q 577 175 1063 516 l 0 1046 q -491 -462 -1044 -696 q -552 -234 -1160 -234 q -1197 0 -1800 744 q -603 744 -603 2219 q 0 1469 603 2214 q 603 744 1800 744 q 472 0 839 -90 q 367 -90 659 -280 Z" class="C3" /><path d="M 427442 371278 l -1202 3615 l 2408 0 l -1207 -3615 m -501 -968 l 1007 0 l 2491 7264 l -920 0 l -598 -1863 l -2948 0 l -594 1863 l -934 0 l 2496 -7264 Z M 434487 374168 q 287 107 555 457 q 268 350 540 963 l 900 1985 l -954 0 l -837 -1863 q -321 -730 -625 -968 q -304 -238 -830 -238 l -963 0 l 0 3070 l -886 0 l 0 -7264 l 1995 0 q 1124 0 1674 521 q 550 521 550 1572 q 0 686 -285 1139 q -285 452 -834 628 m -2214 -3051 l 0 2579 l 1109 0 q 642 0 968 -328 q 326 -328 326 -966 q 0 -637 -326 -961 q -326 -324 -968 -324 l -1109 0 Z M 437615 370310 l 4131 0 l 0 827 l -3245 0 l 0 2151 l 3114 0 l 0 827 l -3114 0 l 0 2632 l 3328 0 l 0 827 l -4213 0 l 0 -7264 Z M 445463 371278 l -1202 3615 l 2408 0 l -1207 -3615 m -501 -968 l 1007 0 l 2491 7264 l -920 0 l -598 -1863 l -2948 0 l -594 1863 l -934 0 l 2496 -7264 Z" class="C3" /><path d="M 473379 458690 l 73852 0 l 0 73852 l -73852 0 l 0 -73852" class="C2" /><path d="M 501157 497835 l 0 1365 l 555 0 q 309 0 478 -178 q 169 -178 169 -506 q 0 -326 -169 -504 q -169 -178 -478 -178 l -555 0 m -443 -404 l 997 0 q 550 0 831 276 q 281 276 281 809 q 0 538 -281 813 q -281 275 -831 275 l -555 0 l 0 1460 l -443 0 l 0 -3632 Z M 504743 497765 q -482 0 -765 399 q -283 399 -283 1087 q 0 686 283 1085 q 283 399 765 399 q 482 0 764 -399 q 282 -399 282 -1085 q 0 -688 -282 -1087 q -282 -399 -764 -399 m 0 -399 q 688 0 1100 512 q 411 512 411 1373 q 0 859 -411 1371 q -411 512 -1100 512 q -688 0 -1101 -511 q -412 -511 -412 -1372 q 0 -861 412 -1373 q 412 -512 1101 -512 Z M 506653 497432 l 448 0 l 686 3070 l 686 -3070 l 496 0 l 688 3070 l 686 -3070 l 448 0 l -820 3632 l -557 0 l -688 -3153 l -698 3153 l -555 0 l -820 -3632 Z M 511820 497835 l 0 2824 l 533 0 q 676 0 991 -341 q 315 -341 315 -1075 q 0 -730 -315 -1069 q -315 -339 -991 -339 l -533 0 m -443 -404 l 907 0 q 951 0 1395 439 q 444 439 444 1373 q 0 939 -446 1379 q -446 440 -1393 440 l -907 0 l 0 -3632 Z M 514829 497432 l 2065 0 l 0 414 l -1623 0 l 0 1075 l 1557 0 l 0 414 l -1557 0 l 0 1316 l 1664 0 l 0 414 l -2107 0 l 0 -3632 Z M 519211 499361 q 144 54 277 229 q 134 175 270 482 l 450 993 l -477 0 l -418 -932 q -161 -365 -313 -484 q -152 -119 -415 -119 l -482 0 l 0 1535 l -443 0 l 0 -3632 l 997 0 q 562 0 837 260 q 275 260 275 786 q 0 343 -142 569 q -142 226 -417 314 m -1107 -1525 l 0 1289 l 555 0 q 321 0 484 -164 q 163 -164 163 -483 q 0 -319 -163 -480 q -163 -162 -484 -162 l -555 0 Z" class="C3" /><path d="M 505680 488188 q -247 0 -392 189 q -145 189 -145 517 q 0 326 145 516 q 145 190 392 190 q 249 0 394 -190 q 145 -190 145 -516 q 0 -328 -145 -517 q -145 -189 -394 -189 m 732 -1283 l 0 373 q -138 -73 -280 -111 q -142 -39 -280 -39 q -365 0 -557 274 q -193 274 -219 827 q 107 -176 270 -271 q 162 -94 357 -94 q 412 0 650 277 q 238 277 238 753 q 0 466 -248 748 q -248 282 -662 282 q -472 0 -722 -402 q -249 -402 -249 -1167 q 0 -718 306 -1144 q 306 -427 823 -427 q 138 0 280 30 q 142 30 294 91 Z M 507288 489520 l 602 0 l 0 -2309 l -657 146 l 0 -373 l 653 -146 l 369 0 l 0 2682 l 602 0 l 0 345 l -1569 0 l 0 -345 Z M 511251 487594 l -740 1105 l 776 1166 l -395 0 l -594 -892 l -596 892 l -395 0 l 795 -1188 l -728 -1083 l 397 0 l 541 809 l 541 -809 l 397 0 Z M 512642 488188 q -247 0 -392 189 q -145 189 -145 517 q 0 326 145 516 q 145 190 392 190 q 249 0 394 -190 q 145 -190 145 -516 q 0 -328 -145 -517 q -145 -189 -394 -189 m 732 -1283 l 0 373 q -138 -73 -280 -111 q -142 -39 -280 -39 q -365 0 -557 274 q -193 274 -219 827 q 107 -176 270 -271 q 162 -94 357 -94 q 412 0 650 277 q 238 277 238 753 q 0 466 -248 748 q -248 282 -662 282 q -472 0 -722 -402 q -249 -402 -249 -1167 q 0 -718 306 -1144 q 306 -427 823 -427 q 138 0 280 30 q 142 30 294 91 Z M 514250 489520 l 602 0 l 0 -2309 l -657 146 l 0 -373 l 653 -146 l 369 0 l 0 2682 l 602 0 l 0 345 l -1569 0 l 0 -345 Z" class="C4" /><path d="M 372892 555847 l 55692 0 l 0 35110 l -55692 0 l 0 -35110" class="C2" /><path d="M 393564 575763 l 0 1228 l 499 0 q 278 0 430 -160 q 152 -160 152 -455 q 0 -293 -152 -453 q -152 -160 -430 -160 l -499 0 m -398 -363 l 898 0 q 495 0 748 249 q 253 249 253 728 q 0 484 -253 731 q -253 247 -748 247 l -499 0 l 0 1314 l -398 0 l 0 -3269 Z M 396581 575836 l -541 1627 l 1084 0 l -543 -1627 m -226 -436 l 453 0 l 1121 3269 l -414 0 l -269 -839 l -1327 0 l -267 839 l -420 0 l 1123 -3269 Z M 398356 575400 l 536 0 l 1305 2735 l 0 -2735 l 385 0 l 0 3269 l -536 0 l -1305 -2735 l 0 2735 l -385 0 l 0 -3269 Z M 400968 575400 l 2487 0 l 0 372 l -1044 0 l 0 2897 l -398 0 l 0 -2897 l -1044 0 l 0 -372 Z M 405231 577136 q 129 48 250 206 q 120 158 243 434 l 405 893 l -429 0 l -377 -839 q -145 -328 -281 -436 q -137 -107 -373 -107 l -434 0 l 0 1382 l -398 0 l 0 -3269 l 898 0 q 506 0 753 234 q 247 234 247 707 q 0 309 -128 512 q -128 204 -375 282 m -996 -1373 l 0 1160 l 499 0 q 289 0 436 -148 q 147 -148 147 -435 q 0 -287 -147 -432 q -147 -146 -436 -146 l -499 0 Z M 406236 575400 l 429 0 l 814 1344 l 810 -1344 l 429 0 l -1042 1712 l 0 1557 l -398 0 l 0 -1557 l -1042 -1712 Z" class="C3" /><path d="M 396649 566285 l -856 1486 l 856 0 l 0 -1486 m -90 -328 l 427 0 l 0 1815 l 356 0 l 0 313 l -356 0 l 0 657 l -338 0 l 0 -657 l -1132 0 l 0 -364 l 1043 -1764 Z M 398669 567199 q -228 0 -361 173 q -133 173 -133 476 q 0 300 133 475 q 133 174 361 174 q 229 0 363 -174 q 133 -174 133 -475 q 0 -302 -133 -476 q -133 -173 -363 -173 m 673 -1181 l 0 343 q -127 -67 -257 -103 q -131 -35 -257 -35 q -336 0 -513 252 q -177 252 -201 761 q 99 -162 248 -249 q 149 -87 328 -87 q 379 0 598 255 q 219 255 219 693 q 0 429 -228 688 q -228 259 -609 259 q -435 0 -664 -370 q -229 -370 -229 -1073 q 0 -660 282 -1053 q 282 -393 757 -393 q 127 0 257 28 q 131 28 270 84 Z M 401608 566652 l -681 1016 l 714 1072 l -364 0 l -546 -821 l -548 821 l -364 0 l 731 -1093 l -670 -996 l 366 0 l 498 744 l 498 -744 l 366 0 Z M 402414 568424 l 1182 0 l 0 317 l -1591 0 l 0 -317 q 192 -222 526 -596 q 334 -374 420 -482 q 162 -203 227 -344 q 64 -141 64 -277 q 0 -222 -140 -362 q -140 -140 -366 -140 q -159 0 -336 62 q -177 62 -379 187 l 0 -380 q 205 -91 383 -138 q 178 -47 325 -47 q 390 0 621 216 q 231 216 231 578 q 0 172 -58 325 q -58 154 -211 363 q -43 54 -268 312 q -225 258 -633 723 Z M 404316 568683 l 0 -343 q 129 67 259 103 q 131 35 257 35 q 336 0 513 -251 q 177 -251 201 -762 q -97 160 -246 246 q -149 86 -330 86 q -377 0 -596 -253 q -219 -253 -219 -691 q 0 -429 228 -688 q 228 -259 607 -259 q 435 0 664 370 q 229 370 229 1075 q 0 658 -281 1051 q -281 393 -756 393 q -129 0 -259 -28 q -131 -28 -272 -84 m 675 -1181 q 229 0 363 -173 q 133 -173 133 -476 q 0 -300 -133 -475 q -133 -174 -363 -174 q -228 0 -361 174 q -133 174 -133 475 q 0 302 133 476 q 133 173 361 173 Z" class="C4" /><path d="M 386209 458690 l 87169 0 l 0 29056 l -87169 0 l 0 -29056" class="C2" /><path d="M 424487 471835 l 0 466 q -201 -208 -429 -311 q -228 -103 -484 -103 q -504 0 -772 343 q -268 343 -268 991 q 0 646 268 989 q 268 343 772 343 q 256 0 484 -103 q 228 -103 429 -311 l 0 462 q -208 158 -442 236 q -234 79 -493 79 q -670 0 -1053 -454 q -383 -454 -383 -1240 q 0 -788 383 -1243 q 383 -454 1053 -454 q 263 0 497 78 q 234 78 438 233 Z M 425102 471583 l 398 0 l 0 2897 l 1432 0 l 0 372 l -1830 0 l 0 -3269 Z M 428541 471883 q -434 0 -689 359 q -255 359 -255 979 q 0 617 255 976 q 255 359 689 359 q 434 0 687 -359 q 254 -359 254 -976 q 0 -620 -254 -979 q -254 -359 -687 -359 m 0 -359 q 620 0 990 461 q 370 461 370 1236 q 0 773 -370 1234 q -370 461 -990 461 q -620 0 -991 -460 q -371 -460 -371 -1235 q 0 -775 371 -1236 q 371 -461 991 -461 Z M 432285 471691 l 0 431 q -226 -120 -427 -180 q -201 -59 -388 -59 q -326 0 -502 140 q -176 140 -176 398 q 0 217 117 327 q 117 111 446 178 l 239 55 q 447 94 658 332 q 211 238 211 636 q 0 475 -286 720 q -286 245 -840 245 q -210 0 -446 -53 q -235 -53 -487 -155 l 0 -455 q 243 151 475 228 q 232 77 458 77 q 339 0 525 -149 q 186 -149 186 -425 q 0 -241 -134 -377 q -134 -136 -438 -204 l -241 -53 q -447 -99 -645 -309 q -198 -210 -198 -585 q 0 -434 275 -683 q 275 -250 756 -250 q 208 0 423 42 q 215 42 438 125 Z M 433085 471583 l 1859 0 l 0 372 l -1460 0 l 0 968 l 1401 0 l 0 372 l -1401 0 l 0 1184 l 1498 0 l 0 372 l -1896 0 l 0 -3269 Z M 435228 471583 l 2487 0 l 0 372 l -1044 0 l 0 2897 l -398 0 l 0 -2897 l -1044 0 l 0 -372 Z" class="C3" /><path d="M 424687 464561 l 1611 0 l 0 160 l -910 2624 l -353 0 l 854 -2468 l -1203 0 l 0 -317 Z M 427252 467029 l 1182 0 l 0 317 l -1591 0 l 0 -317 q 192 -222 526 -596 q 334 -374 420 -482 q 162 -203 227 -344 q 64 -141 64 -277 q 0 -222 -140 -362 q -140 -140 -366 -140 q -159 0 -336 62 q -177 62 -379 187 l 0 -380 q 205 -91 383 -138 q 178 -47 325 -47 q 390 0 621 216 q 231 216 231 578 q 0 172 -58 325 q -58 154 -211 363 q -43 54 -268 312 q -225 258 -633 723 Z M 430665 465257 l -681 1016 l 714 1072 l -364 0 l -546 -821 l -548 821 l -364 0 l 731 -1093 l -670 -996 l 366 0 l 498 744 l 498 -744 l 366 0 Z M 431471 467029 l 1182 0 l 0 317 l -1591 0 l 0 -317 q 192 -222 526 -596 q 334 -374 420 -482 q 162 -203 227 -344 q 64 -141 64 -277 q 0 -222 -140 -362 q -140 -140 -366 -140 q -159 0 -336 62 q -177 62 -379 187 l 0 -380 q 205 -91 383 -138 q 178 -47 325 -47 q 390 0 621 216 q 231 216 231 578 q 0 172 -58 325 q -58 154 -211 363 q -43 54 -268 312 q -225 258 -633 723 Z M 434296 464890 l -856 1486 l 856 0 l 0 -1486 m -90 -328 l 427 0 l 0 1815 l 356 0 l 0 313 l -356 0 l 0 657 l -338 0 l 0 -657 l -1132 0 l 0 -364 l 1043 -1764 Z" class="C4" /><path d="M 312357 114552 l 65377 0 l 0 116226 l -65377 0 l 0 -116226" class="C5" /><path d="M 335552 172746 l 0 1331 l 708 0 q 358 0 529 -164 q 172 -164 172 -502 q 0 -341 -172 -502 q -172 -162 -529 -162 l -708 0 m 0 -1494 l 0 1095 l 654 0 q 324 0 483 -135 q 159 -135 159 -412 q 0 -275 -159 -411 q -159 -136 -483 -136 l -654 0 m -443 -404 l 1129 0 q 506 0 780 234 q 274 234 274 664 q 0 333 -140 530 q -140 197 -412 246 q 328 78 508 325 q 180 247 180 617 q 0 487 -298 752 q -298 265 -848 265 l -1173 0 l 0 -3632 Z M 340143 170968 l 0 479 q -251 -134 -474 -199 q -224 -66 -431 -66 q -362 0 -558 156 q -196 156 -196 443 q 0 241 130 364 q 130 123 495 198 l 265 61 q 496 105 731 369 q 235 264 235 707 q 0 528 -317 800 q -317 272 -933 272 q -234 0 -495 -58 q -262 -58 -541 -173 l 0 -506 q 270 168 528 253 q 258 85 508 85 q 377 0 584 -165 q 207 -165 207 -472 q 0 -268 -148 -418 q -148 -151 -487 -226 l -268 -58 q -496 -109 -716 -343 q -220 -234 -220 -650 q 0 -482 305 -759 q 305 -277 841 -277 q 231 0 470 46 q 238 46 487 139 Z M 341031 170849 l 659 0 l 834 2472 l 837 -2472 l 659 0 l 0 3632 l -431 0 l 0 -3189 l -844 2491 l -443 0 l -844 -2491 l 0 3189 l -428 0 l 0 -3632 Z M 344449 170849 l 2764 0 l 0 414 l -1160 0 l 0 3218 l -443 0 l 0 -3218 l -1160 0 l 0 -414 Z M 349501 171253 l 0 2824 l 533 0 q 676 0 991 -341 q 315 -341 315 -1075 q 0 -730 -315 -1069 q -315 -339 -991 -339 l -533 0 m -443 -404 l 907 0 q 951 0 1395 439 q 444 439 444 1373 q 0 939 -446 1379 q -446 440 -1393 440 l -907 0 l 0 -3632 Z M 352511 170849 l 596 0 l 1450 3038 l 0 -3038 l 428 0 l 0 3632 l -596 0 l -1450 -3038 l 0 3038 l -428 0 l 0 -3632 Z" class="C6" /><path d="M 595961 692655 l 47217 0 l 0 130754 l -47217 0 l 0 -130754" class="C5" /><path d="M 617138 755913 l 519 0 l 0 2574 q 0 681 223 981 q 223 299 719 299 q 497 0 718 -299 q 221 -299 221 -981 l 0 -2574 l 519 0 l 0 2645 q 0 829 -369 1252 q -369 423 -1090 423 q -724 0 -1093 -423 q -369 -423 -369 -1252 l 0 -2645 Z M 621542 756384 l 0 1592 l 647 0 q 360 0 558 -207 q 197 -207 197 -590 q 0 -380 -197 -588 q -197 -207 -558 -207 l -647 0 m -517 -471 l 1164 0 q 641 0 969 322 q 328 322 328 944 q 0 627 -328 948 q -328 321 -969 321 l -647 0 l 0 1703 l -517 0 l 0 -4237 Z" class="C6" /><path d="M 689789 796774 l 87169 0 l 0 26635 l -87169 0 l 0 -26635" class="C7" /><path d="M 724115 810173 l 0 1331 l 708 0 q 358 0 529 -164 q 172 -164 172 -502 q 0 -341 -172 -502 q -172 -162 -529 -162 l -708 0 m 0 -1494 l 0 1095 l 654 0 q 324 0 483 -135 q 159 -135 159 -412 q 0 -275 -159 -411 q -159 -136 -483 -136 l -654 0 m -443 -404 l 1129 0 q 506 0 780 234 q 274 234 274 664 q 0 333 -140 530 q -140 197 -412 246 q 328 78 508 325 q 180 247 180 617 q 0 487 -298 752 q -298 265 -848 265 l -1173 0 l 0 -3632 Z M 728296 810205 q 144 54 277 229 q 134 175 270 482 l 450 993 l -477 0 l -418 -932 q -161 -365 -313 -484 q -152 -119 -415 -119 l -482 0 l 0 1535 l -443 0 l 0 -3632 l 997 0 q 562 0 837 260 q 275 260 275 786 q 0 343 -142 569 q -142 226 -417 314 m -1107 -1525 l 0 1289 l 555 0 q 321 0 484 -164 q 163 -164 163 -483 q 0 -319 -163 -480 q -163 -162 -484 -162 l -555 0 Z M 729861 808275 l 443 0 l 0 3632 l -443 0 l 0 -3632 Z M 733629 808555 l 0 518 q -224 -231 -477 -345 q -253 -114 -538 -114 q -560 0 -858 381 q -298 381 -298 1101 q 0 718 298 1098 q 298 381 858 381 q 285 0 538 -114 q 253 -114 477 -345 l 0 513 q -231 175 -491 263 q -260 88 -547 88 q -744 0 -1170 -505 q -426 -505 -426 -1378 q 0 -876 426 -1381 q 426 -505 1170 -505 q 292 0 552 86 q 260 86 487 259 Z M 734313 808275 l 443 0 l 0 1535 l 1467 -1535 l 569 0 l -1623 1693 l 1737 1939 l -581 0 l -1569 -1749 l 0 1749 l -443 0 l 0 -3632 Z M 738674 808275 l 1878 0 l 0 414 l -1435 0 l 0 1070 l 1297 0 l 0 414 l -1297 0 l 0 1735 l -443 0 l 0 -3632 Z M 741696 808679 l 0 1365 l 555 0 q 309 0 478 -178 q 169 -178 169 -506 q 0 -326 -169 -504 q -169 -178 -478 -178 l -555 0 m -443 -404 l 997 0 q 550 0 831 276 q 281 276 281 809 q 0 538 -281 813 q -281 275 -831 275 l -555 0 l 0 1460 l -443 0 l 0 -3632 Z" class="C8" /><path d="M 7264 511052 l 290565 0 l 0 319621 l -290565 0 l 0 -319621" class="C9" /><path d="M -0 503788 l 305093 0 l 0 334150 l -305093 0 l 0 -334150" class="C9" /><path d="M 113040 673891 l 0 -2276 l -1686 0 l 0 -942 l 2708 0 l 0 3639 q -596 471 -1317 712 q -721 241 -1538 241 q -1788 0 -2796 -1161 q -1008 -1161 -1008 -3233 q 0 -2078 1008 -3238 q 1008 -1161 2796 -1161 q 744 0 1416 204 q 673 204 1240 602 l 0 1220 q -573 -539 -1218 -812 q -644 -272 -1354 -272 q -1396 0 -2100 868 q -704 868 -704 2588 q 0 1714 704 2583 q 704 868 2100 868 q 551 0 979 -105 q 429 -105 769 -326 Z M 118495 667755 l -1402 4218 l 2810 0 l -1408 -4218 m -585 -1130 l 1175 0 l 2906 8475 l -1073 0 l -698 -2174 l -3440 0 l -693 2174 l -1090 0 l 2912 -8475 Z M 126715 671126 q 335 125 647 534 q 312 409 630 1124 l 1050 2316 l -1113 0 l -976 -2174 q -375 -851 -729 -1130 q -355 -278 -968 -278 l -1124 0 l 0 3582 l -1033 0 l 0 -8475 l 2327 0 q 1311 0 1953 607 q 641 607 641 1833 q 0 800 -332 1328 q -332 528 -973 732 m -2583 -3559 l 0 3008 l 1294 0 q 749 0 1130 -383 q 380 -383 380 -1127 q 0 -744 -380 -1121 q -380 -377 -1130 -377 l -1294 0 Z M 132913 667755 l -1402 4218 l 2810 0 l -1408 -4218 m -585 -1130 l 1175 0 l 2906 8475 l -1073 0 l -698 -2174 l -3440 0 l -693 2174 l -1090 0 l 2912 -8475 Z M 142716 673891 l 0 -2276 l -1686 0 l 0 -942 l 2708 0 l 0 3639 q -596 471 -1317 712 q -721 241 -1538 241 q -1788 0 -2796 -1161 q -1008 -1161 -1008 -3233 q 0 -2078 1008 -3238 q 1008 -1161 2796 -1161 q 744 0 1416 204 q 673 204 1240 602 l 0 1220 q -573 -539 -1218 -812 q -644 -272 -1354 -272 q -1396 0 -2100 868 q -704 868 -704 2588 q 0 1714 704 2583 q 704 868 2100 868 q 551 0 979 -105 q 429 -105 769 -326 Z M 145623 666625 l 4819 0 l 0 965 l -3786 0 l 0 2509 l 3633 0 l 0 965 l -3633 0 l 0 3071 l 3883 0 l 0 965 l -4916 0 l 0 -8475 Z M 157770 666279 q -687 1306 -1019 2583 q -332 1277 -332 2588 q 0 1311 335 2597 q 335 1286 1016 2586 l -817 0 q -772 -1334 -1152 -2622 q -380 -1289 -380 -2560 q 0 -1266 380 -2549 q 380 -1283 1152 -2622 l 817 0 Z M 163356 669707 l 0 -3440 l 942 0 l 0 8832 l -942 0 l 0 -954 q -295 568 -746 843 q -451 275 -1087 275 q -1039 0 -1689 -920 q -650 -920 -650 -2418 q 0 -1499 650 -2418 q 650 -920 1689 -920 q 636 0 1087 275 q 451 275 746 843 m -3201 2219 q 0 1152 426 1808 q 426 656 1169 656 q 749 0 1178 -656 q 429 -656 429 -1808 q 0 -1152 -429 -1808 q -429 -656 -1178 -656 q -744 0 -1169 656 q -426 656 -426 1808 Z M 166233 668742 l 937 0 l 0 6358 l -937 0 l 0 -6358 m 0 -2475 l 937 0 l 0 1323 l -937 0 l 0 -1323 Z M 173590 669963 q 358 -704 846 -1039 q 488 -335 1152 -335 q 897 0 1382 695 q 485 695 485 1978 l 0 3837 l -948 0 l 0 -3803 q 0 -914 -289 -1357 q -289 -443 -891 -443 q -727 0 -1152 539 q -426 539 -426 1470 l 0 3593 l -942 0 l 0 -3803 q 0 -920 -292 -1359 q -292 -440 -900 -440 q -721 0 -1144 542 q -423 542 -423 1467 l 0 3593 l -948 0 l 0 -6358 l 948 0 l 0 988 q 324 -585 772 -863 q 448 -278 1067 -278 q 624 0 1061 352 q 437 352 641 1022 Z M 182973 668930 l 0 988 q -397 -227 -826 -341 q -429 -114 -888 -114 q -698 0 -1050 238 q -352 238 -352 715 q 0 363 253 570 q 253 207 1008 395 l 318 79 q 1005 238 1425 673 q 420 434 420 1212 q 0 886 -630 1402 q -630 517 -1731 517 q -460 0 -959 -99 q -500 -99 -1050 -298 l 0 -1079 q 522 301 1027 451 q 505 150 999 150 q 664 0 1022 -253 q 358 -253 358 -712 q 0 -426 -258 -653 q -258 -227 -1132 -437 l -324 -85 q -874 -204 -1263 -627 q -389 -423 -389 -1161 q 0 -897 573 -1385 q 573 -488 1623 -488 q 522 0 982 85 q 460 85 846 255 Z M 187088 666625 l 6448 0 l 0 965 l -2708 0 l 0 7510 l -1033 0 l 0 -7510 l -2708 0 l 0 -965 Z M 195558 671053 l 0 3105 l 1652 0 q 834 0 1235 -383 q 400 -383 400 -1172 q 0 -795 -400 -1172 q -400 -377 -1235 -377 l -1652 0 m 0 -3485 l 0 2554 l 1527 0 q 755 0 1127 -315 q 372 -315 372 -962 q 0 -641 -372 -959 q -372 -318 -1127 -318 l -1527 0 m -1033 -942 l 2634 0 q 1181 0 1819 545 q 639 545 639 1550 q 0 778 -326 1237 q -326 460 -962 573 q 766 182 1186 758 q 420 576 420 1439 q 0 1135 -695 1754 q -695 619 -1978 619 l -2736 0 l 0 -8475 Z M 202732 667567 l 0 6590 l 1243 0 q 1578 0 2313 -795 q 735 -795 735 -2509 q 0 -1703 -735 -2495 q -735 -792 -2313 -792 l -1243 0 m -1033 -942 l 2117 0 q 2219 0 3255 1025 q 1036 1025 1036 3204 q 0 2191 -1042 3218 q -1042 1027 -3250 1027 l -2117 0 l 0 -8475 Z M 209567 666279 l 817 0 q 766 1340 1147 2622 q 380 1283 380 2549 q 0 1272 -380 2560 q -380 1289 -1147 2622 l -817 0 q 675 -1300 1010 -2586 q 335 -1286 335 -2597 q 0 -1311 -335 -2588 q -335 -1277 -1010 -2583 Z" class="CA" /><path d="M 305093 85495 l 0 48427" class="CB" /><path d="M 887736 85495 l 0 48427" class="CB" /><path d="M 308725 132099 l -3632 -597 3632 -597 Z" class="C4" /><path d="M 884104 130904 l 3632 597 -3632 597 Z" class="C4" /><path d="M 308725 131502 l 278004 0" class="CB" /><path d="M 606100 131502 l 278004 0" class="CB" /><path d="M 592024 129046 l -1489 2585 l 1489 0 l 0 -2585 m -156 -571 l 743 0 l 0 3156 l 620 0 l 0 545 l -620 0 l 0 1142 l -587 0 l 0 -1142 l -1969 0 l 0 -633 l 1813 -3068 Z M 595466 128907 q -454 0 -684 498 q -230 498 -230 1497 q 0 996 230 1494 q 230 498 684 498 q 457 0 686 -498 q 229 -498 229 -1494 q 0 -999 -229 -1497 q -229 -498 -686 -498 m 0 -519 q 733 0 1119 644 q 386 644 386 1870 q 0 1223 -386 1867 q -386 644 -1119 644 q -733 0 -1119 -644 q -386 -644 -386 -1867 q 0 -1226 386 -1870 q 386 -644 1119 -644 Z M 598067 132494 l 616 0 l 0 558 l -480 1038 l -376 0 l 240 -1038 l 0 -558 Z M 600007 132767 l 963 0 l 0 -3695 l -1051 234 l 0 -597 l 1044 -234 l 590 0 l 0 4291 l 963 0 l 0 551 l -2511 0 l 0 -551 Z" class="C4" /><path d="M 885315 83074 l -48427 0" class="CB" /><path d="M 885315 830673 l -48427 0" class="CB" /><path d="M 839906 79442 l -597 3632 -597 -3632 Z" class="C4" /><path d="M 838712 834305 l 597 -3632 597 3632 Z" class="C4" /><path d="M 839309 79442 l 0 365325" class="CB" /><path d="M 839309 468980 l 0 365325" class="CB" /><path d="M 836282 464780 l 0 -2316 l 551 0 l 0 1778 l 1187 0 q -49 -130 -73 -258 q -24 -128 -24 -258 q 0 -730 444 -1156 q 444 -427 1203 -427 q 782 0 1215 438 q 433 438 433 1236 q 0 276 -52 560 q -52 284 -156 589 l -658 0 q 159 -263 237 -543 q 78 -281 78 -592 q 0 -506 -295 -801 q -295 -295 -801 -295 q -506 0 -801 295 q -295 295 -295 801 q 0 237 58 472 q 58 235 182 478 l -2433 0 Z M 840574 460881 l 0 -963 l -3695 0 l 234 1051 l -597 0 l -234 -1044 l 0 -590 l 4291 0 l 0 -963 l 551 0 l 0 2511 l -551 0 Z M 840301 457122 l 0 -616 l 558 0 l 1038 480 l 0 376 l -1038 -240 l -558 0 Z M 836853 453664 l 2585 1489 l 0 -1489 l -2585 0 m -571 156 l 0 -743 l 3156 0 l 0 -620 l 545 0 l 0 620 l 1142 0 l 0 587 l -1142 0 l 0 1969 l -633 0 l -3068 -1813 Z M 838443 450151 q 0 396 302 628 q 302 232 827 232 q 522 0 826 -232 q 303 -232 303 -628 q 0 -399 -303 -631 q -303 -232 -826 -232 q -525 0 -827 232 q -302 232 -302 631 m -2053 -1171 l 597 0 q -117 221 -178 448 q -62 227 -62 448 q 0 584 438 892 q 438 308 1323 350 q -282 -172 -433 -431 q -151 -259 -151 -571 q 0 -658 443 -1040 q 443 -381 1205 -381 q 746 0 1197 397 q 451 397 451 1059 q 0 756 -644 1155 q -644 399 -1867 399 q -1148 0 -1831 -490 q -683 -490 -683 -1317 q 0 -221 49 -448 q 49 -227 146 -470 Z" class="C4" /><path d="M 901054 359111 l 36321 0" class="CB" /><path d="M 901054 823409 l 36321 0" class="CB" /><path d="M 935550 355479 l -597 3632 -597 -3632 Z" class="C4" /><path d="M 934356 827041 l 597 -3632 597 3632 Z" class="C4" /><path d="M 934953 355479 l 0 223674" class="CB" /><path d="M 934953 603367 l 0 223674" class="CB" /><path d="M 934158 597385 q 101 -422 418 -660 q 318 -238 785 -238 q 717 0 1109 443 q 392 443 392 1260 q 0 276 -60 566 q -60 290 -180 602 l -633 0 q 159 -247 240 -538 q 81 -292 81 -610 q 0 -555 -243 -845 q -243 -290 -707 -290 q -428 0 -670 269 q -242 269 -242 753 l 0 506 l -538 0 l 0 -529 q 0 -435 -193 -667 q -193 -232 -556 -232 q -373 0 -573 238 q -199 238 -199 683 q 0 243 58 519 q 58 276 182 610 l -584 0 q -104 -334 -156 -628 q -52 -294 -52 -553 q 0 -671 339 -1064 q 339 -392 916 -392 q 402 0 680 208 q 277 208 384 590 Z M 936218 595267 l 0 -963 l -3695 0 l 234 1051 l -597 0 l -234 -1044 l 0 -590 l 4291 0 l 0 -963 l 551 0 l 0 2511 l -551 0 Z M 935946 591508 l 0 -616 l 558 0 l 1038 480 l 0 376 l -1038 -240 l -558 0 Z M 936669 589656 l -597 0 q 117 -224 178 -451 q 62 -227 62 -448 q 0 -584 -436 -892 q -436 -308 -1325 -350 q 279 169 428 428 q 149 259 149 574 q 0 655 -440 1036 q -440 381 -1202 381 q -746 0 -1197 -397 q -451 -397 -451 -1056 q 0 -756 644 -1155 q 644 -399 1870 -399 q 1145 0 1828 488 q 683 488 683 1315 q 0 224 -49 451 q -49 227 -146 474 m -2053 -1174 q 0 -399 -302 -631 q -302 -232 -827 -232 q -522 0 -826 232 q -303 232 -303 631 q 0 396 303 628 q 303 232 826 232 q 525 0 827 -232 q 302 -232 302 -628 Z M 934087 584537 q 0 396 302 628 q 302 232 827 232 q 522 0 826 -232 q 303 -232 303 -628 q 0 -399 -303 -631 q -303 -232 -826 -232 q -525 0 -827 232 q -302 232 -302 631 m -2053 -1171 l 597 0 q -117 221 -178 448 q -62 227 -62 448 q 0 584 438 892 q 438 308 1323 350 q -282 -172 -433 -431 q -151 -259 -151 -571 q 0 -658 443 -1040 q 443 -381 1205 -381 q 746 0 1197 397 q 451 397 451 1059 q 0 756 -644 1155 q -644 399 -1867 399 q -1148 0 -1831 -490 q -683 -490 -683 -1317 q 0 -221 49 -448 q 49 -227 146 -470 Z" class="C4" /><path d="M 948271 456874 l 36321 0" class="CC" /><path d="M 984591 456874 l -9685 6053" class="CC" /><path d="M 984591 456874 l -9685 -6053" class="CC" /><path d="M 993402 452031 l 1589 0 l 3866 8103 l 0 -8103 l 1142 0 l 0 9685 l -1589 0 l -3866 -8103 l 0 8103 l -1142 0 l 0 -9685 Z" class="C3" /><path d="M 548451 845807 l 3442 0 l 0 689 l -2704 0 l 0 1792 l 2595 0 l 0 689 l -2595 0 l 0 2194 l 2773 0 l 0 689 l -3511 0 l 0 -6053 Z M 554991 846614 l -1001 3013 l 2007 0 l -1006 -3013 m -418 -807 l 839 0 l 2076 6053 l -766 0 l -499 -1553 l -2457 0 l -495 1553 l -778 0 l 2080 -6053 Z M 561544 846005 l 0 799 q -418 -223 -791 -332 q -373 -109 -718 -109 q -604 0 -931 259 q -326 259 -326 738 q 0 401 217 606 q 217 205 825 330 l 442 101 q 827 174 1218 614 q 391 440 391 1178 q 0 880 -529 1334 q -529 454 -1555 454 q -389 0 -825 -97 q -436 -97 -902 -288 l 0 -843 q 450 280 880 422 q 430 142 847 142 q 628 0 973 -276 q 345 -276 345 -787 q 0 -446 -247 -697 q -247 -251 -811 -377 l -446 -97 q -827 -182 -1194 -572 q -367 -389 -367 -1083 q 0 -803 509 -1265 q 509 -462 1401 -462 q 385 0 783 77 q 397 77 811 231 Z M 562273 845807 l 4606 0 l 0 689 l -1934 0 l 0 5364 l -738 0 l 0 -5364 l -1934 0 l 0 -689 Z M 571542 845559 q -491 933 -728 1845 q -237 912 -237 1849 q 0 937 239 1855 q 239 918 726 1847 l -584 0 q -551 -953 -823 -1873 q -272 -920 -272 -1829 q 0 -904 272 -1820 q 272 -916 823 -1873 l 584 0 Z M 572872 845807 l 3130 0 l 0 689 l -2392 0 l 0 1784 l 2161 0 l 0 689 l -2161 0 l 0 2891 l -738 0 l 0 -6053 Z M 579509 848017 q -114 -73 -247 -107 q -134 -34 -292 -34 q -572 0 -876 412 q -304 412 -304 1182 l 0 2392 l -677 0 l 0 -4541 l 677 0 l 0 705 q 211 -414 551 -614 q 341 -201 823 -201 q 69 0 154 10 q 85 10 187 30 l 4 766 Z M 581792 847842 q -539 0 -853 468 q -314 468 -314 1283 q 0 815 312 1283 q 312 468 856 468 q 539 0 851 -470 q 312 -470 312 -1281 q 0 -807 -312 -1279 q -312 -472 -851 -472 m 0 -633 q 876 0 1377 633 q 501 633 501 1752 q 0 1115 -501 1750 q -501 635 -1377 635 q -880 0 -1377 -635 q -497 -635 -497 -1750 q 0 -1119 497 -1752 q 497 -633 1377 -633 Z M 588178 849119 l 0 2741 l -673 0 l 0 -2717 q 0 -645 -227 -965 q -227 -320 -677 -320 q -543 0 -858 385 q -314 385 -314 1050 l 0 2567 l -677 0 l 0 -4541 l 677 0 l 0 705 q 239 -410 566 -612 q 326 -203 756 -203 q 701 0 1064 485 q 363 485 363 1425 Z M 590181 846030 l 0 1289 l 1383 0 l 0 580 l -1383 0 l 0 2465 q 0 555 136 714 q 136 158 553 158 l 693 0 l 0 624 l -693 0 q -774 0 -1070 -322 q -296 -322 -296 -1174 l 0 -2465 l -491 0 l 0 -580 l 491 0 l 0 -1289 l 677 0 Z M 595581 846480 l 0 4707 l 888 0 q 1127 0 1652 -568 q 525 -568 525 -1792 q 0 -1216 -525 -1782 q -525 -566 -1652 -566 l -888 0 m -738 -673 l 1512 0 q 1585 0 2325 732 q 740 732 740 2289 q 0 1565 -744 2299 q -744 734 -2321 734 l -1512 0 l 0 -6053 Z M 602150 847842 q -539 0 -853 468 q -314 468 -314 1283 q 0 815 312 1283 q 312 468 856 468 q 539 0 851 -470 q 312 -470 312 -1281 q 0 -807 -312 -1279 q -312 -472 -851 -472 m 0 -633 q 876 0 1377 633 q 501 633 501 1752 q 0 1115 -501 1750 q -501 635 -1377 635 q -880 0 -1377 -635 q -497 -635 -497 -1750 q 0 -1119 497 -1752 q 497 -633 1377 -633 Z M 606719 847842 q -539 0 -853 468 q -314 468 -314 1283 q 0 815 312 1283 q 312 468 856 468 q 539 0 851 -470 q 312 -470 312 -1281 q 0 -807 -312 -1279 q -312 -472 -851 -472 m 0 -633 q 876 0 1377 633 q 501 633 501 1752 q 0 1115 -501 1750 q -501 635 -1377 635 q -880 0 -1377 -635 q -497 -635 -497 -1750 q 0 -1119 497 -1752 q 497 -633 1377 -633 Z M 612075 848017 q -114 -73 -247 -107 q -134 -34 -292 -34 q -572 0 -876 412 q -304 412 -304 1182 l 0 2392 l -677 0 l 0 -4541 l 677 0 l 0 705 q 211 -414 551 -614 q 341 -201 823 -201 q 69 0 154 10 q 85 10 187 30 l 4 766 Z M 616341 845807 l 620 0 l -1898 6824 l -620 0 l 1898 -6824 Z M 623331 846005 l 0 799 q -418 -223 -791 -332 q -373 -109 -718 -109 q -604 0 -931 259 q -326 259 -326 738 q 0 401 217 606 q 217 205 825 330 l 442 101 q 827 174 1218 614 q 391 440 391 1178 q 0 880 -529 1334 q -529 454 -1555 454 q -389 0 -825 -97 q -436 -97 -902 -288 l 0 -843 q 450 280 880 422 q 430 142 847 142 q 628 0 973 -276 q 345 -276 345 -787 q 0 -446 -247 -697 q -247 -251 -811 -377 l -446 -97 q -827 -182 -1194 -572 q -367 -389 -367 -1083 q 0 -803 509 -1265 q 509 -462 1401 -462 q 385 0 783 77 q 397 77 811 231 Z M 625447 846030 l 0 1289 l 1383 0 l 0 580 l -1383 0 l 0 2465 q 0 555 136 714 q 136 158 553 158 l 693 0 l 0 624 l -693 0 q -774 0 -1070 -322 q -296 -322 -296 -1174 l 0 -2465 l -491 0 l 0 -580 l 491 0 l 0 -1289 l 677 0 Z M 630077 848017 q -114 -73 -247 -107 q -134 -34 -292 -34 q -572 0 -876 412 q -304 412 -304 1182 l 0 2392 l -677 0 l 0 -4541 l 677 0 l 0 705 q 211 -414 551 -614 q 341 -201 823 -201 q 69 0 154 10 q 85 10 187 30 l 4 766 Z M 634274 849403 l 0 365 l -3090 0 q 45 770 420 1174 q 375 403 1040 403 q 389 0 752 -105 q 363 -105 720 -316 l 0 705 q -361 170 -740 259 q -379 89 -768 89 q -981 0 -1551 -633 q -570 -633 -570 -1711 q 0 -1115 541 -1770 q 541 -655 1462 -655 q 823 0 1304 590 q 480 590 480 1604 m -673 -219 q -8 -612 -308 -977 q -300 -365 -795 -365 q -564 0 -902 353 q -339 353 -387 993 l 2392 -4 Z M 638872 849403 l 0 365 l -3090 0 q 45 770 420 1174 q 375 403 1040 403 q 389 0 752 -105 q 363 -105 720 -316 l 0 705 q -361 170 -740 259 q -379 89 -768 89 q -981 0 -1551 -633 q -570 -633 -570 -1711 q 0 -1115 541 -1770 q 541 -655 1462 -655 q 823 0 1304 590 q 480 590 480 1604 m -673 -219 q -8 -612 -308 -977 q -300 -365 -795 -365 q -564 0 -902 353 q -339 353 -387 993 l 2392 -4 Z M 640640 846030 l 0 1289 l 1383 0 l 0 580 l -1383 0 l 0 2465 q 0 555 136 714 q 136 158 553 158 l 693 0 l 0 624 l -693 0 q -774 0 -1070 -322 q -296 -322 -296 -1174 l 0 -2465 l -491 0 l 0 -580 l 491 0 l 0 -1289 l 677 0 Z M 642797 845559 l 584 0 q 547 957 819 1873 q 272 916 272 1820 q 0 908 -272 1829 q -272 920 -819 1873 l -584 0 q 482 -928 722 -1847 q 239 -918 239 -1855 q 0 -937 -239 -1849 q -239 -912 -722 -1845 Z" class="C4" /><path d="M 564382 61887 l 746 0 l 1143 5117 l 1143 -5117 l 827 0 l 1147 5117 l 1143 -5117 l 746 0 l -1366 6053 l -928 0 l -1147 -5255 l -1164 5255 l -924 0 l -1366 -6053 Z M 572256 61887 l 3442 0 l 0 689 l -2704 0 l 0 1792 l 2595 0 l 0 689 l -2595 0 l 0 2194 l 2773 0 l 0 689 l -3511 0 l 0 -6053 Z M 580239 62086 l 0 799 q -418 -223 -791 -332 q -373 -109 -718 -109 q -604 0 -931 259 q -326 259 -326 738 q 0 401 217 606 q 217 205 825 330 l 442 101 q 827 174 1218 614 q 391 440 391 1178 q 0 880 -529 1334 q -529 454 -1555 454 q -389 0 -825 -97 q -436 -97 -902 -288 l 0 -843 q 450 280 880 422 q 430 142 847 142 q 628 0 973 -276 q 345 -276 345 -787 q 0 -446 -247 -697 q -247 -251 -811 -377 l -446 -97 q -827 -182 -1194 -572 q -367 -389 -367 -1083 q 0 -803 509 -1265 q 509 -462 1401 -462 q 385 0 783 77 q 397 77 811 231 Z M 580969 61887 l 4606 0 l 0 689 l -1934 0 l 0 5364 l -738 0 l 0 -5364 l -1934 0 l 0 -689 Z M 590238 61640 q -491 933 -728 1845 q -237 912 -237 1849 q 0 937 239 1855 q 239 918 726 1847 l -584 0 q -551 -953 -823 -1873 q -272 -920 -272 -1829 q 0 -904 272 -1820 q 272 -916 823 -1873 l 584 0 Z M 592305 65050 l 0 2218 l 1180 0 q 596 0 882 -274 q 286 -274 286 -837 q 0 -568 -286 -837 q -286 -270 -882 -270 l -1180 0 m 0 -2489 l 0 1825 l 1091 0 q 539 0 805 -225 q 266 -225 266 -687 q 0 -458 -266 -685 q -266 -227 -805 -227 l -1091 0 m -738 -673 l 1881 0 q 843 0 1299 389 q 456 389 456 1107 q 0 555 -233 884 q -233 328 -687 410 q 547 130 847 541 q 300 412 300 1028 q 0 811 -497 1253 q -497 442 -1413 442 l -1954 0 l 0 -6053 Z M 598521 65658 q -815 0 -1129 207 q -314 207 -314 705 q 0 397 235 630 q 235 233 641 233 q 560 0 896 -440 q 337 -440 337 -1170 l 0 -166 l -665 0 m 1338 -308 l 0 2591 l -673 0 l 0 -689 q -227 414 -570 610 q -343 197 -841 197 q -628 0 -997 -391 q -369 -391 -369 -1048 q 0 -766 460 -1156 q 460 -389 1377 -389 l 941 0 l 0 -73 q 0 -515 -304 -797 q -304 -282 -856 -282 q -349 0 -681 93 q -332 93 -641 280 l 0 -689 q 369 -158 716 -237 q 347 -79 675 -79 q 888 0 1326 511 q 438 511 438 1549 Z M 604181 63574 l 0 697 q -284 -174 -570 -262 q -286 -87 -578 -87 q -657 0 -1018 460 q -361 460 -361 1291 q 0 831 361 1291 q 361 460 1018 460 q 292 0 578 -87 q 286 -87 570 -262 l 0 689 q -280 146 -582 219 q -302 73 -639 73 q -924 0 -1468 -645 q -543 -645 -543 -1739 q 0 -1111 549 -1748 q 549 -637 1502 -637 q 312 0 608 71 q 296 71 572 213 Z M 605320 61632 l 677 0 l 0 3726 l 2003 -1958 l 860 0 l -2169 2125 l 2258 2417 l -876 0 l -2076 -2218 l 0 2218 l -677 0 l 0 -6309 Z M 611374 68362 q -284 811 -553 1058 q -270 247 -724 247 l -535 0 l 0 -624 l 393 0 q 276 0 430 -146 q 154 -146 341 -689 l 122 -341 l -1654 -4468 l 710 0 l 1277 3552 l 1277 -3552 l 714 0 l -1796 4963 Z M 615951 65658 q -815 0 -1129 207 q -314 207 -314 705 q 0 397 235 630 q 235 233 641 233 q 560 0 896 -440 q 337 -440 337 -1170 l 0 -166 l -665 0 m 1338 -308 l 0 2591 l -673 0 l 0 -689 q -227 414 -570 610 q -343 197 -841 197 q -628 0 -997 -391 q -369 -391 -369 -1048 q 0 -766 460 -1156 q 460 -389 1377 -389 l 941 0 l 0 -73 q 0 -515 -304 -797 q -304 -282 -856 -282 q -349 0 -681 93 q -332 93 -641 280 l 0 -689 q 369 -158 716 -237 q 347 -79 675 -79 q 888 0 1326 511 q 438 511 438 1549 Z M 621040 64097 q -114 -73 -247 -107 q -134 -34 -292 -34 q -572 0 -876 412 q -304 412 -304 1182 l 0 2392 l -677 0 l 0 -4541 l 677 0 l 0 705 q 211 -414 551 -614 q 341 -201 823 -201 q 69 0 154 10 q 85 10 187 30 l 4 766 Z M 624430 64089 l 0 -2457 l 673 0 l 0 6309 l -673 0 l 0 -681 q -211 405 -533 602 q -322 197 -776 197 q -742 0 -1206 -657 q -464 -657 -464 -1727 q 0 -1070 464 -1727 q 464 -657 1206 -657 q 454 0 776 197 q 322 197 533 602 m -2287 1585 q 0 823 304 1291 q 304 468 835 468 q 535 0 841 -468 q 306 -468 306 -1291 q 0 -823 -306 -1291 q -306 -468 -841 -468 q -531 0 -835 468 q -304 468 -304 1291 Z M 626380 61640 l 584 0 q 547 957 819 1873 q 272 916 272 1820 q 0 908 -272 1829 q -272 920 -819 1873 l -584 0 q 482 -928 722 -1847 q 239 -918 239 -1855 q 0 -937 -239 -1849 q -239 -912 -722 -1845 Z" class="C4" /><path d="M 253291 454611 l 0 639 q -334 -178 -633 -266 q -298 -88 -574 -88 q -483 0 -744 208 q -261 208 -261 590 q 0 321 174 485 q 174 164 660 264 l 354 81 q 662 139 975 491 q 313 352 313 942 q 0 704 -423 1067 q -423 363 -1244 363 q -311 0 -660 -78 q -349 -78 -722 -230 l 0 -675 q 360 224 704 337 q 344 114 678 114 q 503 0 778 -221 q 276 -221 276 -629 q 0 -357 -198 -558 q -198 -201 -649 -302 l -357 -78 q -662 -146 -955 -457 q -294 -311 -294 -866 q 0 -642 407 -1012 q 407 -370 1121 -370 q 308 0 626 62 q 318 62 649 185 Z M 256243 454897 q -642 0 -1020 532 q -378 532 -378 1450 q 0 915 378 1447 q 378 532 1020 532 q 642 0 1019 -532 q 376 -532 376 -1447 q 0 -918 -376 -1450 q -376 -532 -1019 -532 m 0 -532 q 918 0 1466 683 q 548 683 548 1831 q 0 1145 -548 1828 q -548 683 -1466 683 q -918 0 -1468 -681 q -550 -681 -550 -1829 q 0 -1148 550 -1831 q 550 -683 1468 -683 Z M 259111 454452 l 594 0 l 0 2942 q 0 778 255 1121 q 255 342 822 342 q 568 0 821 -342 q 253 -342 253 -1121 l 0 -2942 l 594 0 l 0 3023 q 0 947 -422 1430 q -422 483 -1246 483 q -827 0 -1249 -483 q -422 -483 -422 -1430 l 0 -3023 Z M 262954 454452 l 3685 0 l 0 551 l -1547 0 l 0 4291 l -590 0 l 0 -4291 l -1547 0 l 0 -551 Z M 267203 454452 l 590 0 l 0 1985 l 2141 0 l 0 -1985 l 590 0 l 0 4843 l -590 0 l 0 -2306 l -2141 0 l 0 2306 l -590 0 l 0 -4843 Z M 274865 454254 q -392 746 -582 1476 q -190 730 -190 1479 q 0 749 191 1484 q 191 735 581 1477 l -467 0 q -441 -762 -658 -1499 q -217 -736 -217 -1463 q 0 -723 217 -1456 q 217 -733 658 -1499 l 467 0 Z M 278900 458604 l 0 -1301 l -963 0 l 0 -538 l 1547 0 l 0 2079 q -341 269 -753 407 q -412 138 -879 138 q -1022 0 -1597 -663 q -576 -663 -576 -1847 q 0 -1187 576 -1850 q 576 -663 1597 -663 q 425 0 809 117 q 384 117 709 344 l 0 697 q -328 -308 -696 -464 q -368 -156 -774 -156 q -798 0 -1200 496 q -402 496 -402 1479 q 0 980 402 1476 q 402 496 1200 496 q 315 0 560 -60 q 245 -60 440 -187 Z M 282024 457469 q -652 0 -903 165 q -251 165 -251 564 q 0 318 188 504 q 188 187 512 187 q 448 0 717 -352 q 269 -352 269 -936 l 0 -133 l -532 0 m 1070 -247 l 0 2073 l -538 0 l 0 -551 q -182 331 -456 488 q -274 157 -673 157 q -503 0 -798 -313 q -295 -313 -295 -838 q 0 -613 368 -924 q 368 -311 1101 -311 l 753 0 l 0 -58 q 0 -412 -243 -637 q -243 -225 -684 -225 q -279 0 -545 75 q -266 75 -512 224 l 0 -551 q 295 -127 573 -190 q 277 -63 540 -63 q 710 0 1061 409 q 350 409 350 1239 Z M 286094 456220 q -91 -58 -198 -86 q -107 -28 -234 -28 q -457 0 -701 329 q -243 329 -243 946 l 0 1914 l -542 0 l 0 -3633 l 542 0 l 0 564 q 169 -331 441 -491 q 272 -161 658 -161 q 55 0 123 8 q 68 8 149 24 l 3 613 Z M 288141 457469 q -652 0 -903 165 q -251 165 -251 564 q 0 318 188 504 q 188 187 512 187 q 448 0 717 -352 q 269 -352 269 -936 l 0 -133 l -532 0 m 1070 -247 l 0 2073 l -538 0 l 0 -551 q -182 331 -456 488 q -274 157 -673 157 q -503 0 -798 -313 q -295 -313 -295 -838 q 0 -613 368 -924 q 368 -311 1101 -311 l 753 0 l 0 -58 q 0 -412 -243 -637 q -243 -225 -684 -225 q -279 0 -545 75 q -266 75 -512 224 l 0 -551 q 295 -127 573 -190 q 277 -63 540 -63 q 710 0 1061 409 q 350 409 350 1239 Z M 292468 457436 q 0 -649 -242 -1006 q -242 -357 -676 -357 q -431 0 -671 357 q -240 357 -240 1006 q 0 645 240 1002 q 240 357 671 357 q 435 0 676 -357 q 242 -357 242 -1002 m 538 1408 q 0 928 -371 1380 q -371 452 -1137 452 q -282 0 -534 -47 q -251 -47 -488 -144 l 0 -581 q 237 143 467 211 q 230 68 470 68 q 529 0 791 -307 q 263 -307 263 -926 l 0 -295 q -165 321 -425 480 q -259 159 -623 159 q -603 0 -970 -509 q -367 -509 -367 -1349 q 0 -843 367 -1353 q 367 -509 970 -509 q 363 0 623 159 q 259 159 425 480 l 0 -551 l 538 0 l 0 3182 Z M 296909 457329 l 0 292 l -2472 0 q 36 616 336 939 q 300 323 832 323 q 311 0 602 -84 q 290 -84 576 -253 l 0 564 q -289 136 -592 208 q -303 71 -615 71 q -785 0 -1241 -506 q -456 -506 -456 -1369 q 0 -892 433 -1416 q 433 -524 1169 -524 q 658 0 1043 472 q 384 472 384 1283 m -538 -175 q -6 -490 -247 -782 q -240 -292 -636 -292 q -451 0 -722 282 q -271 282 -310 795 l 1914 -3 Z M 297707 454254 l 467 0 q 438 765 655 1499 q 217 733 217 1456 q 0 727 -217 1463 q -217 736 -655 1499 l -467 0 q 386 -743 577 -1477 q 191 -735 191 -1484 q 0 -749 -191 -1479 q -191 -730 -577 -1476 Z" class="C4" /><path d="M 895808 502880 l 795 0 l 1933 4051 l 0 -4051 l 571 0 l 0 4843 l -795 0 l -1933 -4051 l 0 4051 l -571 0 l 0 -4843 Z M 902045 503324 q -642 0 -1020 532 q -378 532 -378 1450 q 0 915 378 1447 q 378 532 1020 532 q 642 0 1019 -532 q 376 -532 376 -1447 q 0 -918 -376 -1450 q -376 -532 -1019 -532 m 0 -532 q 918 0 1466 683 q 548 683 548 1831 q 0 1145 -548 1828 q -548 683 -1466 683 q -918 0 -1468 -681 q -550 -681 -550 -1829 q 0 -1148 550 -1831 q 550 -683 1468 -683 Z M 907047 505452 q 191 71 370 305 q 178 234 360 642 l 600 1323 l -636 0 l -558 -1242 q -214 -487 -417 -645 q -203 -159 -553 -159 l -642 0 l 0 2047 l -590 0 l 0 -4843 l 1330 0 q 749 0 1116 347 q 367 347 367 1048 q 0 457 -190 759 q -190 302 -556 418 m -1476 -2034 l 0 1719 l 740 0 q 428 0 645 -219 q 217 -219 217 -644 q 0 -425 -217 -641 q -217 -216 -645 -216 l -740 0 Z M 908533 502880 l 3685 0 l 0 551 l -1547 0 l 0 4291 l -590 0 l 0 -4291 l -1547 0 l 0 -551 Z M 912782 502880 l 590 0 l 0 1985 l 2141 0 l 0 -1985 l 590 0 l 0 4843 l -590 0 l 0 -2306 l -2141 0 l 0 2306 l -590 0 l 0 -4843 Z M 920443 502682 q -392 746 -582 1476 q -190 730 -190 1479 q 0 749 191 1484 q 191 735 581 1477 l -467 0 q -441 -762 -658 -1499 q -217 -736 -217 -1463 q 0 -723 217 -1456 q 217 -733 658 -1499 l 467 0 Z M 921507 502880 l 590 0 l 0 4291 l 2121 0 l 0 551 l -2712 0 l 0 -4843 Z M 924813 504090 l 535 0 l 0 3633 l -535 0 l 0 -3633 m 0 -1414 l 535 0 l 0 756 l -535 0 l 0 -756 Z M 926087 504090 l 568 0 l 1022 3049 l 1022 -3049 l 571 0 l -1226 3633 l -730 0 l -1226 -3633 Z M 930009 504090 l 535 0 l 0 3633 l -535 0 l 0 -3633 m 0 -1414 l 535 0 l 0 756 l -535 0 l 0 -756 Z M 934388 505530 l 0 2193 l -538 0 l 0 -2173 q 0 -516 -182 -772 q -182 -256 -542 -256 q -435 0 -686 308 q -251 308 -251 840 l 0 2053 l -542 0 l 0 -3633 l 542 0 l 0 564 q 191 -328 452 -490 q 261 -162 605 -162 q 561 0 851 388 q 290 388 290 1140 Z M 937609 505864 q 0 -649 -242 -1006 q -242 -357 -676 -357 q -431 0 -671 357 q -240 357 -240 1006 q 0 645 240 1002 q 240 357 671 357 q 435 0 676 -357 q 242 -357 242 -1002 m 538 1408 q 0 928 -371 1380 q -371 452 -1137 452 q -282 0 -534 -47 q -251 -47 -488 -144 l 0 -581 q 237 143 467 211 q 230 68 470 68 q 529 0 791 -307 q 263 -307 263 -926 l 0 -295 q -165 321 -425 480 q -259 159 -623 159 q -603 0 -970 -509 q -367 -509 -367 -1349 q 0 -843 367 -1353 q 367 -509 970 -509 q 363 0 623 159 q 259 159 425 480 l 0 -551 l 538 0 l 0 3182 Z M 943240 505452 q 191 71 370 305 q 178 234 360 642 l 600 1323 l -636 0 l -558 -1242 q -214 -487 -417 -645 q -203 -159 -553 -159 l -642 0 l 0 2047 l -590 0 l 0 -4843 l 1330 0 q 749 0 1116 347 q 367 347 367 1048 q 0 457 -190 759 q -190 302 -556 418 m -1476 -2034 l 0 1719 l 740 0 q 428 0 645 -219 q 217 -219 217 -644 q 0 -425 -217 -641 q -217 -216 -645 -216 l -740 0 Z M 947846 504787 q 204 -402 483 -594 q 279 -191 658 -191 q 512 0 790 397 q 277 397 277 1130 l 0 2193 l -542 0 l 0 -2173 q 0 -522 -165 -775 q -165 -253 -509 -253 q -415 0 -658 308 q -243 308 -243 840 l 0 2053 l -538 0 l 0 -2173 q 0 -525 -167 -777 q -167 -251 -514 -251 q -412 0 -654 310 q -242 310 -242 838 l 0 2053 l -542 0 l 0 -3633 l 542 0 l 0 564 q 185 -334 441 -493 q 256 -159 610 -159 q 357 0 607 201 q 250 201 367 584 Z M 951041 502682 l 467 0 q 438 765 655 1499 q 217 733 217 1456 q 0 727 -217 1463 q -217 736 -655 1499 l -467 0 q 386 -743 577 -1477 q 191 -735 191 -1484 q 0 -749 -191 -1479 q -191 -730 -577 -1476 Z" class="C4" /><path d="M 479867 28119 q 1054 251 1650 1046 q 596 795 596 1962 q 0 1792 -1107 2773 q -1107 981 -3150 981 q -689 0 -1415 -150 q -726 -150 -1504 -450 l 0 -1581 q 616 397 1346 600 q 730 203 1525 203 q 1387 0 2112 -608 q 726 -608 726 -1768 q 0 -1070 -673 -1675 q -673 -604 -1881 -604 l -1265 0 l 0 -1346 l 1322 0 q 1087 0 1666 -482 q 580 -482 580 -1391 q 0 -933 -596 -1431 q -596 -499 -1707 -499 q -608 0 -1297 146 q -689 146 -1525 454 l 0 -1460 q 835 -259 1569 -389 q 734 -130 1383 -130 q 1679 0 2660 847 q 981 847 981 2291 q 0 1006 -519 1699 q -519 693 -1476 961 Z M 488057 23618 q -1135 0 -1711 1245 q -576 1245 -576 3742 q 0 2489 576 3734 q 576 1245 1711 1245 q 1143 0 1715 -1245 q 572 -1245 572 -3734 q 0 -2498 -572 -3742 q -572 -1245 -1715 -1245 m 0 -1297 q 1833 0 2798 1610 q 965 1610 965 4675 q 0 3057 -965 4667 q -965 1610 -2798 1610 q -1833 0 -2798 -1610 q -965 -1610 -965 -4667 q 0 -3065 965 -4675 q 965 -1610 2798 -1610 Z M 500496 23886 l 0 4549 l 1849 0 q 1030 0 1593 -592 q 564 -592 564 -1687 q 0 -1087 -564 -1679 q -564 -592 -1593 -592 l -1849 0 m -1476 -1346 l 3325 0 q 1833 0 2769 920 q 937 920 937 2696 q 0 1792 -937 2708 q -937 916 -2769 916 l -1849 0 l 0 4865 l -1476 0 l 0 -12107 Z M 511671 24153 l -2003 6025 l 4014 0 l -2011 -6025 m -835 -1614 l 1679 0 l 4152 12107 l -1533 0 l -997 -3106 l -4914 0 l -989 3106 l -1557 0 l 4160 -12107 Z M 523413 28970 q 478 178 924 762 q 446 584 900 1606 l 1500 3309 l -1589 0 l -1395 -3106 q -535 -1216 -1042 -1614 q -507 -397 -1383 -397 l -1606 0 l 0 5117 l -1476 0 l 0 -12107 l 3325 0 q 1873 0 2790 868 q 916 868 916 2619 q 0 1143 -474 1898 q -474 754 -1391 1046 m -3690 -5084 l 0 4298 l 1849 0 q 1070 0 1614 -547 q 543 -547 543 -1610 q 0 -1062 -543 -1602 q -543 -539 -1614 -539 l -1849 0 Z M 528627 22540 l 1476 0 l 0 5117 l 4890 -5117 l 1898 0 l -5409 5644 l 5790 6463 l -1938 0 l -5230 -5830 l 0 5830 l -1476 0 l 0 -12107 Z M 542428 29514 l 13485 0 l 0 1168 l -13485 0 l 0 -1168 Z M 570283 32919 l 0 -3252 l -2408 0 l 0 -1346 l 3868 0 l 0 5198 q -851 673 -1881 1018 q -1030 345 -2198 345 q -2554 0 -3994 -1658 q -1439 -1658 -1439 -4618 q 0 -2968 1439 -4626 q 1439 -1658 3994 -1658 q 1062 0 2023 292 q 961 292 1772 860 l 0 1743 q -819 -770 -1739 -1160 q -920 -389 -1934 -389 q -1995 0 -3000 1241 q -1006 1241 -1006 3698 q 0 2449 1006 3690 q 1006 1241 3000 1241 q 787 0 1399 -150 q 612 -150 1099 -466 Z M 579600 28970 q 478 178 924 762 q 446 584 900 1606 l 1500 3309 l -1589 0 l -1395 -3106 q -535 -1216 -1042 -1614 q -507 -397 -1383 -397 l -1606 0 l 0 5117 l -1476 0 l 0 -12107 l 3325 0 q 1873 0 2790 868 q 916 868 916 2619 q 0 1143 -474 1898 q -474 754 -1391 1046 m -3690 -5084 l 0 4298 l 1849 0 q 1070 0 1614 -547 q 543 -547 543 -1610 q 0 -1062 -543 -1602 q -543 -539 -1614 -539 l -1849 0 Z M 589234 23651 q -1606 0 -2550 1330 q -945 1330 -945 3625 q 0 2287 945 3617 q 945 1330 2550 1330 q 1606 0 2546 -1330 q 941 -1330 941 -3617 q 0 -2295 -941 -3625 q -941 -1330 -2546 -1330 m 0 -1330 q 2295 0 3665 1707 q 1370 1707 1370 4578 q 0 2863 -1370 4569 q -1370 1707 -3665 1707 q -2295 0 -3669 -1703 q -1374 -1703 -1374 -4574 q 0 -2871 1374 -4578 q 1374 -1707 3669 -1707 Z M 596402 22540 l 1484 0 l 0 7355 q 0 1946 637 2802 q 637 856 2056 856 q 1419 0 2052 -856 q 633 -856 633 -2802 l 0 -7355 l 1484 0 l 0 7558 q 0 2368 -1054 3576 q -1054 1208 -3114 1208 q -2068 0 -3122 -1208 q -1054 -1208 -1054 -3576 l 0 -7558 Z M 607512 22540 l 1987 0 l 4833 10128 l 0 -10128 l 1427 0 l 0 12107 l -1987 0 l -4833 -10128 l 0 10128 l -1427 0 l 0 -12107 Z M 620162 23886 l 0 9415 l 1776 0 q 2254 0 3304 -1135 q 1050 -1135 1050 -3584 q 0 -2433 -1050 -3564 q -1050 -1131 -3304 -1131 l -1776 0 m -1476 -1346 l 3025 0 q 3171 0 4651 1464 q 1480 1464 1480 4578 q 0 3130 -1488 4598 q -1488 1468 -4642 1468 l -3025 0 l 0 -12107 Z M 634937 22540 l 6260 0 l 0 1379 l -4784 0 l 0 3568 l 4322 0 l 0 1379 l -4322 0 l 0 5782 l -1476 0 l 0 -12107 Z M 643532 22540 l 1476 0 l 0 10728 l 5303 0 l 0 1379 l -6779 0 l 0 -12107 Z M 656272 23651 q -1606 0 -2550 1330 q -945 1330 -945 3625 q 0 2287 945 3617 q 945 1330 2550 1330 q 1606 0 2546 -1330 q 941 -1330 941 -3617 q 0 -2295 -941 -3625 q -941 -1330 -2546 -1330 m 0 -1330 q 2295 0 3665 1707 q 1370 1707 1370 4578 q 0 2863 -1370 4569 q -1370 1707 -3665 1707 q -2295 0 -3669 -1703 q -1374 -1703 -1374 -4574 q 0 -2871 1374 -4578 q 1374 -1707 3669 -1707 Z M 668030 23651 q -1606 0 -2550 1330 q -945 1330 -945 3625 q 0 2287 945 3617 q 945 1330 2550 1330 q 1606 0 2546 -1330 q 941 -1330 941 -3617 q 0 -2295 -941 -3625 q -941 -1330 -2546 -1330 m 0 -1330 q 2295 0 3665 1707 q 1370 1707 1370 4578 q 0 2863 -1370 4569 q -1370 1707 -3665 1707 q -2295 0 -3669 -1703 q -1374 -1703 -1374 -4574 q 0 -2871 1374 -4578 q 1374 -1707 3669 -1707 Z M 680534 28970 q 478 178 924 762 q 446 584 900 1606 l 1500 3309 l -1589 0 l -1395 -3106 q -535 -1216 -1042 -1614 q -507 -397 -1383 -397 l -1606 0 l 0 5117 l -1476 0 l 0 -12107 l 3325 0 q 1873 0 2790 868 q 916 868 916 2619 q 0 1143 -474 1898 q -474 754 -1391 1046 m -3690 -5084 l 0 4298 l 1849 0 q 1070 0 1614 -547 q 543 -547 543 -1610 q 0 -1062 -543 -1602 q -543 -539 -1614 -539 l -1849 0 Z M 693663 22045 q -981 1865 -1456 3690 q -474 1825 -474 3698 q 0 1873 478 3710 q 478 1837 1452 3694 l -1168 0 q -1103 -1906 -1646 -3746 q -543 -1841 -543 -3657 q 0 -1808 543 -3641 q 543 -1833 1646 -3746 l 1168 0 Z M 695301 25564 l 1419 0 l 2554 7623 l 2554 -7623 l 1427 0 l -3065 9082 l -1825 0 l -3065 -9082 Z M 704918 22540 l 7006 0 l 0 697 l -3957 11409 l -1533 0 l 3714 -10728 l -5230 0 l 0 -1379 Z M 714398 22045 l 1168 0 q 1095 1914 1638 3746 q 543 1833 543 3641 q 0 1816 -543 3657 q -543 1841 -1638 3746 l -1168 0 q 965 -1857 1443 -3694 q 478 -1837 478 -3710 q 0 -1873 -478 -3698 q -478 -1825 -1443 -3690 Z" class="C3" /></g></svg>